<svg xmlns="http://www.w3.org/2000/svg" xmlns:xlink="http://www.w3.org/1999/xlink" viewBox="0 0 1497.92 1484"><defs><style>.cls-1{isolation:isolate;}.cls-2{mix-blend-mode:multiply;opacity:0.3;fill:url(#radial-gradient);}.cls-3{fill:#05255f;}.cls-4,.cls-5{fill:#ff382f;}.cls-5{font-size:937.21px;font-family:Arial-Black, Arial;font-weight:800;}</style><radialGradient id="radial-gradient" cx="91.99" cy="-4747.7" r="392.08" gradientTransform="translate(610.97 1794.98) scale(1.5 0.07)" gradientUnits="userSpaceOnUse"><stop offset="0" stop-color="#231f20"/><stop offset="1" stop-color="#fff"/></radialGradient></defs><g class="cls-1"><g id="Layer_2" data-name="Layer 2"><g id="_Layer_" data-name="&lt;Layer&gt;"><path class="cls-2" d="M1337,1456c0,15.46-263.25,28-588,28s-588-12.54-588-28,263.25-28,588-28S1337,1440.54,1337,1456Z"/><path class="cls-3" d="M845.82,1371.63a44.57,44.57,0,0,1-4.66,5.47,63.86,63.86,0,0,1-14.13,11,77.62,77.62,0,0,1-24.07,8.61,147.12,147.12,0,0,1-16.31,2.11c-6,.48-12.58.73-19.92,1-2.8,0-3.82.19-3.38.14s2.38-.33,5.45-1,7.23-1.69,12.08-3.06,10.37-3.2,16.1-5.12,11.63-4.21,17.28-6.38,11-4.31,15.68-6.24,8.61-3.66,11.42-4.77Z"/><path class="cls-3" d="M852.13,1413.79a55.6,55.6,0,0,0-6.34-3.87,83.76,83.76,0,0,0-17-7,103.38,103.38,0,0,0-25.61-3.7c-5-.16-10.47-.07-16.48.12s-12.6.52-19.95.62c-2.8.11-3.82,0-3.38,0s2.38.22,5.49.68,7.36,1.23,12.37,2.12l16.86,3.15c6.07,1.1,12.46,2.31,18.64,3.32s12.15,1.85,17.39,2.55,9.75,1.29,12.94,1.54Z"/><path class="cls-3" d="M922.66,1338a63.08,63.08,0,0,1-3,8.7,77,77,0,0,1-10.83,18.42,62.1,62.1,0,0,1-21.3,17.14c-9.2,4.55-20.62,7.38-35.26,8.69-6.11-2.91-5-6,.45-10.46a125.91,125.91,0,0,1,10.89-7.5c4.39-2.79,9.4-5.85,14.6-8.92l15.71-9.33,14.26-8.42,10.44-6Z"/><path class="cls-3" d="M943.47,1411.07a79.58,79.58,0,0,0-7.66-5.7,108,108,0,0,0-19.55-10.43,80.57,80.57,0,0,0-27.34-5.9,100.76,100.76,0,0,0-16.65.81c-6,.75-12.46,2-19.66,3.58-2.48,2.31-3.27,4.09-2.57,5.65s2.86,2.9,6.24,4.15a92.2,92.2,0,0,0,13.25,3.46c5.33,1.08,11.43,2,17.83,2.78s13.09,1.37,19.53,1.7,12.66.54,18.07.53C935.76,1411.68,943.47,1411.07,943.47,1411.07Z"/><path class="cls-3" d="M993.8,1298.46a86.59,86.59,0,0,1-.94,11,98.49,98.49,0,0,1-6.35,24.09,61.18,61.18,0,0,1-17.19,24c-8.13,6.75-19,11.57-33.52,13.92-7.23-4.91-7.2-10.62-3-17.6a69.86,69.86,0,0,1,8.94-11.14c3.72-3.94,8-8.07,12.57-12.12s9.25-8.14,13.77-11.95,8.88-7.28,12.67-10.28,7-5.52,9.35-7.23S993.8,1298.46,993.8,1298.46Z"/><path class="cls-3" d="M1034.44,1392.91a111.4,111.4,0,0,0-9.29-6.65A141.56,141.56,0,0,0,1002.4,1374c-9-3.71-18.94-6.46-29.61-6.58s-22.12,2.42-35.76,8.28c-1.76,4-1.94,7.22-.71,9.89s3.89,4.79,7.72,6.54c7.59,3.4,19.92,5.38,33.27,5.86,6.67.26,13.58.17,20.19-.15s12.91-1,18.38-1.7,10.12-1.47,13.39-2.12S1034.44,1392.91,1034.44,1392.91Z"/><path class="cls-3" d="M1059.07,1253.14a114.08,114.08,0,0,1,1.46,12.54,120.67,120.67,0,0,1-1.15,28c-1.76,10.27-5.36,20.69-12.13,29.2s-16.71,15.11-31.12,18.69c-8.74-6.11-10.23-13.69-7.67-22.57a63,63,0,0,1,6.48-14,150.2,150.2,0,0,1,10.16-14.67c3.75-4.86,7.71-9.66,11.57-14.07s7.62-8.44,10.92-11.87,6.14-6.28,8.18-8.25S1059.07,1253.14,1059.07,1253.14Z"/><path class="cls-3" d="M1122.52,1360.19s-4.22-3-11-6.92a176.33,176.33,0,0,0-26.19-12.54c-10.11-3.73-21-6.38-32-5.93s-22.23,4-34.74,12.22c-1.54,10.57,2.72,17,11.49,20.89a55.42,55.42,0,0,0,15.82,3.91,116.23,116.23,0,0,0,19.64.45A183.19,183.19,0,0,0,1086,1370c6.64-1.14,12.92-2.56,18.33-4s10-2.86,13.16-3.94S1122.52,1360.19,1122.52,1360.19Z"/><path class="cls-3" d="M1118.35,1202.44a132.17,132.17,0,0,1,4,13.33,140.15,140.15,0,0,1,4.32,30.24c.25,11.29-1.32,23-6.54,32.86s-14,18-28.15,23c-10.42-6.58-13.71-15.36-13-25.55a61.52,61.52,0,0,1,3.72-16,125.17,125.17,0,0,1,7.5-16.61c2.91-5.46,6.11-10.77,9.25-15.68s6.25-9.42,9.07-13.17,5.24-6.88,7-9S1118.35,1202.44,1118.35,1202.44Z"/><path class="cls-3" d="M1205.35,1313.88s-5-2.89-12.75-6.52a211.79,211.79,0,0,0-29.47-11.42c-11.19-3.28-23-5.42-34.3-4.14s-22.13,5.94-33.21,16.14c.8,12.33,6.68,19.57,16.58,23.39a54.66,54.66,0,0,0,17.11,3.14,103.92,103.92,0,0,0,20.23-1.32,173.92,173.92,0,0,0,38.44-11A158.29,158.29,0,0,0,1205.35,1313.88Z"/><path class="cls-3" d="M1171.37,1146.75a148.35,148.35,0,0,1,6.39,13.42,158,158,0,0,1,9.8,31c2.26,11.73,2.76,24.11-.77,35s-11.09,20.29-24.71,26.63c-12.11-6.38-17.27-15.7-18.51-26.65s1.52-23.3,5.57-35.08a177.22,177.22,0,0,1,6.83-16.88c2.45-5.24,4.94-10,7.21-14.11C1167.68,1152,1171.37,1146.75,1171.37,1146.75Z"/><path class="cls-3" d="M1280.94,1255.26s-5.6-2.52-14.24-5.55a243.68,243.68,0,0,0-32.35-9.16c-12.1-2.4-24.66-3.6-36.09-1.32s-21.74,8.09-31.16,20c1.65,6.65,4.34,11.84,8,15.78a30.14,30.14,0,0,0,13.77,8.28c10.84,3.26,24.84,2.13,38.67-1.62a141.38,141.38,0,0,0,20.11-7.08,174.5,174.5,0,0,0,17.08-8.64A149.21,149.21,0,0,0,1280.94,1255.26Z"/><path class="cls-3" d="M1217.93,1086.6s3.77,5,8.59,12.88a170.64,170.64,0,0,1,14.93,30.46c4.19,11.68,6.73,24.27,4.9,35.77s-8,22-20.9,29.73c-13.62-5.58-20.64-14.9-23.79-26.07s-2.35-24,0-36.32a174,174,0,0,1,9.78-32.38c1.71-4.27,3.34-7.79,4.52-10.24S1217.93,1086.6,1217.93,1086.6Z"/><path class="cls-3" d="M1347.44,1185.69s-6.07-1.93-15.39-4.08a266.72,266.72,0,0,0-34.51-5.88c-12.77-1.2-25.84-1.15-37.19,2.3s-21,10.37-28.6,23.58c2.89,6.79,6.58,12,11.07,15.75a34,34,0,0,0,15.63,7.33c11.67,2.31,25.8-.31,39.26-5.69s26-13.46,35.11-20.45c4.52-3.49,8.19-6.7,10.72-9S1347.44,1185.69,1347.44,1185.69Z"/><path class="cls-3" d="M1257.69,1022.43s4.5,4.49,10.5,11.84a178.88,178.88,0,0,1,19.45,28.72c5.94,11.22,10.37,23.57,10.24,35.35s-4.77,23-16.81,32.23c-14.83-4.28-23.53-13.06-28.46-24s-6-23.94-5.39-36.41a138.24,138.24,0,0,1,2.16-17.94c1-5.62,2.24-10.79,3.46-15.2s2.4-8,3.31-10.6S1257.69,1022.43,1257.69,1022.43Z"/><path class="cls-3" d="M1403.3,1106.82s-6.4-1.2-16.11-2.25a284.87,284.87,0,0,0-35.75-1.86c-13.11.28-26.39,1.8-37.41,6.54s-19.84,12.72-25.53,26.94c8,13.19,18.59,19.59,31,20.67s26.19-3.2,38.94-10.26a125.84,125.84,0,0,0,17.88-12,157.07,157.07,0,0,0,14.3-12.94c4-4.08,7.18-7.78,9.36-10.46S1403.3,1106.82,1403.3,1106.82Z"/><path class="cls-3" d="M1290.33,954.72s5.09,3.91,12,10.43a182.8,182.8,0,0,1,23.19,26.05c7.43,10.41,13.52,22.14,15,33.89s-1.61,23.52-12.49,34.13c-15.65-2.58-25.76-10.4-32.28-20.74s-9.34-23.1-10.26-35.48a126.77,126.77,0,0,1-.07-18c.35-5.66,1-10.9,1.7-15.38A125.18,125.18,0,0,1,1290.33,954.72Z"/><path class="cls-3" d="M1447.2,1020.42s-6.56-.4-16.35-.19a291.72,291.72,0,0,0-35.9,2.67c-13.06,1.93-26.17,5.08-36.61,11.13s-18.23,15.07-21.94,30c10.06,12.29,21.69,17.51,34.35,17.11s25.89-6.39,37.6-15.09,21.65-19.91,28.41-29.15A133.36,133.36,0,0,0,1447.2,1020.42Z"/><path class="cls-3" d="M1315.6,884s5.45,3.19,13,8.74a180.22,180.22,0,0,1,26,22.73c8.59,9.34,16.09,20.17,19.08,31.63s1.44,23.54-8,35.44c-16-.61-27.18-7.14-35-16.56s-12.18-21.67-14.51-33.77a126,126,0,0,1-2.12-17.71,153.37,153.37,0,0,1,0-15.37A122.58,122.58,0,0,1,1315.6,884Z"/><path class="cls-3" d="M1478,928.51s-6.46.48-16,2a291,291,0,0,0-34.86,7.38c-12.6,3.62-25.14,8.44-34.71,15.79s-16.16,17.28-17.88,32.55c11.69,10.95,24.06,14.7,36.6,12.69s24.8-9.7,35.12-19.89a119.84,119.84,0,0,0,13.87-16.37,148.22,148.22,0,0,0,10-16.37c2.66-5,4.62-9.49,5.93-12.66S1478,928.51,1478,928.51Z"/><path class="cls-3" d="M1333.27,810.67s5.59,2.45,13.49,6.94a175.13,175.13,0,0,1,27.62,19.09c9.37,8.1,18,17.84,22.25,28.79s4.3,23.12-3.54,36.15c-15.8,1.49-27.63-3.51-36.45-11.82s-14.45-19.81-18-31.46a126.77,126.77,0,0,1-3.93-17.24,147.65,147.65,0,0,1-1.5-15.22A124.39,124.39,0,0,1,1333.27,810.67Z"/><path class="cls-3" d="M1495.05,833.28s-6.1,1.32-15.08,4.06a280.89,280.89,0,0,0-32.57,11.93c-11.69,5.26-23.23,11.7-31.64,20.25s-13.62,19.25-13.4,34.61c12.87,9.32,25.51,11.42,37.53,7.77s22.93-12.92,31.53-24.4a119.67,119.67,0,0,0,11.19-18.08,143,143,0,0,0,7.35-17.54A131.61,131.61,0,0,0,1495.05,833.28Z"/><path class="cls-3" d="M1343.31,735.28s5.51,1.73,13.39,5.19a165.11,165.11,0,0,1,28.09,15.46c9.77,6.84,19,15.38,24.37,25.68s6.85,22.35.87,36.3c-15,3.57-27.06.18-36.47-6.88s-16-17.76-20.58-28.88a119,119,0,0,1-5.43-16.65c-1.32-5.4-2.25-10.53-2.88-15A129.94,129.94,0,0,1,1343.31,735.28Z"/><path class="cls-3" d="M1497.92,737.09s-5.52,2.07-13.56,5.92a259.57,259.57,0,0,0-29.07,16c-10.34,6.7-20.48,14.58-27.43,24.15s-10.7,20.86-8.61,36c13.5,7.53,26,7.93,37,2.74s20.23-15.8,26.85-28.26a114.26,114.26,0,0,0,8.11-19.31,146.15,146.15,0,0,0,4.52-18.25A136.43,136.43,0,0,0,1497.92,737.09Z"/><path class="cls-3" d="M1345.73,658.4a125.52,125.52,0,0,1,12.68,3.64,151.89,151.89,0,0,1,27.34,12.11c9.72,5.65,19.25,13,25.41,22.59a42.31,42.31,0,0,1,6.35,16.08,45.77,45.77,0,0,1-1.26,19.86c-13.69,5.45-25.42,3.64-35-2.2s-16.85-15.68-22.2-26.24a113,113,0,0,1-6.59-16,151.05,151.05,0,0,1-4.11-14.69c-1-4.39-1.7-8.17-2.09-10.86S1345.73,658.4,1345.73,658.4Z"/><path class="cls-3" d="M1486.66,642.13s-4.71,2.68-11.46,7.4a244.35,244.35,0,0,0-24.36,19.17c-8.61,7.86-16.91,16.89-22.16,27.23s-7.41,22-3.63,36.8c13.56,5.75,25.38,4.55,35-2s16.79-18.13,21.2-31.23,6-27.42,6.27-38.48c.12-5.53-.08-10.26-.35-13.6S1486.66,642.13,1486.66,642.13Z"/><path class="cls-3" d="M1340.25,580.67a104.19,104.19,0,0,1,11.51,2.42,134.15,134.15,0,0,1,25.46,9.34c9.27,4.63,18.7,10.94,25.45,19.76s10.89,20.15,9.11,35.1c-11.77,7-22.72,6.6-32,1.87a46.44,46.44,0,0,1-12.73-9.88,75.8,75.8,0,0,1-10.15-13.86,130.06,130.06,0,0,1-7.57-15.37,149.2,149.2,0,0,1-5.14-14.37C1341.51,587,1340.25,580.67,1340.25,580.67Z"/><path class="cls-3" d="M1461.49,550.54s-3.68,3.08-8.87,8.38a213.43,213.43,0,0,0-18.5,21.29c-6.42,8.62-12.6,18.44-15.89,29.24s-3.77,22.66,1.55,36.88c13.08,4.12,23.7,1.53,31.54-6a43.9,43.9,0,0,0,9.49-14.37,73.67,73.67,0,0,0,5.1-18.77,131.21,131.21,0,0,0-.5-38.32c-.82-5.39-1.81-10-2.58-13.2S1461.49,550.54,1461.49,550.54Z"/><path class="cls-3" d="M1326.68,502.42a81.07,81.07,0,0,1,9.83,1.75,117.54,117.54,0,0,1,22.58,7.58c8.5,3.9,17.42,9.4,24.54,17.51s12.41,18.88,13,33.85c-9.31,8.09-19,8.81-27.75,5s-16.43-12.13-22.69-21.71a131.61,131.61,0,0,1-8.28-14.88c-2.38-5-4.47-9.83-6.1-14.13C1328.51,508.8,1326.68,502.42,1326.68,502.42Z"/><path class="cls-3" d="M1422.87,464.83s-2.47,3.18-5.82,8.63a189.19,189.19,0,0,0-11.74,21.9c-4,8.87-7.58,18.95-8.73,29.85s.17,22.64,6.87,36.15c12.06,2.77,21-.88,26.72-9.05s7.8-20.56,7.16-33.64a119,119,0,0,0-2.68-19.46,151.82,151.82,0,0,0-4.82-17.3c-1.74-5.07-3.5-9.34-4.8-12.34S1422.87,464.83,1422.87,464.83Z"/><path class="cls-3" d="M1305,424.17a62.94,62.94,0,0,1,7.75,1.67,105,105,0,0,1,18.85,7.14,80,80,0,0,1,22.74,16.22,63.8,63.8,0,0,1,16.5,32.27c-3.18,4.26-6.84,6.75-10.61,7.76a17.93,17.93,0,0,1-11.63-1.1c-7.77-3.26-15.28-11.16-21.72-20.5A158.28,158.28,0,0,1,1318,453c-2.65-4.92-5-9.76-6.89-14.05-1-2.16-1.82-4.15-2.61-5.93s-1.4-3.36-1.94-4.67C1305.53,425.75,1305,424.17,1305,424.17Z"/><path class="cls-3" d="M1371.77,387.2s-1.1,2.95-2.42,8.08A198.49,198.49,0,0,0,1365,416a112.94,112.94,0,0,0-1,28.71,80,80,0,0,0,12.15,34.61c10.52,1.9,17.49-2.32,20.69-10.54s2.53-20.15-.77-32.4a132,132,0,0,0-6.49-18,151.84,151.84,0,0,0-8-15.72c-1.31-2.29-2.58-4.39-3.75-6.26s-2.25-3.54-3.16-4.89C1372.93,388.74,1371.77,387.2,1371.77,387.2Z"/><path class="cls-3" d="M1274.41,346.05s2,.84,5.48,2.72,8.51,4.67,14.56,8.58a124.82,124.82,0,0,1,20.38,16.1,90.67,90.67,0,0,1,10.62,12.67,87,87,0,0,1,9.34,17.58c-1.55,4.07-3.88,6.49-6.6,7.49s-5.83.59-9.12-1a38.29,38.29,0,0,1-10.13-7.73,98.36,98.36,0,0,1-10.1-12.42c-3.3-4.64-6.41-9.7-9.29-14.67s-5.5-9.86-7.7-14.22C1277.43,352.49,1274.41,346.05,1274.41,346.05Z"/><path class="cls-3" d="M1309,320.74s.26,2.23,1,6.28,1.92,9.87,3.56,17.08a201.7,201.7,0,0,0,7.33,25.43,123.18,123.18,0,0,0,17.59,32.07c8.6,1.64,13.21-2.53,13.67-10.16A37.55,37.55,0,0,0,1350,378a86.17,86.17,0,0,0-7.15-15.73,140.23,140.23,0,0,0-10.34-15.58,171,171,0,0,0-11.07-13.26c-3.49-3.82-6.62-7-8.87-9.21Z"/><path class="cls-3" d="M1237.24,266.77l.65,1.32c.44.86,1.11,2.12,2.08,3.7s2.2,3.47,3.74,5.6,3.44,4.47,5.63,7c4.35,5.16,10.13,11,16.92,18.31s14.65,16.06,22.43,28.57c.17,3.35-.74,5.27-2.28,5.84s-3.75-.16-6.34-2c-5.15-3.73-11.59-12.11-17.93-22-3.14-5-6.18-10.33-9.11-15.55s-5.57-10.4-7.92-14.93-4.27-8.51-5.68-11.32Z"/><path class="cls-3" d="M1237.24,266.77l1.25.77c.82.51,2,1.31,3.49,2.44a74.82,74.82,0,0,1,11.42,10.93c4.51,5.1,9.35,11.81,15.11,20s12.39,17.86,22.08,29c6.35,2.3,8.36-1,6.13-7.16s-8.7-14.93-17.15-23.55c-4.23-4.29-9-8.47-13.69-12.37s-9.48-7.38-13.69-10.37-8-5.36-10.65-7.05c-1.33-.85-2.41-1.49-3.16-1.93Z"/><path class="cls-3" d="M645.79,1413.79a56.8,56.8,0,0,1,6.34-3.87,83.76,83.76,0,0,1,17-7,103.46,103.46,0,0,1,25.62-3.7c5-.16,10.46-.07,16.47.12s12.6.52,20,.62c2.8.11,3.83,0,3.38,0s-2.38.22-5.49.68-7.36,1.23-12.37,2.12L699.85,1406c-6.07,1.1-12.46,2.31-18.64,3.32s-12.15,1.85-17.39,2.55-9.75,1.29-12.94,1.54Z"/><path class="cls-3" d="M652.1,1371.63a44.57,44.57,0,0,0,4.66,5.47,63.86,63.86,0,0,0,14.13,11,77.6,77.6,0,0,0,24.08,8.61,146.61,146.61,0,0,0,16.3,2.11c6,.48,12.58.73,19.92,1a33.16,33.16,0,0,1,3.38.14c-.45,0-2.37-.33-5.44-1s-7.24-1.69-12.09-3.06-10.37-3.2-16.1-5.12-11.63-4.21-17.28-6.38-11-4.31-15.68-6.24-8.61-3.66-11.42-4.77Z"/><path class="cls-3" d="M554.45,1411.07a79.58,79.58,0,0,1,7.66-5.7,108.3,108.3,0,0,1,19.55-10.43A80.68,80.68,0,0,1,609,1389a100.71,100.71,0,0,1,16.65.81c6,.75,12.46,2,19.66,3.58,2.49,2.31,3.27,4.09,2.58,5.65s-2.86,2.9-6.25,4.15a91.84,91.84,0,0,1-13.25,3.46c-5.33,1.08-11.43,2-17.83,2.78s-13.09,1.37-19.53,1.7-12.66.54-18.07.53C562.17,1411.68,554.45,1411.07,554.45,1411.07Z"/><path class="cls-3" d="M575.26,1338a63.08,63.08,0,0,0,3,8.7,77,77,0,0,0,10.83,18.42,62,62,0,0,0,21.31,17.14c9.2,4.55,20.62,7.38,35.26,8.69,6.11-2.91,5-6-.46-10.46a124.37,124.37,0,0,0-10.89-7.5c-4.39-2.79-9.39-5.85-14.6-8.92l-15.7-9.33-14.27-8.42-10.44-6Z"/><path class="cls-3" d="M463.48,1392.91a111.4,111.4,0,0,1,9.29-6.65A141.56,141.56,0,0,1,495.52,1374c9-3.71,19-6.46,29.62-6.58s22.12,2.42,35.76,8.28c1.76,4,1.94,7.22.7,9.89s-3.88,4.79-7.72,6.54c-7.58,3.4-19.92,5.38-33.27,5.86-6.67.26-13.58.17-20.19-.15s-12.91-1-18.37-1.7-10.13-1.47-13.39-2.12S463.48,1392.91,463.48,1392.91Z"/><path class="cls-3" d="M504.12,1298.46a86.59,86.59,0,0,0,.94,11,98.49,98.49,0,0,0,6.35,24.09,61.18,61.18,0,0,0,17.19,24c8.13,6.75,18.95,11.57,33.53,13.92,7.23-4.91,7.19-10.62,3-17.6a70,70,0,0,0-9-11.14c-3.72-3.94-8-8.07-12.57-12.12s-9.24-8.14-13.76-11.95-8.88-7.28-12.68-10.28-7-5.52-9.34-7.23S504.12,1298.46,504.12,1298.46Z"/><path class="cls-3" d="M375.4,1360.19s4.22-3,11.05-6.92a176.81,176.81,0,0,1,26.19-12.54c10.11-3.73,21-6.38,32.05-5.93s22.22,4,34.74,12.22c1.54,10.57-2.73,17-11.49,20.89a55.49,55.49,0,0,1-15.83,3.91,116.09,116.09,0,0,1-19.63.45,183.37,183.37,0,0,1-20.56-2.3c-6.64-1.14-12.92-2.56-18.33-4s-10-2.86-13.16-3.94S375.4,1360.19,375.4,1360.19Z"/><path class="cls-3" d="M438.86,1253.14a111.12,111.12,0,0,0-1.46,12.54,120.06,120.06,0,0,0,1.14,28c1.77,10.27,5.36,20.69,12.13,29.2s16.71,15.11,31.13,18.69c8.74-6.11,10.23-13.69,7.66-22.57a62.51,62.51,0,0,0-6.48-14,150.2,150.2,0,0,0-10.16-14.67c-3.74-4.86-7.71-9.66-11.57-14.07s-7.61-8.44-10.92-11.87-6.14-6.28-8.18-8.25S438.86,1253.14,438.86,1253.14Z"/><path class="cls-3" d="M292.58,1313.88s4.95-2.89,12.74-6.52a212.28,212.28,0,0,1,29.47-11.42c11.19-3.28,23-5.42,34.31-4.14s22.12,5.94,33.21,16.14c-.81,12.33-6.69,19.57-16.59,23.39a54.66,54.66,0,0,1-17.11,3.14,103.92,103.92,0,0,1-20.23-1.32,173.83,173.83,0,0,1-38.43-11A157.16,157.16,0,0,1,292.58,1313.88Z"/><path class="cls-3" d="M379.57,1202.44a132.17,132.17,0,0,0-4,13.33,140.77,140.77,0,0,0-4.32,30.24c-.25,11.29,1.32,23,6.54,32.86s14,18,28.15,23c10.43-6.58,13.71-15.36,13-25.55a61.52,61.52,0,0,0-3.72-16,125.17,125.17,0,0,0-7.5-16.61c-2.91-5.46-6.1-10.77-9.25-15.68s-6.25-9.42-9.06-13.17-5.25-6.88-7-9S379.57,1202.44,379.57,1202.44Z"/><path class="cls-3" d="M217,1255.26s5.6-2.52,14.25-5.55a243.06,243.06,0,0,1,32.34-9.16c12.1-2.4,24.67-3.6,36.09-1.32s21.74,8.09,31.17,20c-1.66,6.65-4.35,11.84-8,15.78a30.14,30.14,0,0,1-13.77,8.28c-10.84,3.26-24.84,2.13-38.67-1.62a141.38,141.38,0,0,1-20.11-7.08,173.15,173.15,0,0,1-17.07-8.64A148.82,148.82,0,0,1,217,1255.26Z"/><path class="cls-3" d="M326.55,1146.75s-2.92,5.23-6.39,13.42a158.65,158.65,0,0,0-9.8,31c-2.26,11.73-2.76,24.11.77,35s11.09,20.29,24.71,26.63c12.11-6.38,17.27-15.7,18.51-26.65s-1.51-23.3-5.57-35.08a177.22,177.22,0,0,0-6.83-16.88c-2.45-5.24-4.94-10-7.21-14.11C330.24,1152,326.55,1146.75,326.55,1146.75Z"/><path class="cls-3" d="M150.49,1185.69s6.06-1.93,15.38-4.08a266.72,266.72,0,0,1,34.51-5.88c12.77-1.2,25.84-1.15,37.19,2.3s21,10.37,28.61,23.58c-2.89,6.79-6.59,12-11.08,15.75a33.9,33.9,0,0,1-15.63,7.33c-11.66,2.31-25.8-.31-39.26-5.69s-26.05-13.46-35.1-20.45c-4.53-3.49-8.2-6.7-10.73-9S150.49,1185.69,150.49,1185.69Z"/><path class="cls-3" d="M280,1086.6s-3.78,5-8.59,12.88a170,170,0,0,0-14.94,30.46c-4.19,11.68-6.73,24.27-4.9,35.77s8,22,20.91,29.73c13.62-5.58,20.63-14.9,23.78-26.07s2.35-24,0-36.32a174.84,174.84,0,0,0-9.77-32.38c-1.72-4.27-3.34-7.79-4.53-10.24S280,1086.6,280,1086.6Z"/><path class="cls-3" d="M94.62,1106.82s6.4-1.2,16.12-2.25a284.65,284.65,0,0,1,35.75-1.86c13.1.28,26.39,1.8,37.4,6.54s19.84,12.72,25.53,26.94c-8,13.19-18.58,19.59-31,20.67s-26.2-3.2-38.95-10.26a126.3,126.3,0,0,1-17.87-12,155.75,155.75,0,0,1-14.3-12.94c-4-4.08-7.19-7.78-9.37-10.46S94.62,1106.82,94.62,1106.82Z"/><path class="cls-3" d="M240.23,1022.43s-4.49,4.49-10.49,11.84A178.23,178.23,0,0,0,210.28,1063c-5.94,11.22-10.36,23.57-10.23,35.35s4.77,23,16.8,32.23c14.83-4.28,23.53-13.06,28.46-24s6-23.94,5.39-36.41a140,140,0,0,0-2.15-17.94c-1-5.62-2.25-10.79-3.47-15.2s-2.39-8-3.3-10.6S240.23,1022.43,240.23,1022.43Z"/><path class="cls-3" d="M50.72,1020.42s6.56-.4,16.35-.19A292,292,0,0,1,103,1022.9c13,1.93,26.17,5.08,36.6,11.13s18.23,15.07,21.94,30c-10.05,12.29-21.69,17.51-34.35,17.11s-25.89-6.39-37.59-15.09-21.66-19.91-28.41-29.15A132.82,132.82,0,0,1,50.72,1020.42Z"/><path class="cls-3" d="M207.6,954.72s-5.09,3.91-12,10.43A182.18,182.18,0,0,0,172.4,991.2c-7.43,10.41-13.53,22.14-15,33.89s1.61,23.52,12.49,34.13c15.65-2.58,25.76-10.4,32.28-20.74s9.34-23.1,10.26-35.48a125.3,125.3,0,0,0,.07-18c-.35-5.66-1-10.9-1.69-15.38A127.65,127.65,0,0,0,207.6,954.72Z"/><path class="cls-3" d="M19.88,928.51s6.46.48,16,2a291.77,291.77,0,0,1,34.86,7.38c12.59,3.62,25.14,8.44,34.7,15.79s16.16,17.28,17.88,32.55c-11.69,10.95-24.06,14.7-36.6,12.69S61.94,989.2,51.62,979a119.84,119.84,0,0,1-13.87-16.37,146.53,146.53,0,0,1-10-16.37c-2.67-5-4.62-9.49-5.94-12.66S19.88,928.51,19.88,928.51Z"/><path class="cls-3" d="M182.32,884s-5.44,3.19-13,8.74a179.66,179.66,0,0,0-25.94,22.73c-8.6,9.34-16.1,20.17-19.09,31.63s-1.44,23.54,8,35.44c16-.61,27.18-7.14,35-16.56s12.19-21.67,14.51-33.77A127.52,127.52,0,0,0,184,914.47c.26-5.63.2-10.87,0-15.37A122.58,122.58,0,0,0,182.32,884Z"/><path class="cls-3" d="M2.87,833.28S9,834.6,18,837.34a280.89,280.89,0,0,1,32.57,11.93c11.69,5.26,23.24,11.7,31.64,20.25s13.62,19.25,13.4,34.61c-12.87,9.32-25.5,11.42-37.53,7.77S35.11,899,26.5,887.5a120.48,120.48,0,0,1-11.19-18.08A144.57,144.57,0,0,1,8,851.88,133.31,133.31,0,0,1,2.87,833.28Z"/><path class="cls-3" d="M164.65,810.67s-5.59,2.45-13.49,6.94a175.13,175.13,0,0,0-27.62,19.09c-9.37,8.1-18,17.84-22.24,28.79s-4.31,23.12,3.53,36.15c15.8,1.49,27.63-3.51,36.45-11.82s14.46-19.81,18-31.46a125.29,125.29,0,0,0,3.93-17.24,150.71,150.71,0,0,0,1.51-15.22A125.43,125.43,0,0,0,164.65,810.67Z"/><path class="cls-3" d="M0,737.09s5.52,2.07,13.57,5.92a259.52,259.52,0,0,1,29.06,16c10.34,6.7,20.48,14.58,27.43,24.15s10.7,20.86,8.62,36c-13.5,7.53-26,7.93-37,2.74s-20.23-15.8-26.85-28.26A115.08,115.08,0,0,1,6.7,774.32a144.27,144.27,0,0,1-4.51-18.25A135.66,135.66,0,0,1,0,737.09Z"/><path class="cls-3" d="M154.61,735.28s-5.5,1.73-13.39,5.19a165.06,165.06,0,0,0-28.08,15.46c-9.77,6.84-19,15.38-24.38,25.68s-6.84,22.35-.86,36.3c15,3.57,27.05.18,36.46-6.88s16-17.76,20.59-28.88a117.62,117.62,0,0,0,5.42-16.65c1.32-5.4,2.25-10.53,2.88-15A129.94,129.94,0,0,0,154.61,735.28Z"/><path class="cls-3" d="M11.27,642.13s4.7,2.68,11.45,7.4A243.2,243.2,0,0,1,47.08,668.7c8.61,7.86,16.91,16.89,22.17,27.23s7.4,22,3.62,36.8c-13.56,5.75-25.38,4.55-35-2s-16.79-18.13-21.19-31.23-6-27.42-6.27-38.48a133.83,133.83,0,0,1,.34-13.6C11,644.09,11.27,642.13,11.27,642.13Z"/><path class="cls-3" d="M152.19,658.4A125.52,125.52,0,0,0,139.51,662a151.89,151.89,0,0,0-27.34,12.11c-9.72,5.65-19.24,13-25.41,22.59a42.14,42.14,0,0,0-6.34,16.08,45.91,45.91,0,0,0,1.25,19.86c13.69,5.45,25.43,3.64,35-2.2s16.86-15.68,22.21-26.24a114.15,114.15,0,0,0,6.59-16c1.75-5.25,3.11-10.29,4.11-14.69s1.7-8.17,2.08-10.86S152.19,658.4,152.19,658.4Z"/><path class="cls-3" d="M36.43,550.54s3.68,3.08,8.87,8.38a213.43,213.43,0,0,1,18.5,21.29c6.42,8.62,12.6,18.44,15.89,29.24s3.77,22.66-1.55,36.88c-13.08,4.12-23.69,1.53-31.53-6a43.92,43.92,0,0,1-9.5-14.37A74.09,74.09,0,0,1,32,607.17a131.19,131.19,0,0,1,.51-38.32c.81-5.39,1.81-10,2.58-13.2S36.43,550.54,36.43,550.54Z"/><path class="cls-3" d="M157.67,580.67a103.8,103.8,0,0,0-11.5,2.42,134.22,134.22,0,0,0-25.47,9.34c-9.26,4.63-18.69,10.94-25.45,19.76s-10.88,20.15-9.11,35.1c11.77,7,22.72,6.6,32,1.87a46.74,46.74,0,0,0,12.73-9.88,76.22,76.22,0,0,0,10.14-13.86,128.53,128.53,0,0,0,7.57-15.37,146.54,146.54,0,0,0,5.14-14.37C156.41,587,157.67,580.67,157.67,580.67Z"/><path class="cls-3" d="M75.05,464.83s2.47,3.18,5.83,8.63a189.32,189.32,0,0,1,11.73,21.9c4,8.87,7.59,18.95,8.73,29.85s-.17,22.64-6.87,36.15c-12.06,2.77-21-.88-26.72-9.05s-7.8-20.56-7.16-33.64a119,119,0,0,1,2.68-19.46,151.82,151.82,0,0,1,4.82-17.3c1.75-5.07,3.5-9.34,4.8-12.34S75.05,464.83,75.05,464.83Z"/><path class="cls-3" d="M171.25,502.42a80.71,80.71,0,0,0-9.83,1.75,117.38,117.38,0,0,0-22.59,7.58c-8.5,3.9-17.42,9.4-24.54,17.51s-12.41,18.88-13,33.85c9.32,8.09,19,8.81,27.75,5s16.43-12.13,22.69-21.71a131.61,131.61,0,0,0,8.28-14.88c2.39-5,4.47-9.83,6.11-14.13C169.41,508.8,171.25,502.42,171.25,502.42Z"/><path class="cls-3" d="M126.16,387.2s1.1,2.95,2.42,8.08A198.85,198.85,0,0,1,132.89,416a112.91,112.91,0,0,1,1,28.71,80,80,0,0,1-12.16,34.61c-10.52,1.9-17.48-2.32-20.69-10.54s-2.52-20.15.78-32.4a130.66,130.66,0,0,1,6.49-18,151.87,151.87,0,0,1,8-15.72c1.31-2.29,2.59-4.39,3.75-6.26s2.26-3.54,3.16-4.89C125,388.74,126.16,387.2,126.16,387.2Z"/><path class="cls-3" d="M193,424.17a62.5,62.5,0,0,0-7.75,1.67A105.1,105.1,0,0,0,166.37,433a80,80,0,0,0-22.74,16.22,63.72,63.72,0,0,0-16.49,32.27c3.18,4.26,6.83,6.75,10.61,7.76a17.9,17.9,0,0,0,11.62-1.1c7.77-3.26,15.29-11.16,21.73-20.5A156,156,0,0,0,179.88,453c2.66-4.92,5-9.76,6.89-14.05l2.61-5.93c.74-1.79,1.4-3.36,1.94-4.67C192.4,425.75,193,424.17,193,424.17Z"/><path class="cls-3" d="M188.93,320.74s-.27,2.23-1.05,6.28-1.93,9.87-3.57,17.08A201.47,201.47,0,0,1,177,369.53a123,123,0,0,1-17.6,32.07c-8.6,1.64-13.21-2.53-13.67-10.16A38,38,0,0,1,147.88,378,85.57,85.57,0,0,1,155,362.29a137.48,137.48,0,0,1,10.34-15.58,171,171,0,0,1,11.06-13.26c3.49-3.82,6.62-7,8.87-9.21Z"/><path class="cls-3" d="M223.52,346.05s-2,.84-5.49,2.72-8.5,4.67-14.56,8.58a124.79,124.79,0,0,0-20.37,16.1,89.32,89.32,0,0,0-10.62,12.67,86.49,86.49,0,0,0-9.35,17.58c1.55,4.07,3.88,6.49,6.6,7.49s5.83.59,9.12-1A38.32,38.32,0,0,0,189,402.48a100.14,100.14,0,0,0,10.1-12.42c3.29-4.64,6.4-9.7,9.28-14.67s5.5-9.86,7.71-14.22C220.5,352.49,223.52,346.05,223.52,346.05Z"/><path class="cls-3" d="M260.68,266.77l-1.24.77c-.83.51-2,1.31-3.5,2.44a75.76,75.76,0,0,0-11.42,10.93c-4.5,5.1-9.35,11.81-15.11,20s-12.39,17.86-22.08,29c-6.35,2.3-8.35-1-6.13-7.16s8.7-14.93,17.15-23.55c4.23-4.29,9-8.47,13.69-12.37s9.49-7.38,13.7-10.37,8-5.36,10.64-7.05c1.33-.85,2.42-1.49,3.16-1.93Z"/><path class="cls-3" d="M260.68,266.77s-.23.48-.65,1.32-1.11,2.12-2.08,3.7-2.2,3.47-3.74,5.6-3.44,4.47-5.62,7c-4.36,5.16-10.13,11-16.92,18.31S217,318.79,209.23,331.3c-.16,3.35.74,5.27,2.28,5.84s3.75-.16,6.34-2c5.16-3.73,11.59-12.11,17.93-22,3.14-5,6.19-10.33,9.11-15.55s5.57-10.4,7.92-14.93,4.28-8.51,5.68-11.32Z"/><path class="cls-4" d="M372.21,156l3.93,2c2.36,1.18,5.46,2.73,8.58,4.37C391,165.58,397,169,397,169l4.17-2,9.26-4.13c3.36-1.5,6.79-2.86,9.32-3.93l3.07-1.27c.74-.31,1.17-.47,1.17-.47l-.38,1.16c-.24.74-.58,1.8-1,3.07-.8,2.55-1.84,5.93-2.85,9.28s-1.92,6.76-2.61,9.28-1.11,4.2-1.11,4.2l9.12,10.24,9,10.31L430,205l-4.31.26-4.92.41c-3.35.3-6.78.57-9.3.87l-4.22.49s-3.21,6-6.11,12.14L399,223.57l-1.78,3.93c-1,2.29-1.71,3.82-1.71,3.82l-6.41-12.1L382.83,207l-4.33-.45c-2.59-.26-6.12-.64-9.6-.89s-7-.49-9.67-.65l-4.45-.25.86-.92,2.29-2.41c1.91-2,4.38-4.72,7-7.3L372.1,187l3.34-3.19s-1-6.88-1.8-13.87S372.21,156,372.21,156Z"/><path class="cls-4" d="M528.88,60.79s6.9,6.53,13.56,13.15,13.19,13.49,13.19,13.49l6.16-.87c3.7-.5,8.66-1,13.58-1.59s9.88-1,13.57-1.32l6.16-.54S589.52,91,584.25,98.78,574,114.64,574,114.64s3.82,8.42,7.63,16.85l7.44,16.89L583.65,147c-3.3-.87-7.69-1.86-12.14-2.83s-8.94-2-12.3-2.61l-5.63-1.06-4.05,4.06c-2.42,2.4-5.55,5.81-8.67,9.1-1.54,1.66-3.09,3.31-4.54,4.86l-3.86,4.35-3.73,4.23S527,158,525.32,149s-3.23-18.2-3.23-18.2l-5.39-2.32c-3.23-1.36-7.62-3.27-12-5-8.76-3.47-17.81-6.81-17.81-6.81l5.38-3c3.25-1.79,7.53-4.31,11.93-6.6l12.1-6.36,5.58-2.76s1.5-9.25,3.25-18.57S528.88,60.79,528.88,60.79Z"/><path class="cls-4" d="M749,0s6.81,12.21,13.26,24.43c3.23,6.11,6.4,12.21,8.73,16.79s3.87,7.65,3.87,7.65l9,1.57c5.38,1,12.56,2.09,19.69,3.56l19.55,4,8.84,2L825,65.27c-4.14,3.19-9.61,7.62-15,12s-10.68,8.7-14.62,12.1L788.82,95l3.4,26.81c1.57,13.42,3.13,26.84,3.13,26.84s-.7-.47-1.93-1.19l-5.13-3.06-15.78-9.28C760.92,128.66,749,122.21,749,122.21s-12,6.45-23.55,12.91l-15.78,9.28-5.13,3.06c-1.23.72-1.94,1.18-1.94,1.19s1.57-13.42,3.13-26.84S709.1,95,709.1,95l-6.52-5.65c-3.94-3.4-9.23-7.7-14.62-12.1s-10.85-8.79-15-12L666,60l8.84-2,19.55-4c7.13-1.47,14.3-2.57,19.69-3.56l9-1.57L727,41.22c2.33-4.58,5.5-10.68,8.73-16.79C742.15,12.21,749,0,749,0Z"/><path class="cls-4" d="M969,60.79s2,9.26,3.75,18.53S976,97.89,976,97.89l5.57,2.76L993.72,107c4.4,2.29,8.68,4.81,11.93,6.6l5.38,3s-9,3.34-17.81,6.81c-4.38,1.71-8.77,3.62-12,5l-5.38,2.32s-1.61,9.1-3.23,18.2l-3.42,18.14-3.72-4.23-3.87-4.35-4.53-4.86c-3.12-3.29-6.25-6.7-8.67-9.1l-4-4.06-5.63,1.06c-3.36.6-7.87,1.64-12.31,2.61s-8.83,2-12.13,2.83l-5.47,1.39,7.45-16.89c3.81-8.43,7.63-16.85,7.63-16.85s-4.94-7.93-10.21-15.86-10.85-15.67-10.85-15.67l6.16.54c3.69.35,8.65.7,13.57,1.32s9.88,1.09,13.57,1.59l6.16.87s6.48-6.78,13.19-13.49S969,60.79,969,60.79Z"/><path class="cls-4" d="M1125.71,156s-.63,7-1.43,14-1.8,13.87-1.8,13.87l3.34,3.19,7.17,7.17c2.61,2.58,5.09,5.32,7,7.3l2.28,2.41.87.92-4.45.25c-2.66.16-6.18.39-9.67.65s-7,.64-9.61.89l-4.31.46-6.31,12.18-6.41,12.1s-.68-1.53-1.71-3.82l-1.78-3.93-2.15-4.45c-2.9-6.12-6.11-12.14-6.11-12.14l-4.22-.49c-2.52-.3-6-.57-9.3-.87l-4.92-.41-4.31-.26-4.17-.24,9-10.31,9.12-10.24s-.44-1.68-1.12-4.2-1.59-6-2.61-9.28-2-6.73-2.84-9.28c-.41-1.27-.74-2.33-1-3.07l-.38-1.16s.43.16,1.17.47l3.07,1.27c2.53,1.07,6,2.43,9.32,3.93l9.26,4.13,4.17,2s6.08-3.37,12.31-6.64c3.11-1.64,6.22-3.19,8.58-4.37Z"/><path class="cls-3" d="M921.94,1098v21.08h-1.66a26.3,26.3,0,0,0-2.9-9.66,15,15,0,0,0-6-5.71,16.45,16.45,0,0,0-8-2.11,10.87,10.87,0,0,0-7.73,2.85,8.68,8.68,0,0,0-3.06,6.5,7.66,7.66,0,0,0,1.93,5.07q2.79,3.38,13.26,9a90.86,90.86,0,0,1,11.67,7,17.1,17.1,0,0,1,4.81,5.78,15.24,15.24,0,0,1,1.69,7,15.79,15.79,0,0,1-5.38,11.94q-5.37,5-13.82,5a29.25,29.25,0,0,1-5-.4,51.68,51.68,0,0,1-5.77-1.64,25.75,25.75,0,0,0-5.56-1.42,2.34,2.34,0,0,0-1.77.68,5.25,5.25,0,0,0-1,2.78h-1.66v-20.9h1.66q1.17,6.56,3.15,9.82a15,15,0,0,0,6,5.42,18.77,18.77,0,0,0,8.93,2.16q5.61,0,8.88-3a9.2,9.2,0,0,0,3.25-7,9.54,9.54,0,0,0-1.23-4.54,13.6,13.6,0,0,0-3.85-4.27,107.5,107.5,0,0,0-9.57-5.74,93.53,93.53,0,0,1-11.13-7,18.77,18.77,0,0,1-5-5.75,14.28,14.28,0,0,1-1.71-6.92,15,15,0,0,1,5-11.31,17.92,17.92,0,0,1,12.81-4.74,25.62,25.62,0,0,1,10.29,2.38,10.6,10.6,0,0,0,3.55,1.12,2.72,2.72,0,0,0,1.92-.69,5.67,5.67,0,0,0,1.19-2.81Z"/><path class="cls-3" d="M868.64,1160.33H852.36l-20.63-28.5c-1.53.06-2.77.09-3.73.09l-1.26,0-1.39-.07v17.71q0,5.76,1.25,7.15a6.41,6.41,0,0,0,5.13,2h2.38v1.66H808v-1.66h2.3q3.86,0,5.53-2.52c.62-.93.94-3.13.94-6.61v-39.38q0-5.76-1.26-7.15a6.6,6.6,0,0,0-5.21-2H808v-1.67H830.2q9.7,0,14.32,1.42a16.35,16.35,0,0,1,7.82,5.21,13.6,13.6,0,0,1,3.22,9.06,14.22,14.22,0,0,1-3.67,9.75q-3.66,4.14-11.35,5.85l12.59,17.49q4.3,6,7.42,8a18.61,18.61,0,0,0,8.09,2.52ZM825.35,1129c.56,0,1.06,0,1.48,0l1,0q8.71,0,13.15-3.77a12.11,12.11,0,0,0,4.43-9.62,12.54,12.54,0,0,0-3.58-9.29,12.78,12.78,0,0,0-9.46-3.57,39.38,39.38,0,0,0-7,.85Z"/><path class="cls-3" d="M766.59,1140.62H743l-4.13,9.62a15.15,15.15,0,0,0-1.53,5.3,3.08,3.08,0,0,0,1.32,2.45c.89.71,2.8,1.16,5.74,1.37V1161h-19.2v-1.67q3.82-.67,4.95-1.75c1.52-1.44,3.22-4.36,5.07-8.77l21.45-50.17h1.57l21.22,50.71q2.56,6.12,4.65,7.94a9.53,9.53,0,0,0,5.82,2V1161h-24v-1.67q3.64-.18,4.93-1.21a3.14,3.14,0,0,0,1.28-2.52,18.64,18.64,0,0,0-1.8-6.25Zm-1.26-3.33L755,1112.66l-10.6,24.63Z"/><path class="cls-3" d="M670.32,1102.7v24.09h13.4c3.47,0,5.8-.52,7-1.57q2.32-2.07,2.6-7.28H695v21.22h-1.67a23.82,23.82,0,0,0-1.25-5.71,5.65,5.65,0,0,0-2.66-2.48,13.53,13.53,0,0,0-5.66-.9h-13.4v20.1a18.58,18.58,0,0,0,.36,4.92,2.84,2.84,0,0,0,1.26,1.4,7.75,7.75,0,0,0,3.42.51H685.7a27.91,27.91,0,0,0,7.5-.72,11.19,11.19,0,0,0,4.5-2.83,34.59,34.59,0,0,0,5.71-8.41h1.8L700,1160.33H653v-1.66h2.16a8.54,8.54,0,0,0,4.09-1,3.76,3.76,0,0,0,1.95-2.16,20.91,20.91,0,0,0,.52-5.89V1110q0-5.81-1.17-7.15-1.62-1.78-5.39-1.79H653v-1.67h47l.67,13.35h-1.75a21.29,21.29,0,0,0-2.09-6.61,7.27,7.27,0,0,0-3.4-2.74,20.31,20.31,0,0,0-6.33-.67Z"/><path class="cls-3" d="M615,1099.37h21.26V1101h-1.17a9.15,9.15,0,0,0-3.42,1,13.46,13.46,0,0,0-4.09,3,40.5,40.5,0,0,0-4.54,6.29l-14.7,23.15v15.29q0,5.61,1.26,7,1.71,1.89,5.4,1.89h2v1.66H591v-1.66h2.16c2.58,0,4.4-.78,5.48-2.34q1-1.44,1-6.56v-14.44L583,1109.8a52.75,52.75,0,0,0-4-5.62,15.66,15.66,0,0,0-4.38-2.7,6,6,0,0,0-2.61-.44v-1.67H598V1101h-1.35a7.83,7.83,0,0,0-3.89,1,3.2,3.2,0,0,0-1.77,3q0,1.62,2.74,5.84l12.72,19.65,12-18.79c1.8-2.82,2.69-4.92,2.69-6.3a4,4,0,0,0-.65-2.24,4.28,4.28,0,0,0-1.86-1.55A9,9,0,0,0,615,1101Z"/><text class="cls-5" transform="translate(437.06 1022.43)">8</text></g></g></g></svg>