<svg xmlns="http://www.w3.org/2000/svg" viewBox="0 0 500 429.76"><defs><style>.cls-1,.cls-2,.cls-3,.cls-5,.cls-6{fill:#fff;}.cls-2{opacity:0.2;}.cls-3,.cls-4{opacity:0.3;}.cls-5{opacity:0.1;}.cls-6{opacity:0.5;}</style></defs><g id="Layer_2" data-name="Layer 2"><g id="OBJECTS"><rect class="cls-1" y="325.98" width="500" height="103.78"/><path class="cls-1" d="M432.87,326a191.63,191.63,0,0,0,13.58-71.08c0-106.11-86-192.12-192.12-192.12S62.22,148.79,62.22,254.9A191.63,191.63,0,0,0,75.8,326Z"/><ellipse class="cls-1" cx="255.74" cy="368" rx="200.25" ry="10.33"/><rect class="cls-1" x="131.53" y="29.08" width="238.78" height="337.36" rx="9.2"/><polygon class="cls-2" points="148.59 341.76 353.24 352.6 353.24 341.76 148.59 341.76"/><rect class="cls-1" x="148.59" y="45.74" width="204.65" height="296.01"/><rect class="cls-3" x="187.35" y="73.91" width="120.53" height="10.01" rx="4.28"/><g class="cls-4"><path class="cls-1" d="M277,111H175.21a2.84,2.84,0,0,1-2.83-2.84h0a2.83,2.83,0,0,1,2.83-2.83H277a2.83,2.83,0,0,1,2.83,2.83h0A2.84,2.84,0,0,1,277,111Z"/></g><g class="cls-4"><path class="cls-1" d="M277,120.86H175.21a2.83,2.83,0,0,1-2.83-2.83h0a2.83,2.83,0,0,1,2.83-2.83H277a2.83,2.83,0,0,1,2.83,2.83h0A2.83,2.83,0,0,1,277,120.86Z"/></g><g class="cls-4"><path class="cls-1" d="M290.4,111.22a20.16,20.16,0,1,1,20.16,20.16A20.18,20.18,0,0,1,290.4,111.22Zm4.44,0A15.72,15.72,0,1,0,310.56,95.5,15.74,15.74,0,0,0,294.84,111.22Z"/></g><path class="cls-1" d="M311.21,120.63l-.25,0a2.6,2.6,0,0,1-2-1.29,55.22,55.22,0,0,0-6.48-8.74,2.6,2.6,0,0,1,3.79-3.55,63.76,63.76,0,0,1,5.32,6.72c4.6-4.9,15.25-15.41,25.86-20a2.6,2.6,0,1,1,2.07,4.76c-12.7,5.51-26.2,21.07-26.34,21.22A2.57,2.57,0,0,1,311.21,120.63Z"/><g class="cls-4"><path class="cls-1" d="M290.4,170.46a20.16,20.16,0,1,1,20.16,20.16A20.18,20.18,0,0,1,290.4,170.46Zm4.44,0a15.72,15.72,0,1,0,15.72-15.72A15.74,15.74,0,0,0,294.84,170.46Z"/></g><path class="cls-3" d="M277,170.34H175.21a2.83,2.83,0,0,1-2.83-2.83h0a2.83,2.83,0,0,1,2.83-2.83H277a2.83,2.83,0,0,1,2.83,2.83h0A2.83,2.83,0,0,1,277,170.34Z"/><path class="cls-3" d="M277,180.21H175.21a2.83,2.83,0,0,1-2.83-2.83h0a2.83,2.83,0,0,1,2.83-2.83H277a2.83,2.83,0,0,1,2.83,2.83h0A2.83,2.83,0,0,1,277,180.21Z"/><path class="cls-1" d="M311.21,179.74l-.25,0a2.6,2.6,0,0,1-2-1.29,55.22,55.22,0,0,0-6.48-8.74,2.6,2.6,0,0,1,3.79-3.55,63.76,63.76,0,0,1,5.32,6.72c4.6-4.9,15.25-15.41,25.86-20a2.6,2.6,0,1,1,2.07,4.76c-12.7,5.51-26.2,21.07-26.34,21.22A2.57,2.57,0,0,1,311.21,179.74Z"/><path class="cls-3" d="M277,229.69H175.21a2.83,2.83,0,0,1-2.83-2.83h0a2.83,2.83,0,0,1,2.83-2.83H277a2.83,2.83,0,0,1,2.83,2.83h0A2.83,2.83,0,0,1,277,229.69Z"/><path class="cls-3" d="M277,239.55H175.21a2.83,2.83,0,0,1-2.83-2.83h0a2.83,2.83,0,0,1,2.83-2.83H277a2.83,2.83,0,0,1,2.83,2.83h0A2.83,2.83,0,0,1,277,239.55Z"/><g class="cls-4"><path class="cls-1" d="M290.4,229.7a20.16,20.16,0,1,1,20.16,20.16A20.18,20.18,0,0,1,290.4,229.7Zm4.44,0A15.72,15.72,0,1,0,310.56,214,15.74,15.74,0,0,0,294.84,229.7Z"/></g><path class="cls-1" d="M311.21,240.41l-.25,0a2.6,2.6,0,0,1-2-1.29,55.22,55.22,0,0,0-6.48-8.74,2.6,2.6,0,0,1,3.79-3.55,63.27,63.27,0,0,1,5.32,6.73c4.6-4.9,15.25-15.42,25.86-20a2.6,2.6,0,1,1,2.07,4.76c-12.7,5.51-26.2,21.07-26.34,21.23A2.59,2.59,0,0,1,311.21,240.41Z"/><g class="cls-4"><path class="cls-1" d="M277,289H175.21a2.83,2.83,0,0,1-2.83-2.83h0a2.83,2.83,0,0,1,2.83-2.83H277a2.83,2.83,0,0,1,2.83,2.83h0A2.83,2.83,0,0,1,277,289Z"/></g><g class="cls-4"><path class="cls-1" d="M277,298.9H175.21a2.83,2.83,0,0,1-2.83-2.83h0a2.83,2.83,0,0,1,2.83-2.83H277a2.83,2.83,0,0,1,2.83,2.83h0A2.83,2.83,0,0,1,277,298.9Z"/></g><g class="cls-4"><path class="cls-1" d="M290.4,288.93a20.16,20.16,0,1,1,20.16,20.16A20.18,20.18,0,0,1,290.4,288.93Zm4.44,0a15.72,15.72,0,1,0,15.72-15.72A15.74,15.74,0,0,0,294.84,288.93Z"/></g><path class="cls-1" d="M311.21,299.75H311a2.6,2.6,0,0,1-2-1.29,55.22,55.22,0,0,0-6.48-8.74,2.6,2.6,0,0,1,3.79-3.55,62.55,62.55,0,0,1,5.32,6.72c4.6-4.9,15.25-15.42,25.86-20a2.6,2.6,0,1,1,2.07,4.76c-12.7,5.5-26.2,21.06-26.34,21.22A2.56,2.56,0,0,1,311.21,299.75Z"/><path class="cls-5" d="M287.59,45.74a5.31,5.31,0,0,1-5.31,5.3H213a5.31,5.31,0,0,1-5.31-5.3Z"/><path class="cls-1" d="M279.13,24.61H260.89a15.89,15.89,0,1,0-26.55,0H216.1a4.53,4.53,0,0,0-4.54,4.53V42.47A4.53,4.53,0,0,0,216.1,47h63a4.53,4.53,0,0,0,4.53-4.53V29.14A4.53,4.53,0,0,0,279.13,24.61ZM247.61,9.09a6.8,6.8,0,1,1-6.79,6.79A6.8,6.8,0,0,1,247.61,9.09Z"/><path class="cls-6" d="M283.66,35.07v7.4A4.53,4.53,0,0,1,279.13,47h-63a4.53,4.53,0,0,1-4.54-4.53v-7.4Z"/><path class="cls-1" d="M380.49,355.71l-3.14,10.73-23-9.63c3.55-4.65,17.34-.25,17.62-.16h0l1.1-1,1-.86A29.45,29.45,0,0,1,380.49,355.71Z"/><path class="cls-1" d="M374.87,358.7a5.72,5.72,0,0,0-2.88-2.05l1.1-1A4.31,4.31,0,0,1,374.87,358.7Z"/><path class="cls-1" d="M389.82,264.44l-1.16,11.47s8,9.54,19.86,6.53a61.85,61.85,0,0,0,18.78-8.13l-2.55-13.49S402.22,258.81,389.82,264.44Z"/><path class="cls-1" d="M380.39,355.89c2.29-4.69,7.67-13.24,10-20.78a130.78,130.78,0,0,0,4.7-22.23c9.46-15.12,13.95-32.75,13.95-32.75-3.75-8.38-19.4-9.41-19.4-9.41l-7.68,42.22-7.87,41.89C376.75,355.66,378.14,356.32,380.39,355.89Z"/><path class="cls-1" d="M436,354.23c-.24-4.88-.66-14.4-1-18.48-.23-2.41-.27-20.65-4.25-24.38,0,0,1.08-31.94-5.91-50.55L405.9,266l13.62,50.69,10,39.24C432.06,356,433.59,355.85,436,354.23Z"/><path class="cls-1" d="M439.16,366.44H415.55c2.83-5.4,13.26-7.5,13.26-7.5l.38-1.74.28-1.3c2.25-1.26,6.49-1.67,6.49-1.67Z"/><path class="cls-1" d="M434.67,360.34c-2.19-1.79-5.86-1.4-5.86-1.4l.38-1.74C433.82,357.46,434.67,360.34,434.67,360.34Z"/><path class="cls-1" d="M424.75,260.82a35.5,35.5,0,0,1-16.23,5,61.71,61.71,0,0,1-10.88-.33c-2.51-.27-5.11-.65-7.81-1.08l-6.56-60.72,8-3.34h0L402,196.75l12.17,0Z"/><polygon class="cls-1" points="395.05 206.93 395.62 240.56 400.86 249.57 404.51 239.03 397.08 206.63 395.05 206.93"/><polygon class="cls-1" points="393.06 204.56 396.27 209.04 398.18 203.37 394.89 201.55 393.06 204.56"/><path class="cls-1" d="M402,196.75a12.23,12.23,0,0,1-9.76,5.18l-1.16-3.4-1.49-4.32a18.81,18.81,0,0,1,2.16-3.65c1.59-2.09,4-4.27,7.18-4.08Z"/><path class="cls-1" d="M397.88,188.15s-.95,7.56-6.79,10.38l-1.49-4.32a18.81,18.81,0,0,1,2.16-3.65Z"/><path class="cls-1" d="M377.64,169.06v22.55a5.12,5.12,0,0,0,5.52,5.12c5.73-.46,14.32-2.63,17.79-11.13C406.37,172.31,389.84,159.85,377.64,169.06Z"/><path class="cls-1" d="M377.64,178.14l-2.28,6.46a1.43,1.43,0,0,0,.88,1.84l1.4.49S379.68,185.12,377.64,178.14Z"/><path class="cls-1" d="M377.64,170.77a6.94,6.94,0,0,1-4.63-7.15c.65-10.54,20.35-4.2,27.89-.9,8.55,3.73,5.36,17.89,3.37,22a10.54,10.54,0,0,1-3.14,3.82c-1.4,1.08-3.72.13-4.45-1.49s-1.63-3.41.9-7.57c1.86-3.05-1.44-7.05-4.33-4.06s-4.14,2.53-3.43-1.18S383,169,377.64,170.77Z"/><path class="cls-1" d="M394.89,201.55l5.44,3s4.88-6,3.68-8.51-2.66-1.5-2.66-1.5S399,199.45,394.89,201.55Z"/><path class="cls-1" d="M391,198.14s-2.07,2.44-1.93,4.23,3.29,3.42,3.29,3.42l2.58-4.24a14.7,14.7,0,0,1-2.64.38Z"/><path class="cls-1" d="M334,213.21c1.24-.75,2.19-1.3,1.31-1.16-1.76.26-3.18-1.09-2.37-1.55a7.18,7.18,0,0,1,4.1-.91c2.18.06,5.68,4.92,5.68,4.92l-2.17,5.1s-1.09-.06-1.19-.05A41.71,41.71,0,0,1,334,213.21Z"/><path class="cls-1" d="M332.91,215.7c-1.37-1.79,0-3,1-3.69a2.27,2.27,0,0,1,2.06-.1c1.32.69,4.6,5.26,3.86,7.11C339,221.16,335.28,218.82,332.91,215.7Z"/><path class="cls-1" d="M386.23,218.47c-1.42,5-15,14.76-15,14.76-12.89.62-25-8.69-29.14-12.26-1-.84-1.51-1.36-1.51-1.36l2.17-5.1,1.38.68a92.44,92.44,0,0,0,12.41,5.17c6.71,1.89,9.73,4,9.73,4l.8-1,16.22-19.68C385.63,207.57,386.23,218.47,386.23,218.47Z"/><path class="cls-1" d="M367.56,227.83a10.94,10.94,0,0,0-1.31-3.45l.8-1A6.41,6.41,0,0,1,367.56,227.83Z"/><path class="cls-1" d="M344.11,215.19l-2,5.78c-1-.84-1.51-1.36-1.51-1.36l2.17-5.1Z"/><rect class="cls-1" x="372.72" y="154.3" width="17.3" height="138.78" transform="translate(28.33 489.85) rotate(-67.41)"/><rect class="cls-6" x="382.75" y="149.59" width="1.15" height="138.78" transform="translate(33.88 488.76) rotate(-67.41)"/><rect class="cls-6" x="380.79" y="154.3" width="1.15" height="138.78" transform="translate(28.33 489.85) rotate(-67.41)"/><rect class="cls-6" x="378.84" y="159" width="1.15" height="138.78" transform="translate(22.79 490.94) rotate(-67.41)"/><rect class="cls-1" x="433.43" y="245.32" width="17.3" height="7.26" transform="translate(42.39 561.46) rotate(-67.41)"/><rect class="cls-1" x="435.11" y="247.83" width="17.3" height="3.63" transform="translate(42.78 563.43) rotate(-67.41)"/><path class="cls-1" d="M448.76,242.36l1.9.79a8.65,8.65,0,0,1,4.66,11.31h0a8.63,8.63,0,0,1-11.3,4.66l-1.91-.79Z"/><polygon class="cls-1" points="313.98 205.01 320.63 189.04 307.93 189.32 305.29 189.38 297.83 189.54 303.34 194.82 305.49 196.88 313.98 205.01"/><path class="cls-1" d="M303.34,194.82a9,9,0,0,0,1.43-2.39,6.17,6.17,0,0,0,.52-3.05l-7.46.16Z"/><path class="cls-1" d="M414.18,196.72S433,209,437.58,221.6c0,0-3.18,4.82-7.69,5.48,0,0-11.73-10-14.25-16.68C415.64,210.4,411.79,203.28,414.18,196.72Z"/><path class="cls-1" d="M437.58,221.6s3.18,6.3-1.13,18.7C432.59,251.44,423.83,255,423.83,255l-2.41-5.4A27.24,27.24,0,0,0,429.17,235a78.43,78.43,0,0,0,.72-7.92S432.68,222.49,437.58,221.6Z"/><path class="cls-1" d="M421.42,245.33s-3.36-1.75-3.8-.52a3,3,0,0,0,1.72,2.84s-2.09,1.43-1.32,3.4,6.26,5.94,8.05,5.37,4.16-5.17,2.48-7.3S423.39,245.05,421.42,245.33Z"/><path class="cls-1" d="M227.05,171.33s2.08-15.8-17.74-11.89c-12.13,2.39-11.36,21.06-19.74,34.39-9.92,15.76,3,21.8,9.44,18.7s9.42-18.49,8.43-29S221.6,164.63,227.05,171.33Z"/><path class="cls-1" d="M215.64,266a35.31,35.31,0,0,1-17.06,2.67,46.82,46.82,0,0,1-16.05-4.24l2.4-11.46a83.39,83.39,0,0,0,13.26,1.78c10.83.54,16.95-1.53,16.95-1.53Z"/><path class="cls-1" d="M250.92,236.63a29.56,29.56,0,0,1-3.18.17c-5.19-.17-19.48-.83-27.05-3.11l-.23-.06a10.44,10.44,0,0,1-3.93-1.94h0a38.12,38.12,0,0,1,5.11-5.29l.3-.23a3.57,3.57,0,0,1,2.4-1l1,.3c2.32.72,8.32,2.53,13,3.54,3.85.84,7.05,1.32,9,1.57a11.45,11.45,0,0,0,1.93.13Z"/><path class="cls-1" d="M225.83,230.64l-4.56.51-.78.09-4,.44h0c-.17-.41-7.45-17.67-3.14-28.89a9.8,9.8,0,0,1,.85-.63c2.12-.2,2.29-.68,4-.94,0,0,2.41,1.95,3.64,6.61l.18.73a171.75,171.75,0,0,1,3.25,16.94C225.51,227.1,225.69,228.79,225.83,230.64Z"/><path class="cls-1" d="M221.93,226.15a48.85,48.85,0,0,1-.66,5c-.16.9-.36,1.75-.58,2.54l-.23-.06a10.44,10.44,0,0,1-3.93-1.94h0c-.17-.41-7.45-17.67-3.14-28.89a9.8,9.8,0,0,1,.85-.63c2.12-.2,2.29-.68,4-.94,0,0,2.41,1.95,3.64,6.61A130.16,130.16,0,0,1,221.93,226.15Z"/><path class="cls-1" d="M256.67,227.37c-1.24.41-2.78.58-2.17,0,1.2-1,1.1-2.8.32-2.51a6.42,6.42,0,0,0-3,2.27c-1.23,1.52-2.59,3.55-2.59,3.55l1.7,5.9s4.36-.43,6.35-2.25A34.11,34.11,0,0,0,256.67,227.37Z"/><path class="cls-1" d="M253.46,231.31a.52.52,0,0,1-.29-.09.51.51,0,0,1-.14-.71l19.7-29.07a.52.52,0,0,1,.72-.14.53.53,0,0,1,.14.72l-19.71,29.07A.52.52,0,0,1,253.46,231.31Z"/><path class="cls-1" d="M257.83,228.12a1.53,1.53,0,0,0-2.3-1,1.7,1.7,0,0,0-.81.94c-.39,1.28-.25,5.92,1.44,6.5C258.12,235.21,258.54,231.56,257.83,228.12Z"/><path class="cls-1" d="M185.49,351.93c.06,1.37.61,11.9.89,16.07h1.86v-8.67a28,28,0,0,0,2.82,5.33l.31.43c1.13,1.5,2.51,2.78,4,3a43,43,0,0,0,9.17.1.54.54,0,0,0,.36-.88c-1-1.16-3-3.45-5-5.75h0l-.38-.45-1.12-1.33c-1.45-1.74-2.69-3.3-3.24-4.14a34.73,34.73,0,0,0-3.07-3.93h0c-1.6-1.75-3.3-3.21-4.26-3a.71.71,0,0,0-.3.15,4.45,4.45,0,0,0-.9.6A3,3,0,0,0,185.49,351.93Z"/><path class="cls-1" d="M186.66,349.47a11.51,11.51,0,0,1,1.27,1.64c0,.12.65,1.15.71,1.27,1.58,3.72,4.63,8.25,7.33,9.56,3.41,1.65,3.95-.28,4-.36h0l-.38-.45-1.12-1.33c-1.45-1.74-2.69-3.3-3.24-4.14a34.73,34.73,0,0,0-3.07-3.93h0c-1.6-1.75-3.3-3.21-4.26-3a.71.71,0,0,0-.3.15A4.45,4.45,0,0,0,186.66,349.47Z"/><path class="cls-1" d="M201.19,255.35l-1.34,13.46L196.2,298l-.12,1.5-4.22,52a9.19,9.19,0,0,1-5.2-2s-7.15-22.56-2.48-29.18c0,0-2.47-12.74-3.47-23.28-.05-.59-.1-1.16-.14-1.73-.29-3.68.5-33.19,4.36-42.29a83.39,83.39,0,0,0,13.26,1.78A20.82,20.82,0,0,0,201.19,255.35Z"/><path class="cls-1" d="M212.26,351.93c.07,1.37.62,11.9.9,16.07H215v-8.67a27.35,27.35,0,0,0,2.82,5.33l.31.43c1.13,1.5,2.5,2.78,4,3a42.94,42.94,0,0,0,9.16.1.53.53,0,0,0,.36-.88c-1-1.16-3-3.45-5-5.75h0l-.37-.45-1.12-1.33c-1.45-1.74-2.7-3.3-3.24-4.14a34.73,34.73,0,0,0-3.07-3.93h0c-1.6-1.75-3.31-3.21-4.26-3a.75.75,0,0,0-.31.15,4.57,4.57,0,0,0-.89.6A3,3,0,0,0,212.26,351.93Z"/><path class="cls-1" d="M213.44,349.47a12.29,12.29,0,0,1,1.27,1.64c0,.12.65,1.15.7,1.27,1.59,3.72,4.63,8.25,7.34,9.56,3.41,1.65,3.95-.28,4-.36h0l-.38-.45-1.12-1.33c-1.45-1.74-2.7-3.3-3.24-4.14a34.73,34.73,0,0,0-3.07-3.93h0c-1.6-1.75-3.31-3.21-4.26-3a.75.75,0,0,0-.31.15A4.57,4.57,0,0,0,213.44,349.47Z"/><path class="cls-1" d="M200.43,263c-1.16,34.57,9.09,58.8,9.09,58.8C204.86,328.38,213,350,213,350c2,1.2,3.89,1.95,5.67,1.48L217.11,301l-1.65-39.18Z"/><path class="cls-1" d="M184.93,253c10.2,3.48,22.61,4.35,30.21.25l4.08-29.1a30.25,30.25,0,0,0,.59-10.93l-1.56-12-5.68-1.93-9.39-3.17-2.37.65-10.1,2.79-1.89,37.34Z"/><path class="cls-1" d="M223.45,161.3s6.63,4.66,6.6,10.34c0,8.24-6.6,15.54-6.6,15.54Z"/><path class="cls-1" d="M203.17,196.46a10.34,10.34,0,0,0,8.51,5.34l1-3.51,1.3-4.45a20.46,20.46,0,0,0-1.88-3.76c-1.39-2.15-3.51-4.4-6.27-4.2Z"/><path class="cls-1" d="M206.77,187.6s.84,7.79,5.93,10.69l1.3-4.45a20.46,20.46,0,0,0-1.88-3.76Z"/><path class="cls-1" d="M203,185a16.56,16.56,0,0,0,4.06,5.93,17.4,17.4,0,0,0,3.1,2.3,25.57,25.57,0,0,0,9.67,3.09,6.39,6.39,0,0,0,7.18-6.33v-22l-.69-.49C213.88,158.91,197.56,171.54,203,185Z"/><path class="cls-1" d="M226.31,177.29l2.81,8a.09.09,0,0,1-.05.11l-2.76,1S224.2,184.48,226.31,177.29Z"/><path class="cls-1" d="M200.86,182.23c1,2.45-5.5,9.17,2.32,13.89,6.23-3.38,8.1-12.69,5.93-13.12-3.74-.75-5.07-9.84-.09-9.4,4.23.37,2.7,5.05,4.81,5a1.24,1.24,0,0,0,1-.57c1.79-2.45,3.1-4.15,7.2-5.08a9.64,9.64,0,0,0,5-2.36l.5-2.83a12.64,12.64,0,0,1-1-.93C216.55,155.71,195.37,168.8,200.86,182.23Z"/><path class="cls-1" d="M186.47,240.61c1.66,3.76,3.19,6.46,3.19,6.46l-3.86,3.47a37,37,0,0,1-4.84-5.36c-7.49-9.91-13.26-24.54-13.26-24.54l23-21.07,1.87,14.18a94.26,94.26,0,0,1-13.87,10.71,62.91,62.91,0,0,1,5.82,11.31C185.14,237.48,185.82,239.13,186.47,240.61Z"/><path class="cls-1" d="M189.66,247.07l-3.86,3.47a37.53,37.53,0,0,1-4.84-5.36,28.19,28.19,0,0,1,5.51-4.57C188.13,244.37,189.66,247.07,189.66,247.07Z"/><path class="cls-1" d="M186.07,241.76s.78-3,2.13-2.28l-.71,2.91s2.68.54,2.68,2.57-2.2,8.39-4,8.5-4.9-3.43-4.14-5.93S184.21,242.19,186.07,241.76Z"/><path class="cls-1" d="M81.73,233.25h18.75a16.06,16.06,0,0,1,16.06,16.06v55.32a0,0,0,0,1,0,0H65.67a0,0,0,0,1,0,0V249.32A16.06,16.06,0,0,1,81.73,233.25Z"/><path class="cls-1" d="M119.43,312.36h-57a3.51,3.51,0,0,1-3.5-3.51v-.71a3.51,3.51,0,0,1,3.5-3.51h57a3.86,3.86,0,0,1,3.86,3.87h0A3.86,3.86,0,0,1,119.43,312.36Z"/><rect class="cls-1" x="66.14" y="309.9" width="3.88" height="58.1"/><rect class="cls-1" x="66.14" y="312.36" width="3.88" height="8.09"/><rect class="cls-1" x="113.02" y="309.9" width="3.88" height="58.1"/><rect class="cls-1" x="113.02" y="312.36" width="3.88" height="8.09"/><path class="cls-1" d="M89.86,300.44a15.55,15.55,0,0,1,.37-4.29c.92-5,3.86-15.25,12.53-14,11.44,1.58,7.85,23.33,7.85,23.33l-6.73,53.45H95.63S92.65,327.82,89.86,300.44Z"/><path class="cls-1" d="M55.49,282s10.71,15.92,22.57,22.14c12.68,6.64,18.37-5.7,18.37-5.7S68.2,278.43,55.49,282Z"/><path class="cls-1" d="M107.17,276.51s.74,10.12-2.31,13-21.64,3-27.88,1.11S71.84,276,71.84,276Z"/><path class="cls-1" d="M107.33,287.36l2-58.65a87.75,87.75,0,0,0-11.66-2.08l-1.26-.13a49.63,49.63,0,0,0-12.54.23l-.61.1L70.38,229l1.36,58.33Z"/><path class="cls-1" d="M83,287.36H95.2c0-13.34.35-35.7,1.23-60.86a49.63,49.63,0,0,0-12.54.23l-.61.1C83.41,235.15,83.84,266.51,83,287.36Z"/><polygon class="cls-1" points="89.11 234.48 85.01 268.14 89.71 275.72 93.88 267.58 90.31 234.53 89.11 234.48"/><path class="cls-1" d="M85,231.58l3.44,3.7a1.84,1.84,0,0,0,2.73,0l3.22-3.66-4.92-3.86Z"/><path class="cls-1" d="M94.73,217.55v8.79l-.48.2a11.37,11.37,0,0,1-9.26-.2v-8.79Z"/><path class="cls-1" d="M94.73,219.68v6.66l-.48.2A22,22,0,0,1,85,222.85v-3.17Z"/><path class="cls-1" d="M78.94,203.19s-1.07-2.52-3.22-3S73.65,205,75,208.92s4.66,2.4,4.66,2.4Z"/><path class="cls-1" d="M100.74,203.19s1.08-2.52,3.22-3,2.08,4.85.75,8.75-4.66,2.4-4.66,2.4Z"/><path class="cls-1" d="M89.82,221.47h0c-6.5,0-11.76-7-11.76-13.12v-13.9h23.52v13.9C101.58,214.5,96.32,221.47,89.82,221.47Z"/><path class="cls-1" d="M102.32,203.19l-1.61,0s.45,6.44-2.39,11.15c-1.28-1.09-4.5-3.36-8.51-2.7-4-.63-7.2,1.66-8.47,2.75C78.67,209.61,79.08,203,79.08,203l-1.61.24s-3.62,20.5,12.38,20.6S102.32,203.19,102.32,203.19ZM91.68,219c-.31-.6-1-1.63-1.8-1.63s-1.7,1.12-2.08,1.69A8.4,8.4,0,0,1,82.42,216c4,1.76,7.4-1.51,7.4-1.51s3.4,3.16,7.29,1.53A9.37,9.37,0,0,1,91.68,219Z"/><path class="cls-1" d="M77.7,193.11a5.28,5.28,0,0,1-.51-4c1.52-5.24,10.65-5.67,17.54-4.69,8,1.13,8.94-4.16,8.94-4.16,4.21,5.92-.82,13.83-.82,13.83s2.51,4.63-1.27,10.49c0,0-2.21-3-1.53-9.45,0,0-11.25,3.21-20.42-.66,0,0,1.26,7.46-1.57,10.11,0,0-3.17-6.24-.27-11.28Z"/><path class="cls-1" d="M89.48,227.72,83.37,233l-.68-6a2.26,2.26,0,0,1,1-2.15L85,224A6,6,0,0,0,89.48,227.72Z"/><path class="cls-1" d="M89.48,227.72,96.21,233l.2-6.85a1.48,1.48,0,0,0-.5-1.15l-1.16-1A8.74,8.74,0,0,1,89.48,227.72Z"/><path class="cls-1" d="M110.34,368H95.24a22.06,22.06,0,0,1,0-5.74l.42-3.37h8.25v0l.49,2.13C109.88,364.3,110.34,368,110.34,368Z"/><path class="cls-1" d="M104.38,361.06s-5.47,0-7.3,3.47c0,0,.54-4.26,6.81-5.6Z"/><path class="cls-1" d="M70.38,229s-9.24,13.12-12.76,24.21c0,0,4.81,5.71,8.05,6.93l6.1-12.84S74.43,235.5,70.38,229Z"/><path class="cls-1" d="M65.67,260.16s4.35,7.32,12.58,20.07l-4.58,3.29L58.55,266.61A7.83,7.83,0,0,1,55.94,259l1.68-5.74S63.73,255.52,65.67,260.16Z"/><path class="cls-1" d="M109.35,228.71s9.23,13.12,12.75,24.21c0,0-4.81,5.71-8,6.92L108,247S105.29,235.19,109.35,228.71Z"/><path class="cls-1" d="M114.05,259.84s-4.35,7.33-12.57,20.08l4.57,3.29,15.12-16.91a7.82,7.82,0,0,0,2.61-7.64l-1.68-5.74S116,255.21,114.05,259.84Z"/><path class="cls-1" d="M111.3,278.83H67.59l-4-23.62a3.35,3.35,0,0,1,3.3-3.91H112a3.35,3.35,0,0,1,3.3,3.91Z"/><path class="cls-1" d="M67.59,278.83h43.75a0,0,0,0,1,0,0v1.89A3.24,3.24,0,0,1,108.1,284H70.83a3.24,3.24,0,0,1-3.24-3.24v-1.89A0,0,0,0,1,67.59,278.83Z"/><circle class="cls-6" cx="89.89" cy="266.04" r="3.8"/><path class="cls-1" d="M132.62,305.92c-2.3,2.27-5.21,2.27-8,.56-1.18-.72-3-1.69-4.6-2.57-2.24-1.2-4.26-2.22-4.26-2.22l2.59-5.93s1.59.05,3.85,0h0c1.88,0,4.22-.16,6.48-.42,5-.59,7.27-1.81,7.88.11S134.92,303.65,132.62,305.92Z"/><path class="cls-1" d="M122.19,295.75a40.81,40.81,0,0,1-2.18,8.16c-2.24-1.2-4.26-2.22-4.26-2.22l2.59-5.93S119.93,295.81,122.19,295.75Z"/><path class="cls-1" d="M70.81,269.85s-8.58-5.17-15.84-.13.42,14.54,8.35,17.76,54.75,16.18,54.75,16.18a41.19,41.19,0,0,0,2.21-8s-13.93-7.9-21.76-12.95C80.68,271.2,70.81,269.85,70.81,269.85Z"/><path class="cls-1" d="M117,96.11l-.88-7.43-6.49.76a16.81,16.81,0,0,0-3.24-5.88l4.34-5.5-5.87-4.64-4.48,5.67A16.75,16.75,0,0,0,96,77.83L95.18,71l-7.43.88.76,6.49a16.81,16.81,0,0,0-5.88,3.24l-4.81-3.8-4.64,5.88,5,3.93a16.83,16.83,0,0,0-1.41,5.65l-6.49.76.87,7.43,6.79-.8A16.77,16.77,0,0,0,81.33,106L77,111.57l5.88,4.64,4.73-6a16.88,16.88,0,0,0,4.81,1.06l.76,6.49,7.43-.87-.79-6.79a16.37,16.37,0,0,0,4-2.25l5.68,4.48,4.63-5.87-5.5-4.35a16.83,16.83,0,0,0,1.64-5.19Zm-22.63,5.17a6.86,6.86,0,1,1,6-7.61A6.86,6.86,0,0,1,94.34,101.28Z"/><path class="cls-1" d="M81.62,137.56l-.5-4.21-3.67.43a9.39,9.39,0,0,0-1.84-3.32l2.46-3.12-3.32-2.62-2.54,3.21a9.49,9.49,0,0,0-2.47-.72l-.45-3.84-4.21.5.44,3.67a9.44,9.44,0,0,0-3.33,1.84l-2.72-2.15-2.63,3.32,2.82,2.23a9.54,9.54,0,0,0-.8,3.19l-3.67.43.49,4.21,3.84-.45a9.41,9.41,0,0,0,1.93,3L59,146.31l3.32,2.62,2.69-3.4a9.19,9.19,0,0,0,2.71.6l.44,3.68,4.2-.5-.45-3.84a9.33,9.33,0,0,0,2.24-1.27l3.21,2.53L80,143.41,76.85,141a9.53,9.53,0,0,0,.93-2.94Zm-12.8,2.93a3.88,3.88,0,1,1,3.4-4.31A3.89,3.89,0,0,1,68.82,140.49Z"/><path class="cls-1" d="M451.38,120.76a16.68,16.68,0,0,0-2.91-4.61l4.21-5.61-6-4.49-4.35,5.78a16.71,16.71,0,0,0-4.4-1.17l-1-6.76-7.41,1,.92,6.48a16.72,16.72,0,0,0-4.37,2.24L420,109.08l-4.49,6,5.64,4.24a16.76,16.76,0,0,0-1.94,6l-6.76,1,1.05,7.41,6.47-.92a16.57,16.57,0,0,0,2.81,5.1L419,142.94l6,4.5,3.68-4.9a16.72,16.72,0,0,0,6.51,1.63l.92,6.48,7.41-1.06-1-6.76a16.83,16.83,0,0,0,3.9-2.34l5.78,4.34,4.5-6-5.61-4.22a16.73,16.73,0,0,0,1.64-6.51l6.47-.92-1.05-7.41Zm-8.67,5.64a6.86,6.86,0,1,1-7.76-5.83A6.86,6.86,0,0,1,442.71,126.4Z"/><path class="cls-1" d="M409.56,89.29a9.7,9.7,0,0,0-1.65-2.61l2.38-3.17L406.91,81l-2.46,3.27a9.64,9.64,0,0,0-2.49-.66l-.55-3.83-4.19.6.52,3.66a9.61,9.61,0,0,0-2.47,1.27l-3.46-2.6-2.55,3.39,3.19,2.4a9.29,9.29,0,0,0-1.09,3.41l-3.83.54.59,4.19,3.67-.52A9.25,9.25,0,0,0,393.38,99l-2.16,2.87,3.38,2.54,2.09-2.77a9.56,9.56,0,0,0,3.68.92l.52,3.67,4.2-.6-.55-3.83a9.25,9.25,0,0,0,2.21-1.32l3.27,2.45,2.55-3.38-3.18-2.39a9.39,9.39,0,0,0,.93-3.68l3.66-.52-.59-4.19Zm-4.91,3.19a3.88,3.88,0,1,1-4.39-3.29A3.89,3.89,0,0,1,404.65,92.48Z"/></g></g></svg>