<svg xmlns="http://www.w3.org/2000/svg" xmlns:xlink="http://www.w3.org/1999/xlink" viewBox="0 0 435.81 417.29"><defs><style>.cls-1{isolation:isolate;}.cls-2{fill:#eeecfe;}.cls-3{mix-blend-mode:soft-light;}.cls-4{fill:#7e6cc0;}.cls-5{fill:#f3cf58;}.cls-6{fill:url(#linear-gradient);}.cls-7{fill:url(#linear-gradient-2);}.cls-8{fill:url(#linear-gradient-3);}.cls-9{fill:#3e245c;}.cls-10{fill:#fff;}.cls-11{fill:#ccc;}.cls-12,.cls-13{fill:none;}.cls-13{stroke:#7e6cc0;stroke-linecap:round;stroke-linejoin:round;stroke-width:0;}.cls-14{fill:#dc8987;}.cls-15{fill:url(#linear-gradient-4);}.cls-16{fill:url(#linear-gradient-5);}.cls-17{fill:#e89fab;}.cls-18{fill:url(#linear-gradient-6);}.cls-19{fill:#e16f5a;}.cls-20{fill:#999;}.cls-21{fill:url(#linear-gradient-7);}.cls-22{fill:url(#linear-gradient-8);}.cls-23{fill:url(#linear-gradient-9);}.cls-24{fill:url(#linear-gradient-10);}.cls-25{fill:url(#linear-gradient-11);}.cls-26{fill:url(#linear-gradient-12);}.cls-27{fill:url(#linear-gradient-13);}.cls-28{fill:url(#linear-gradient-14);}</style><linearGradient id="linear-gradient" x1="104.81" y1="19.08" x2="97.01" y2="-12.13" gradientUnits="userSpaceOnUse"><stop offset="0" stop-color="#e16f5a"/><stop offset="1" stop-color="#f3cf58"/></linearGradient><linearGradient id="linear-gradient-2" x1="337.93" y1="267.1" x2="450.86" y2="267.1" xlink:href="#linear-gradient"/><linearGradient id="linear-gradient-3" x1="391.08" y1="-9.87" x2="163.2" y2="268.31" gradientUnits="userSpaceOnUse"><stop offset="0.02" stop-color="#3e345c"/><stop offset="0.19" stop-color="#413761"/><stop offset="0.4" stop-color="#4b4071"/><stop offset="0.64" stop-color="#5c4e8a"/><stop offset="0.89" stop-color="#7262ae"/><stop offset="1" stop-color="#7e6cc0"/></linearGradient><linearGradient id="linear-gradient-4" x1="348.2" y1="109.04" x2="354.7" y2="143.22" gradientTransform="translate(32.71 -69.6) rotate(11.88)" gradientUnits="userSpaceOnUse"><stop offset="0" stop-color="#eeecfe"/><stop offset="0.48" stop-color="#f3cf58"/></linearGradient><linearGradient id="linear-gradient-5" x1="425.41" y1="93.81" x2="426.91" y2="121.31" gradientUnits="userSpaceOnUse"><stop offset="0" stop-color="#f3cf58"/><stop offset="1" stop-color="#e16f5a"/></linearGradient><linearGradient id="linear-gradient-6" x1="48.66" y1="233.65" x2="37.66" y2="310.63" gradientUnits="userSpaceOnUse"><stop offset="0" stop-color="#e16f5a"/><stop offset="0.21" stop-color="#e2735a"/><stop offset="0.41" stop-color="#e47f5a"/><stop offset="0.61" stop-color="#e89259"/><stop offset="0.81" stop-color="#edad59"/><stop offset="1" stop-color="#f3cf58"/></linearGradient><linearGradient id="linear-gradient-7" x1="84.34" y1="421.67" x2="127.23" y2="401.63" gradientUnits="userSpaceOnUse"><stop offset="0" stop-color="#e16f5a"/><stop offset="0.38" stop-color="#e1715a"/><stop offset="0.56" stop-color="#e3795a"/><stop offset="0.69" stop-color="#e5855a"/><stop offset="0.8" stop-color="#e99859"/><stop offset="0.9" stop-color="#edaf59"/><stop offset="0.99" stop-color="#f2cc58"/><stop offset="1" stop-color="#f3cf58"/></linearGradient><linearGradient id="linear-gradient-8" x1="19.66" y1="421.89" x2="62.56" y2="401.85" xlink:href="#linear-gradient-7"/><linearGradient id="linear-gradient-9" x1="52.43" y1="337" x2="80.6" y2="357.41" gradientUnits="userSpaceOnUse"><stop offset="0.02" stop-color="#3e345c"/><stop offset="0.19" stop-color="#423762"/><stop offset="0.41" stop-color="#4c4172"/><stop offset="0.65" stop-color="#5e508e"/><stop offset="0.92" stop-color="#7665b4"/><stop offset="1" stop-color="#7e6cc0"/></linearGradient><linearGradient id="linear-gradient-10" x1="88.03" y1="343.15" x2="118.62" y2="345.99" xlink:href="#linear-gradient-3"/><linearGradient id="linear-gradient-11" x1="65.16" y1="261.36" x2="143.21" y2="207.09" xlink:href="#linear-gradient"/><linearGradient id="linear-gradient-12" x1="54.85" y1="248.75" x2="132.9" y2="194.49" gradientTransform="matrix(1.02, -0.11, 0.14, 1.04, -30.84, 4.91)" xlink:href="#linear-gradient"/><linearGradient id="linear-gradient-13" x1="74.48" y1="191.23" x2="109.98" y2="165.73" gradientUnits="userSpaceOnUse"><stop offset="0.02" stop-color="#3e345c"/><stop offset="0.25" stop-color="#4e4274"/><stop offset="1" stop-color="#7e6cc0"/></linearGradient><linearGradient id="linear-gradient-14" x1="61.59" y1="188.6" x2="80.88" y2="188.6" xlink:href="#linear-gradient-5"/></defs><g class="cls-1"><g id="Layer_2" data-name="Layer 2"><g id="BACKGROUND"><path class="cls-2" d="M395.89,164.86a98.48,98.48,0,0,1-3.14,19A102.85,102.85,0,0,1,377.89,216a98.79,98.79,0,0,1-14.14,16.35c-1.7,1.58-3.46,3.07-5.27,4.49a96.15,96.15,0,0,1-24.2,13.6A134.39,134.39,0,0,1,311.36,257c-1.1.22-2.23.41-3.37.58-9.31,1.38-19.82,1.29-29.75,2.57-8.35,1.07-16.29,3.09-22.78,7.76-.8.58-1.57,1.19-2.3,1.83-8.74,7.64-12.48,19.45-15.4,31.07-1.31,5.21-2.45,10.38-3.8,15.12a196.92,196.92,0,0,1-7.44,22c-4,9.62-9.15,18.68-16.37,26.42-.3.32-.6.64-.91.95a76.72,76.72,0,0,1-22,15.59,111.65,111.65,0,0,1-26.71,8.64c-1.25.25-2.51.48-3.77.69a77.79,77.79,0,0,1-25.8-.05c-11.47-1.87-22.6-5.92-34-10.67l-2.59-1.09-.47-.2A260.13,260.13,0,0,1,53.1,356.62c-17-11.28-32.24-25.17-42.44-42.45C-.2,295.77-2.72,275.1,2.92,256.9a63.11,63.11,0,0,1,16.43-26.77,68.59,68.59,0,0,1,12.27-9.5c3.55-2.17,7.2-4.21,10.85-6.25,7.88-4.44,15.75-8.9,22.48-14.74a58.66,58.66,0,0,0,4.56-4.37,65.36,65.36,0,0,0,13.24-21.94c4.31-11.41,6.27-24,7.32-36.22q.32-3.75.57-7.51c1.15-16.43,1.81-33.06,6.56-48.66.59-2,1.25-3.89,2-5.81a86,86,0,0,1,5.37-11.45,97.55,97.55,0,0,1,7.88-11.89,122.06,122.06,0,0,1,14.43-15.64q3-2.73,6.06-5.33a154.73,154.73,0,0,1,22-15.64A115.63,115.63,0,0,1,180.42,4.1,97.91,97.91,0,0,1,198.84.53q4.71-.45,9.42-.51a137.41,137.41,0,0,1,32.87,3.63,196.16,196.16,0,0,1,36.09,12.29C284.68,19.26,292,23,299,26.85a218.53,218.53,0,0,1,21.77,13.88,237.11,237.11,0,0,1,42.13,39.08C382.85,103.51,398,133.1,395.89,164.86Z"/><g class="cls-3"><path class="cls-2" d="M93.85,378.17A260.13,260.13,0,0,1,53.1,356.62L2.92,256.9a63.11,63.11,0,0,1,16.43-26.77Z"/><path class="cls-2" d="M160.49,389.49c-1.25.25-2.51.48-3.77.69a77.79,77.79,0,0,1-25.8-.05L42.47,214.38c7.88-4.44,15.75-8.9,22.48-14.74Z"/><path class="cls-2" d="M209.24,365.26a76.72,76.72,0,0,1-22,15.59L82.75,173.33c4.31-11.41,6.27-24,7.32-36.22q.32-3.75.57-7.51Z"/><path class="cls-2" d="M237.76,300.81c-1.31,5.21-2.45,10.38-3.8,15.12a196.92,196.92,0,0,1-7.44,22L97.2,80.94c.59-2,1.25-3.89,2-5.81a86,86,0,0,1,5.37-11.45,97.55,97.55,0,0,1,7.88-11.89Z"/><path class="cls-2" d="M278.24,260.15c-8.35,1.07-16.29,3.09-22.78,7.76-.8.58-1.57,1.19-2.3,1.83L132.92,30.82a154.73,154.73,0,0,1,22-15.64Z"/><path class="cls-2" d="M334.28,250.41A134.39,134.39,0,0,1,311.36,257c-1.1.22-2.23.41-3.37.58L180.42,4.1A97.91,97.91,0,0,1,198.84.53q4.71-.45,9.42-.51Z"/><path class="cls-2" d="M377.89,216a98.79,98.79,0,0,1-14.14,16.35c-1.7,1.58-3.46,3.07-5.27,4.49L241.13,3.65a196.16,196.16,0,0,1,36.09,12.29Z"/><path class="cls-2" d="M395.89,164.86a98.48,98.48,0,0,1-3.14,19l-72-143.1a237.11,237.11,0,0,1,42.13,39.08C382.85,103.51,398,133.1,395.89,164.86Z"/></g></g><g id="OBJECTS"><path class="cls-4" d="M146.45,96.53a31.91,31.91,0,0,0-1.8-5.58L150,86.34,136.48,70.62,131,75.34a33.24,33.24,0,0,0-13.53-4.41l-1.61-7.12L95.62,68.37l1.61,7.12a32.91,32.91,0,0,0-9.32,8.4L81,81.61,74.51,101.3l6.71,2.22a33.59,33.59,0,0,0,.81,7.54,35,35,0,0,0,1.57,5.06l-5.26,4.52,13.53,15.72L97,132a32.94,32.94,0,0,0,14,4.71l1.47,6.52,20.23-4.56-1.47-6.52a32.87,32.87,0,0,0,9.66-8.85l6.42,2.12,6.51-19.69-6.58-2.17A32.88,32.88,0,0,0,146.45,96.53Zm-27.32,28.93a22.52,22.52,0,1,1,17-26.92A22.52,22.52,0,0,1,119.13,125.46Z"/><path class="cls-4" d="M363.06,221.45a25.52,25.52,0,0,0-.27-4.56l4.92-2.43L360.55,200l-5.05,2.49a25.77,25.77,0,0,0-9.35-5.93l.17-5.68-16.13-.46L330,196.1a25.8,25.8,0,0,0-8.64,4.53l-4.75-3-8.7,13.58,4.63,3a26,26,0,0,0-.85,5.83,26.57,26.57,0,0,0,.21,4.11l-4.84,2.4,7.16,14.45L319,238.6a25.79,25.79,0,0,0,9.66,6.25l-.15,5.2,16.12.46.15-5.19a25.64,25.64,0,0,0,9-4.81l4.43,2.84,8.7-13.58-4.53-2.91A25.37,25.37,0,0,0,363.06,221.45ZM336.89,238a17.52,17.52,0,1,1,18-17A17.52,17.52,0,0,1,336.89,238Z"/><path class="cls-5" d="M338.57,304a33.12,33.12,0,0,0,1.75-5.59l7-.67-2-20.64-7.21.68a33.18,33.18,0,0,0-8.49-11.43l2.8-6.74-19.14-8-2.81,6.75a32.85,32.85,0,0,0-12.46,1.46l-4.3-5.84-16.7,12.31,4.2,5.7a33.18,33.18,0,0,0-3.7,6.61,33.66,33.66,0,0,0-1.64,5l-6.91.65,2,20.65,6.74-.64a32.93,32.93,0,0,0,8.72,12l-2.57,6.17,19.15,8,2.57-6.17a33.07,33.07,0,0,0,13-1.64l4,5.44,16.69-12.31-4.11-5.57A33,33,0,0,0,338.57,304Zm-39,7.82A22.52,22.52,0,1,1,329,299.63,22.52,22.52,0,0,1,299.54,311.77Z"/><path class="cls-5" d="M96,51.06a13.5,13.5,0,0,0-.74-2.28l2.19-1.87L92,40.49l-2.24,1.93a13.47,13.47,0,0,0-5.52-1.8l-.65-2.91-8.26,1.87.66,2.9a13.55,13.55,0,0,0-3.8,3.42L69.33,45l-2.66,8,2.74.91A13.48,13.48,0,0,0,69.74,57a14.08,14.08,0,0,0,.64,2.06L68.24,60.9l5.51,6.41,2.1-1.8a13.45,13.45,0,0,0,5.72,1.92l.6,2.66,8.25-1.86-.6-2.66A13.48,13.48,0,0,0,93.76,62l2.62.87,2.65-8-2.68-.89A14,14,0,0,0,96,51.06ZM84.87,62.86a9.18,9.18,0,1,1,6.94-11A9.18,9.18,0,0,1,84.87,62.86Z"/><path class="cls-6" d="M119.4,38.67a9.51,9.51,0,0,0-.51-1.59l1.53-1.31-3.86-4.48L115,32.63a9.61,9.61,0,0,0-3.86-1.26l-.46-2-5.77,1.31.46,2a9.19,9.19,0,0,0-2.65,2.39l-2-.65L98.9,40l1.91.64a9.87,9.87,0,0,0,.23,2.14,9.65,9.65,0,0,0,.45,1.44l-1.5,1.3L103.85,50l1.46-1.26a9.45,9.45,0,0,0,4,1.34l.42,1.86,5.77-1.3-.42-1.86a9.35,9.35,0,0,0,2.75-2.52l1.83.6,1.86-5.61-1.88-.62A9.07,9.07,0,0,0,119.4,38.67Zm-7.79,8.25a6.42,6.42,0,1,1,4.85-7.67A6.42,6.42,0,0,1,111.61,46.92Z"/><path class="cls-7" d="M379.89,256.92a19.3,19.3,0,0,0-2.09-2.69l2-3.57-10.48-5.91-2.07,3.66a19.22,19.22,0,0,0-8.26.26l-2.28-3.57-10.14,6.49,2.28,3.57a19.27,19.27,0,0,0-3.43,6.42l-4.2.12.33,12,4.1-.11a19.5,19.5,0,0,0,1.93,3.95,19,19,0,0,0,1.86,2.45l-2,3.51L358,289.44l1.93-3.42a19.14,19.14,0,0,0,8.58-.2l2.09,3.27,10.14-6.48-2.09-3.27a19.13,19.13,0,0,0,3.53-6.74l3.92-.11-.33-12-4,.11A19.42,19.42,0,0,0,379.89,256.92Zm-9.21,21.19a13.07,13.07,0,1,1,4-18.05A13.07,13.07,0,0,1,370.68,278.11Z"/><rect class="cls-8" x="118.95" y="55.01" width="196.89" height="294.29" rx="12.25"/><path class="cls-9" d="M258.83,51.93H257a6.63,6.63,0,0,0-6.63-6.61h-14a12,12,0,0,1-12-12V33a8.54,8.54,0,0,0-9.13-8.49,8.71,8.71,0,0,0-7.9,8.78h0a12,12,0,0,1-12,12h-14a6.62,6.62,0,0,0-6.61,6.61h-1.81a8.26,8.26,0,0,0-8.23,8.23h0V68.4H267.06V60.16A8.26,8.26,0,0,0,258.83,51.93Zm-43-11.63a4,4,0,1,1,4-4A4,4,0,0,1,215.85,40.3Z"/><rect class="cls-10" x="131.6" y="73.68" width="171.59" height="256.93"/><path class="cls-11" d="M235.59,182H149a1.65,1.65,0,0,1-1.64-1.64h0a1.65,1.65,0,0,1,1.64-1.64h86.57a1.65,1.65,0,0,1,1.64,1.64h0A1.65,1.65,0,0,1,235.59,182Z"/><path class="cls-11" d="M173.56,188.34H149a1.58,1.58,0,0,1-1.58-1.58h0a1.57,1.57,0,0,1,1.58-1.57h24.6a1.57,1.57,0,0,1,1.58,1.57h0A1.58,1.58,0,0,1,173.56,188.34Z"/><path class="cls-11" d="M231.49,188.34h-49.6a1.58,1.58,0,0,1-1.57-1.58h0a1.57,1.57,0,0,1,1.57-1.57h49.6a1.57,1.57,0,0,1,1.58,1.57h0A1.58,1.58,0,0,1,231.49,188.34Z"/><rect class="cls-11" x="147.38" y="191.49" width="47.07" height="3.15" rx="1.58"/><rect class="cls-11" x="201.14" y="191.49" width="25.74" height="3.15" rx="1.58"/><path class="cls-4" d="M173.56,172.75H149a1.57,1.57,0,0,1-1.58-1.57h0A1.58,1.58,0,0,1,149,169.6h24.6a1.58,1.58,0,0,1,1.58,1.58h0A1.57,1.57,0,0,1,173.56,172.75Z"/><path class="cls-4" d="M231.49,172.75h-49.6a1.57,1.57,0,0,1-1.57-1.57h0a1.58,1.58,0,0,1,1.57-1.58h49.6a1.58,1.58,0,0,1,1.58,1.58h0A1.57,1.57,0,0,1,231.49,172.75Z"/><rect class="cls-11" x="147.38" y="281.21" width="89.85" height="3.28" rx="1.64"/><path class="cls-11" d="M173.56,290.8H149a1.58,1.58,0,0,1-1.58-1.58h0a1.58,1.58,0,0,1,1.58-1.58h24.6a1.58,1.58,0,0,1,1.58,1.58h0A1.58,1.58,0,0,1,173.56,290.8Z"/><path class="cls-11" d="M231.49,290.8h-49.6a1.58,1.58,0,0,1-1.57-1.58h0a1.58,1.58,0,0,1,1.57-1.58h49.6a1.58,1.58,0,0,1,1.58,1.58h0A1.58,1.58,0,0,1,231.49,290.8Z"/><path class="cls-11" d="M192.87,297.11H149a1.58,1.58,0,0,1-1.58-1.58h0A1.58,1.58,0,0,1,149,294h43.91a1.58,1.58,0,0,1,1.58,1.58h0A1.58,1.58,0,0,1,192.87,297.11Z"/><path class="cls-11" d="M225.3,297.11H202.72a1.58,1.58,0,0,1-1.58-1.58h0a1.58,1.58,0,0,1,1.58-1.58H225.3a1.58,1.58,0,0,1,1.58,1.58h0A1.58,1.58,0,0,1,225.3,297.11Z"/><path class="cls-4" d="M173.56,275.21H149a1.58,1.58,0,0,1-1.58-1.57h0a1.58,1.58,0,0,1,1.58-1.58h24.6a1.58,1.58,0,0,1,1.58,1.58h0A1.58,1.58,0,0,1,173.56,275.21Z"/><path class="cls-4" d="M231.49,275.21h-49.6a1.58,1.58,0,0,1-1.57-1.57h0a1.58,1.58,0,0,1,1.57-1.58h49.6a1.58,1.58,0,0,1,1.58,1.58h0A1.58,1.58,0,0,1,231.49,275.21Z"/><path class="cls-11" d="M235.59,233.32H149a1.65,1.65,0,0,1-1.64-1.64h0A1.65,1.65,0,0,1,149,230h86.57a1.65,1.65,0,0,1,1.64,1.64h0A1.65,1.65,0,0,1,235.59,233.32Z"/><path class="cls-11" d="M173.56,239.63H149a1.58,1.58,0,0,1-1.58-1.58h0a1.58,1.58,0,0,1,1.58-1.57h24.6a1.58,1.58,0,0,1,1.58,1.57h0A1.58,1.58,0,0,1,173.56,239.63Z"/><path class="cls-11" d="M231.49,239.63h-49.6a1.58,1.58,0,0,1-1.57-1.58h0a1.58,1.58,0,0,1,1.57-1.57h49.6a1.58,1.58,0,0,1,1.58,1.57h0A1.58,1.58,0,0,1,231.49,239.63Z"/><path class="cls-11" d="M192.87,245.94H149a1.58,1.58,0,0,1-1.58-1.58h0a1.58,1.58,0,0,1,1.58-1.57h43.91a1.58,1.58,0,0,1,1.58,1.57h0A1.58,1.58,0,0,1,192.87,245.94Z"/><path class="cls-11" d="M225.3,245.94H202.72a1.58,1.58,0,0,1-1.58-1.58h0a1.58,1.58,0,0,1,1.58-1.57H225.3a1.58,1.58,0,0,1,1.58,1.57h0A1.58,1.58,0,0,1,225.3,245.94Z"/><path class="cls-4" d="M231.49,224.61H206.88A1.58,1.58,0,0,1,205.3,223h0a1.58,1.58,0,0,1,1.58-1.58h24.61a1.58,1.58,0,0,1,1.58,1.58h0A1.58,1.58,0,0,1,231.49,224.61Z"/><path class="cls-4" d="M198.55,224.61H149a1.58,1.58,0,0,1-1.58-1.57h0a1.58,1.58,0,0,1,1.58-1.58h49.59a1.58,1.58,0,0,1,1.58,1.58h0A1.58,1.58,0,0,1,198.55,224.61Z"/><rect class="cls-4" x="203.73" y="116.95" width="33.06" height="33.06"/><path class="cls-5" d="M236.8,149.17V150H204.39a17,17,0,0,1,13.22-12.08,9.12,9.12,0,1,1,6.23,0A17,17,0,0,1,236.8,149.17Z"/><path class="cls-4" d="M273.72,90.52H149.13a1.75,1.75,0,0,0-1.75,1.75h0A1.76,1.76,0,0,0,149.13,94H273.72a1.76,1.76,0,0,0,1.75-1.75h0A1.75,1.75,0,0,0,273.72,90.52Z"/><rect class="cls-4" x="147.38" y="98.21" width="84.2" height="3.5" rx="1.42"/><polygon class="cls-12" points="254.54 242.83 254.54 242.84 254.54 242.84 254.54 242.83"/><path class="cls-13" d="M254.54,242.83l0-.12"/><path class="cls-13" d="M254.54,242.83h0"/><path class="cls-4" d="M271.71,239,285,227.6l0,0a17.36,17.36,0,0,0-5.74-4.39l-.75-.34s0,0,0,0l-.6-.24a2.72,2.72,0,0,0-.37-.13l-.63-.21c-.27-.09-.55-.17-.83-.24s-.54-.14-.82-.19a16.11,16.11,0,0,0-2.59-.34l-1,0a17.51,17.51,0,0,0-12.41,5.18c-.4.4-.78.82-1.14,1.25s-.69.88-1,1.35h0c-.31.46-.61.95-.88,1.44s-.52,1-.75,1.54-.42,1.06-.59,1.61a17.39,17.39,0,0,0-.78,6c0,.26,0,.52.05.77a5,5,0,0,0,.06.54c0,.15,0,.3.05.45a2.34,2.34,0,0,0,0,.26c0,.1,0,.21,0,.31s.08.39.12.58l0,.12,0-.12,0,.12h0c.07.31.14.62.23.92v.05c.05.19.12.38.18.57h0v0a17.66,17.66,0,0,0,11.35,11.36l-.72-.26c.4.16.8.28,1.2.4l-.46-.13.58.17.66.18.09,0c.23.05.47.11.71.15l.23.05.37.06.15,0,.55.07.48.05h0c.25,0,.5,0,.75.05s.52,0,.77,0a17.45,17.45,0,0,0,11.43-4.27l0,0a17.21,17.21,0,0,0,4.3-5.57c.15-.3.3-.61.43-.92,0,0,0,0,0,0l.24-.6c.13-.35.25-.7.36-1.06s.16-.51.22-.77.13-.51.18-.77a16.44,16.44,0,0,0,.35-2.64q0-.48,0-1Z"/><path class="cls-5" d="M289.29,239A17.41,17.41,0,0,0,285,227.6L271.71,239Z"/><path class="cls-5" d="M262,168.17h0a2.78,2.78,0,0,0-2.78,2.78v28.5h5.55V171A2.77,2.77,0,0,0,262,168.17Z"/><path class="cls-4" d="M268.83,174.55h0a2.77,2.77,0,0,0-2.77,2.77v22.13h5.55V177.32A2.77,2.77,0,0,0,268.83,174.55Z"/><path class="cls-5" d="M275.61,180.76h0a2.77,2.77,0,0,0-2.77,2.77v15.92h5.55V183.53A2.77,2.77,0,0,0,275.61,180.76Z"/><path class="cls-4" d="M283,185.34h0a2.77,2.77,0,0,0-2.77,2.77v11.34h5.55V188.11A2.78,2.78,0,0,0,283,185.34Z"/><path class="cls-4" d="M287.17,201.93H256.23a1.65,1.65,0,0,1-1.65-1.65h0a1.65,1.65,0,0,1,1.65-1.66h30.94a1.66,1.66,0,0,1,1.66,1.66h0A1.65,1.65,0,0,1,287.17,201.93Z"/><rect class="cls-4" x="149.32" y="116.95" width="33.65" height="33.65"/><path class="cls-5" d="M148.43,133.2h0a3.45,3.45,0,0,0-.09,4.87l9.91,10.37a3.1,3.1,0,0,0,4.61-.14l21.37-25.36a2.92,2.92,0,0,0-.65-4.33h0a2.92,2.92,0,0,0-3.77.52l-19.17,21.81-7.31-7.64A3.45,3.45,0,0,0,148.43,133.2Z"/><rect class="cls-4" x="254.88" y="116.95" width="33.65" height="33.65"/><path class="cls-5" d="M254,133.2h0a3.45,3.45,0,0,0-.1,4.87l9.92,10.37a3.09,3.09,0,0,0,4.6-.14l21.37-25.36a2.91,2.91,0,0,0-.65-4.33h0a2.92,2.92,0,0,0-3.77.52l-19.17,21.81-7.31-7.64A3.44,3.44,0,0,0,254,133.2Z"/><path class="cls-4" d="M271.72,284.24l16.55-6.72a17.9,17.9,0,0,0-8.38-9.17l-8.18,15.89Z"/><path class="cls-5" d="M288.73,278.79c-.07-.22-.15-.44-.23-.66s-.13-.41-.21-.62h0l-16.55,6.72h0l8.18-15.89v0l-.71-.31-.78-.35c-.29-.12-.57-.21-.86-.31s-.62-.21-.93-.3-.58-.15-.87-.22-.6-.14-.91-.19-.65-.11-1-.14l-.74-.08c-.4,0-.8-.05-1.21-.05h-.42a17.39,17.39,0,0,0-12,4.87l-.28.25-.46.48a18.12,18.12,0,0,0-4.86,11.56c0,.2,0,.4,0,.6s0,.31,0,.47a17.45,17.45,0,0,0,4.68,11.7c.16.17.31.36.48.53l.23.22a18.16,18.16,0,0,0,11.88,5.06l.46,0,.55,0a17.46,17.46,0,0,0,11.78-4.8l.35-.32c.14-.14.26-.28.39-.42a18.09,18.09,0,0,0,3.52-5.37A17.86,17.86,0,0,0,288.73,278.79Z"/><polygon class="cls-14" points="273.42 138.63 281.82 141.99 290.21 145.34 286.08 125.72 279.76 132.16 273.42 138.63"/><path class="cls-9" d="M273.42,138.63l8.4,3.36c-.63-3-1.44-6.9-2.06-9.82Z"/><rect class="cls-15" x="286.77" y="112.33" width="127.92" height="20.05" transform="translate(-17.68 74.85) rotate(-11.88)"/><rect class="cls-9" x="413.27" y="98.67" width="4.78" height="20.05" transform="translate(-13.47 87.93) rotate(-11.88)"/><path class="cls-16" d="M415.94,98.39,420.07,118l.23-.05,7.65-1.63a9.94,9.94,0,0,0,7.69-11.55h0a9.93,9.93,0,0,0-11.48-7.94c-3,.52-6,1.07-8,1.5Z"/><path class="cls-2" d="M139.85,411.54c0,3.17-24.74,5.75-55.27,5.75s-55.27-2.58-55.27-5.75,24.75-5.76,55.27-5.76S139.85,408.36,139.85,411.54Z"/><path class="cls-17" d="M133.78,171.81a21.72,21.72,0,0,0-2.87,1.53c-.34-7.35-2.51-5.21-2.51-5.21l.17,8,0,0-.25,4.38,3.82.58c2.77.64,4.59.2,5.75-.49l.05,0a4.12,4.12,0,0,0,1.91-3.41l0-1.15A4.38,4.38,0,0,0,133.78,171.81Z"/><path class="cls-18" d="M58.63,215.15,35.12,252.23c-.14.22-.28.44-.41.67a16.11,16.11,0,0,0-1.28,12.66l7.85,36.26,7.8-1.48-6.63-35.19a16.94,16.94,0,0,1,3-8.8l15.36-22Z"/><rect class="cls-19" x="30.06" y="286.96" width="31.52" height="20.86" transform="translate(-88.55 28.16) rotate(-17.76)"/><rect class="cls-2" x="31.22" y="288.19" width="29.21" height="18.39" transform="matrix(0.95, -0.31, 0.31, 0.95, -88.55, 28.16)"/><path class="cls-20" d="M37.53,307.82h0a.49.49,0,0,1-.61-.32l-4.24-13.11a.49.49,0,0,1,.32-.61h0a.47.47,0,0,1,.61.31l4.24,13.11A.5.5,0,0,1,37.53,307.82Z"/><path class="cls-20" d="M40.54,306.84h0a.47.47,0,0,1-.61-.31l-4.24-13.11a.5.5,0,0,1,.32-.62h0a.49.49,0,0,1,.61.32l4.24,13.11A.49.49,0,0,1,40.54,306.84Z"/><path class="cls-20" d="M43.55,305.87h0a.49.49,0,0,1-.61-.32l-4.24-13.1a.5.5,0,0,1,.31-.62h0a.49.49,0,0,1,.62.32l4.24,13.1A.49.49,0,0,1,43.55,305.87Z"/><path class="cls-20" d="M46.56,304.9h0a.49.49,0,0,1-.61-.32l-4.24-13.1a.5.5,0,0,1,.31-.62h0a.49.49,0,0,1,.62.31l4.24,13.11A.5.5,0,0,1,46.56,304.9Z"/><path class="cls-20" d="M49.57,303.92h0a.47.47,0,0,1-.61-.31L44.72,290.5a.5.5,0,0,1,.31-.62h0a.49.49,0,0,1,.62.32l4.24,13.11A.49.49,0,0,1,49.57,303.92Z"/><path class="cls-20" d="M52.58,303h0a.49.49,0,0,1-.61-.31l-4.24-13.11a.49.49,0,0,1,.31-.62h0a.49.49,0,0,1,.62.32l4.24,13.1A.49.49,0,0,1,52.58,303Z"/><path class="cls-20" d="M55.59,302h0a.49.49,0,0,1-.61-.32l-4.24-13.1a.49.49,0,0,1,.31-.62h0a.49.49,0,0,1,.62.31l4.24,13.11A.5.5,0,0,1,55.59,302Z"/><path class="cls-20" d="M58.6,301h0a.47.47,0,0,1-.61-.31l-4.24-13.11a.49.49,0,0,1,.31-.62h0a.49.49,0,0,1,.62.32l4.24,13.11A.49.49,0,0,1,58.6,301Z"/><path class="cls-17" d="M44,301a1.66,1.66,0,0,0-.32.2,2.92,2.92,0,0,0-1.1,3l.17.82A3.55,3.55,0,0,0,46,308.64a10.52,10.52,0,0,0,4.83-.94,1.78,1.78,0,0,0,.94-.95c.47-1.1,1.4-4-.11-6.38a.85.85,0,0,0-.49-.36h0a.87.87,0,0,0-1.1.83,6.22,6.22,0,0,1-.61,3.15l-.52-2.41a1.8,1.8,0,0,0-2-1.4A10.6,10.6,0,0,0,44,301Z"/><path class="cls-21" d="M105.34,399.58a15,15,0,0,0-2.91,9.2,3.71,3.71,0,0,0,3.71,3.69h24.18c1.36-4.25-.33-4.72-4.1-5.57q-10.89-.78-13.37-7.8Z"/><path class="cls-22" d="M41.13,399.58a14.93,14.93,0,0,0-2.91,9.2,3.71,3.71,0,0,0,3.71,3.69H66.11c1.35-4.25-.33-4.72-4.1-5.57q-10.89-.78-13.37-7.8Z"/><path class="cls-23" d="M58,285.86c-.77.53-1.21,14.65-1.46,28.09a178.41,178.41,0,0,1-7.73,48.66L37.41,400l12.89,1.61,17.25-46.32a177.45,177.45,0,0,0,7.73-27.13l8.49-42.26Z"/><path class="cls-24" d="M72.49,285.86h0q-.19.78-.36,1.56a31.46,31.46,0,0,0,10.62,30.1l1.51,1.3a306,306,0,0,1,10,38.75l7.53,42.69h12.35L99.47,288.79Z"/><path class="cls-9" d="M61.4,192.77c-.25,1.65,1.05,4.31,1.88,5.76a5.7,5.7,0,0,0,2.21,2.54,10.14,10.14,0,0,0,7.21,2c1.47-.27,3.65-1,4.44-2.28.66-1.08.53-2.82.44-4-.14-1.79-.11-3.83-1-5.42-1.34-2.37-2.93-4.26-5.82-4.58-2.3-.27-6.37-.26-7.38,2.39"/><path class="cls-14" d="M82.78,201.61c.16.62-3,10.92-1.09,14.51l-12.17-.78S74.36,213.15,75,194Z"/><path class="cls-25" d="M56.24,288.79a109.41,109.41,0,0,0,5.36-33.86A109.43,109.43,0,0,0,60,236.53l-2.75-16.15a7.44,7.44,0,0,1,6.37-8.28l9.56-1.29H82l2.86.81,10.61,3c.61,11.22-3.5,26.21-2.79,39.29.65,12,6.11,21.86,6.82,34.88Z"/><path class="cls-26" d="M137.53,181.56,133,205l0,.05a21.56,21.56,0,0,1-14.68,16.7l-14.69,4.62a20.58,20.58,0,0,1-16.06-1.65h0c-4-2.2-3.44-8.25.94-9.32h0c1-.24,2-.43,3-.58l20.46-3.05a14.31,14.31,0,0,0,11.68-10.5l4-21.31,1.71.29,4.79.79Z"/><path class="cls-5" d="M69.52,211.32l.81-2.65a1.88,1.88,0,0,1,.12-.3,1.65,1.65,0,0,1,2.37-.53c1.72,1.06,6.06,1.28,8.63-.11a1.8,1.8,0,0,1,2.63,1.13v0l.5,2.66Q76.19,215.72,69.52,211.32Z"/><path class="cls-17" d="M82.1,179.55c.11.46,3.09,5.23,3.72,7.33l5.73,5.59s.43.47-1.83,1.77a39.91,39.91,0,0,1,.62,7.38,3.37,3.37,0,0,1-3.53,3.2c-2.89-.14-7.15-.88-11-7.2,0,0-6.26,3.11-6.85-5.23,0,0-2-10.83,3.8-5.08L74.94,189Z"/><path class="cls-9" d="M84.87,188.7c.27.74.22,1.44-.11,1.56s-.83-.37-1.1-1.11-.22-1.44.11-1.56S84.6,188,84.87,188.7Z"/><path class="cls-9" d="M88.52,196.61c-1.93.43-3.54-1.44-3.62-1.53a.25.25,0,0,1,0-.34.24.24,0,0,1,.34,0s1.75,2,3.58,1.23a.23.23,0,0,1,.31.12.24.24,0,0,1-.12.32A3.5,3.5,0,0,1,88.52,196.61Z"/><path class="cls-9" d="M81.65,188.85a4.54,4.54,0,0,1,2.53-2.9.58.58,0,0,0,.33-.82h0a.57.57,0,0,0-.78-.24C83.13,185.25,82.17,186.22,81.65,188.85Z"/><path class="cls-27" d="M89,179c-.35-3.4-4.24-7.7-7.79-7.88a12.36,12.36,0,0,0-4.54.46c-1.76.58-4.29,1.53-4.91,3.55-.33,1-.36,2.53-1.47,2.84-2.4.68-4.47.94-6.53,2.53a8.7,8.7,0,0,0-3.71,6.12,26.61,26.61,0,0,0,1.48,9.62c1.35,3.68,6.37,7.23,10.92,7.34a.92.92,0,0,1,0,.16c-.27,1-1.33,1.38-1.87,2.18,1.36.5,3.15-.29,4.24-1.11,1.18,1.64,3,1.36,4.68,1.71a3.54,3.54,0,0,1-1.2-3c.33-1.36,1.47-2.39,1.83-3.81a4.54,4.54,0,0,0,0-2.87c.06-.25.12-.5.16-.77a3.26,3.26,0,0,1-2.33-2c-.7-1.55-.3-3.24.89-3.78a2,2,0,0,1,1.72,0,38.89,38.89,0,0,0-.43-4.11c.62-.26,1.38-1.59,1.74-2s.82-1.63,1.42-2A18.43,18.43,0,0,1,85,184.83c1.26.1,3.56-6,2.69-7.62A10.06,10.06,0,0,1,89,179Z"/><path class="cls-28" d="M73,174c-.21,0-1,0-1.4,0-2.47.11-11.49,1.51-14,9.33-3.66,11.41,3.79,16.46,5.89,17.77a32,32,0,0,0,3,1.6,4.61,4.61,0,0,0,1.65.6c.74.05.82-.25,1.31-.82A20.06,20.06,0,0,0,73,196.57a47.66,47.66,0,0,0,2.28-7.44,40.66,40.66,0,0,0,.59-7.24A12.26,12.26,0,0,0,73,174Z"/><path class="cls-19" d="M68,202.71s-1.89,1.58.58,2.11c0,0,4.33-.21,7.83-11.88.06-.18.11-.37.17-.56a24.4,24.4,0,0,0-1.82-19.74,1.58,1.58,0,0,0-2.47,1.29C77.05,182.18,74.52,192,68,202.71Z"/></g></g></g></svg>