<svg xmlns:mydata="http://www.w3.org/2000/svg" xmlns="http://www.w3.org/2000/svg" xmlns:xlink="http://www.w3.org/1999/xlink" mydata:layoutType="" mydata:specialFontId="46" mydata:id1="046" mydata:id2="152" mydata:companyName="NewBie Soft Solutions" mydata:companyTagline="" version="1.1" width="170.36363426187495" height="229.96971217243822" style=""><rect id="backgroundrect" width="100%" height="100%" x="0" y="0" fill="none" stroke="none" class="" style=""/><g class="currentLayer" style=""><title>Layer 1</title><g fill="none" fill-rule="nonzero" stroke="none" stroke-width="1" stroke-linecap="butt" stroke-linejoin="miter" stroke-miterlimit="10" stroke-dasharray="" stroke-dashoffset="0" font-family="none" font-weight="none" font-size="none" text-anchor="none" style="mix-blend-mode: normal" id="svg_1" class=""><g id="svg_2"><path d="M40.779175959854115,171.14282443382262 c-3.88823,2.18917 -7.72745,4.55805 -11.51765,7.10664 c-3.79021,2.54859 -7.36803,5.26054 -10.73347,8.13587 l22.25112,0 v7.54774 h-33.96482 v-6.22443 c1.07825,-1.07825 2.40155,-2.27086 3.96991,-3.57782 c1.56836,-1.3069700000000002 3.24291,-2.63844 5.02366,-3.99442 c1.7807400000000002,-1.3559800000000002 3.62684,-2.70379 5.53828,-4.04343 c1.91144,-1.3396400000000002 3.7493600000000002,-2.5976 5.51377,-3.77387 h-20.04562 v-7.59675 h33.96482 zM40.779175959854115,156.88054443382265 h-33.96482 v-22.93728 h6.42048 v15.29152 h6.66554 v-13.57613 h6.27344 v13.57613 h8.18489 v-16.41878 l6.42048,0 zM10.441195959854127,104.38945443382264 c1.3396400000000002,-0.3920900000000003 2.85082,-0.8250200000000006 4.53354,-1.2988 c1.682720000000001,-0.4737800000000003 3.42262,-0.9802299999999995 5.2197000000000005,-1.51935 c1.79708,-0.53912 3.59416,-1.08642 5.39124,-1.64188 c1.79708,-0.55546 3.46346,-1.09459 4.99915,-1.6173700000000002 c-1.6663800000000002,-0.42476 -3.4798,-0.8577000000000014 -5.44025,-1.2988 c-1.96045,-0.4411000000000003 -3.98625,-0.8577000000000014 -6.0774,-1.24979 c-2.09115,-0.3920900000000003 -4.17413,-0.77601 -6.24894,-1.15177 c-2.07481,-0.3757500000000003 -4.07611,-0.7270000000000006 -6.00388,-1.05374 v-7.93983 c5.68531,1.1436 11.4523,2.45873 17.30098,3.94541 c5.84868,1.48668 11.40329,3.09588 16.66384,4.82761 v7.00861 c-3.13672,1.1436 -6.42865,2.25452 -9.87577,3.33277 c-3.44713,1.07825 -6.90242,2.14016 -10.36589,3.18573 c3.46346,1.04557 6.91876,2.09115 10.36589,3.13672 c3.44713,1.04557 6.73905,2.14016 9.87577,3.28376 v7.00861 c-5.26054,1.7317300000000002 -10.81516,3.3409400000000002 -16.66384,4.82761 c-5.84868,1.48668 -11.61568,2.80181 -17.30098,3.94541 v-8.28291 c1.92778,-0.3267400000000003 3.9290700000000003,-0.6861600000000012 6.00388,-1.07825 c2.07481,-0.3920900000000003 4.15779,-0.80052 6.24894,-1.2252800000000001 c2.09115,-0.42476 4.11695,-0.8577000000000014 6.0774,-1.2988 c1.96045,-0.4411000000000003 3.77387,-0.8903700000000012 5.44025,-1.3478100000000004 c-1.6010400000000002,-0.5881400000000012 -3.30009,-1.1599300000000001 -5.09717,-1.7154 c-1.79708,-0.55546 -3.59416,-1.09459 -5.39124,-1.6173700000000002 c-1.79708,-0.5227900000000006 -3.52881,-1.00473 -5.1952,-1.44583 c-1.6663800000000002,-0.4411000000000003 -3.15306,-0.84136 -4.46003,-1.20078 zM41.22027595985412,69.39539443382264 c0,1.86243 -0.05718000000000009,3.7166900000000007 -0.1715400000000003,5.56278 c-0.11436000000000016,1.8460900000000002 -0.3839200000000009,3.7657000000000007 -0.8086900000000014,5.75883 h-32.93559 c-0.2940700000000006,-1.56836 -0.5146200000000006,-3.28376 -0.6616500000000018,-5.14619 c-0.14703000000000024,-1.86243 -0.2205500000000003,-3.59416 -0.2205500000000003,-5.1952 c0,-2.1565 0.15520000000000037,-4.14145 0.46561,-5.95487 c0.3104000000000007,-1.81342 0.84136,-3.37361 1.59287,-4.68058 c0.75151,-1.3069700000000002 1.7399,-2.32804 2.96518,-3.06321 c1.2252800000000001,-0.7351700000000012 2.73646,-1.10275 4.53354,-1.10275 c2.71196,0 4.85212,1.3069700000000002 6.42048,3.9209 c0.8168500000000006,-2.1565 1.92778,-3.62684 3.33277,-4.41102 c1.40499,-0.78418 2.98969,-1.17627 4.75409,-1.17627 c3.56149,0 6.24077,1.2988 8.03785,3.8964 c1.79708,2.5976 2.6956200000000017,6.46132 2.6956200000000017,11.59117 M25.97776595985414,73.26728443382262 h8.77302 c0.06535,-0.55546 0.11436000000000016,-1.1599300000000001 0.14703000000000024,-1.81342 c0.032670000000000116,-0.6534800000000006 0.04901000000000012,-1.3723200000000002 0.04901000000000012,-2.1565 c0,-2.28719 -0.3267400000000003,-4.13329 -0.9802299999999995,-5.53828 c-0.6534800000000006,-1.40499 -1.86243,-2.10749 -3.62684,-2.10749 c-1.56836,0 -2.68745,0.5881400000000012 -3.35727,1.76441 c-0.6698200000000021,1.17627 -1.00473,2.8589900000000004 -1.00473,5.04816 v4.80311 M20.145425959854123,73.26728443382262 v-3.72486 c0,-2.35254 -0.30224,-4.03526 -0.90671,-5.04816 c-0.6044700000000006,-1.0129 -1.57653,-1.51935 -2.91617,-1.51935 c-1.3723200000000002,0 -2.3362,0.5227900000000006 -2.8916700000000004,1.56836 c-0.55546,1.04557 -0.8331900000000012,2.58126 -0.8331900000000012,4.60706 c0,0.6534800000000006 0.008170000000000021,1.3559800000000002 0.024510000000000046,2.10749 c0.01634000000000004,0.75151 0.05718000000000009,1.42133 0.12253000000000012,2.00946 zM6.81435595985414,47.78141443382262 v-7.64576 h33.96482 v7.64576 zM40.779175959854115,32.29384443382264 h-33.96482 v-22.93728 h6.42048 v15.29152 h6.66554 v-13.57613 h6.27344 v13.57613 h8.18489 v-16.41878 h6.42048 z" fill="#25282A" id="svg_3"/><path d="M129.62384595985412,196.29657443382263 c-11.96936,-21.25902 -24.92129,-42.25006 -38.85577,-62.97314 c-6.0892800000000005,-9.05585 -12.34914,-17.88996 -18.77957,-26.50231 h42.17933 c3.10007,4.5399 6.10831,8.99715 9.0247,13.37174 v-13.37174 l41.53548,0 v89.47545 z" fill="#25282A" id="svg_4"/><path d="M48.64843595985411,72.69392443382264 v-56.66162 c3.17375,3.53074 6.4948,7.37712 9.96315,11.53914 c7.14589,8.57507 14.42576,17.73074 21.83962,27.46701 c7.41386,9.73627 14.78306,19.82984 22.10759,30.2807 c3.18336,4.54211 6.28235,9.00829 9.29698,13.39854 l-42.40562,0 c-6.74862,-8.91546 -13.68253,-17.59005 -20.80173,-26.02377 zM123.1925459598541,5.865804433822632 h41.53548 l0,92.85188 h-41.53548 z" fill="#8A8D8F" id="svg_5"/><path d="M13.791395959854128,216.95056443382265 c-1.14452,-0.5421400000000006 -2.26897,-0.5421400000000006 -2.36937,-0.5421400000000006 c-1.02405,0 -2.00794,-0.60238 -2.00794,-1.7669800000000002 c0,-1.28508 0.90357,-1.9477000000000002 2.00794,-1.9477000000000002 c1.04413,0 1.9276200000000001,0.5421400000000006 1.96778,1.6866700000000026 c0,0.0602400000000001 0.1004,0.16063000000000024 0.22087,0.16063000000000024 h2.50992 c0.1405600000000002,0 0.2409500000000003,-0.1004 0.22087,-0.16063000000000024 c-0.04016000000000009,-2.7307900000000007 -2.16857,-4.5781 -4.91945,-4.5781 c-2.57016,0 -4.99976,1.82722 -4.99976,4.83913 c0,1.86738 0.9437300000000006,3.2930200000000003 2.61032,4.05603 c1.1646,0.5421400000000006 2.24889,0.5421400000000006 2.38945,0.5421400000000006 c0.90357,0.04016000000000009 2.00794,0.7630200000000017 2.00794,1.9477000000000002 c0,1.06421 -0.9437300000000006,1.7870599999999999 -2.00794,1.7870599999999999 c0,0 0,0 -0.020080000000000046,0 v2.89143 c0.020080000000000046,0 0.020080000000000046,0 0.020080000000000046,0 c2.57016,0 4.97968,-1.6665900000000002 4.97968,-4.67849 c0,-1.88746 -0.9236500000000006,-3.45365 -2.61032,-4.23675 zM26.140205959854114,217.87421443382266 c0,-0.84333 -0.6626200000000024,-1.52603 -1.50595,-1.52603 c-0.84333,0 -1.50595,0.6827000000000021 -1.50595,1.52603 c0,0.82325 0.6626200000000024,1.50595 1.50595,1.50595 c0.84333,0 1.50595,-0.6827000000000021 1.50595,-1.50595 zM32.364815959854134,217.81397443382264 c0,-3.99579 -2.59024,-8.01167 -7.7104800000000004,-8.01167 c-5.20056,0 -7.7506400000000015,4.01587 -7.7506400000000015,8.01167 c0,4.01587 2.55008,8.05183 7.7506400000000015,8.05183 c5.12024,0 7.7104800000000004,-4.03595 7.7104800000000004,-8.05183 zM29.352905959854127,217.87421443382266 c0,2.59024 -1.58627,5.18048 -4.69857,5.18048 c-3.15246,0 -4.71865,-2.59024 -4.71865,-5.18048 c0,-2.6304 1.5661900000000002,-5.24072 4.71865,-5.24072 c3.1123,0 4.69857,2.61032 4.69857,5.24072 zM42.50489595985414,216.3481844338226 h-6.30492 v-3.63437 h4.55802 v-2.91151 h-7.40929 c-0.12048,0 -0.22087,0.1004 -0.22087,0.18071000000000045 v15.70207 c0,0.08032000000000016 0.1004,0.18071000000000045 0.22087,0.18071000000000045 h0.84333 h1.98786 h0.020080000000000046 v-6.60611 h6.30492 c0.12048,0 0.22087,-0.1004 0.22087,-0.18071000000000045 v-2.55008 c0,-0.1004 -0.1004,-0.18071000000000045 -0.22087,-0.18071000000000045 zM46.52076595985412,215.62532443382264 v10.05976 c0,0.08032000000000016 0.08032000000000016,0.18071000000000045 0.22087,0.18071000000000045 h2.59024 c0.1405600000000002,0 0.2409500000000003,-0.1004 0.2409500000000003,-0.18071000000000045 v-10.05976 zM43.42854595985412,212.55318443382265 h9.21643 c0.1405600000000002,0 0.22087,-0.08032000000000016 0.22087,-0.18071000000000045 v-2.38945 c0,-0.08032000000000016 -0.08032000000000016,-0.18071000000000045 -0.22087,-0.18071000000000045 h-9.21643 c-0.12048,0 -0.22087,0.1004 -0.22087,0.18071000000000045 v2.38945 c0,0.1004 0.1004,0.18071000000000045 0.22087,0.18071000000000045 zM65.73672595985411,216.95056443382265 c-1.14452,-0.5421400000000006 -2.26897,-0.5421400000000006 -2.36937,-0.5421400000000006 c-1.02405,0 -2.00794,-0.60238 -2.00794,-1.7669800000000002 c0,-1.28508 0.90357,-1.9477000000000002 2.00794,-1.9477000000000002 c1.04413,0 1.9276200000000001,0.5421400000000006 1.96778,1.6866700000000026 c0,0.0602400000000001 0.1004,0.16063000000000024 0.22087,0.16063000000000024 h2.50992 c0.1405600000000002,0 0.2409500000000003,-0.1004 0.22087,-0.16063000000000024 c-0.04016000000000009,-2.7307900000000007 -2.16857,-4.5781 -4.91945,-4.5781 c-2.57016,0 -4.99976,1.82722 -4.99976,4.83913 c0,1.86738 0.9437300000000006,3.2930200000000003 2.61032,4.05603 c1.1646,0.5421400000000006 2.24889,0.5421400000000006 2.38945,0.5421400000000006 c0.90357,0.04016000000000009 2.00794,0.7630200000000017 2.00794,1.9477000000000002 c0,1.06421 -0.9437300000000006,1.7870599999999999 -2.00794,1.7870599999999999 c0,0 0,0 -0.020080000000000046,0 v2.89143 c0.020080000000000046,0 0.020080000000000046,0 0.020080000000000046,0 c2.57016,0 4.97968,-1.6665900000000002 4.97968,-4.67849 c0,-1.88746 -0.9236500000000006,-3.45365 -2.61032,-4.23675 zM78.0855359598541,217.87421443382266 c0,-0.84333 -0.6626200000000024,-1.52603 -1.50595,-1.52603 c-0.84333,0 -1.50595,0.6827000000000021 -1.50595,1.52603 c0,0.82325 0.6626200000000024,1.50595 1.50595,1.50595 c0.84333,0 1.50595,-0.6827000000000021 1.50595,-1.50595 zM84.31014595985414,217.81397443382264 c0,-3.99579 -2.59024,-8.01167 -7.7104800000000004,-8.01167 c-5.20056,0 -7.7506400000000015,4.01587 -7.7506400000000015,8.01167 c0,4.01587 2.55008,8.05183 7.7506400000000015,8.05183 c5.12024,0 7.7104800000000004,-4.03595 7.7104800000000004,-8.05183 zM81.29823595985414,217.87421443382266 c0,2.59024 -1.58627,5.18048 -4.69857,5.18048 c-3.15246,0 -4.71865,-2.59024 -4.71865,-5.18048 c0,-2.6304 1.5661900000000002,-5.24072 4.71865,-5.24072 c3.1123,0 4.69857,2.61032 4.69857,5.24072 zM93.74744595985413,222.87397443382264 h-5.60214 h-3.07214 v2.81111 c0,0.08032000000000016 0.1004,0.18071000000000045 0.22087,0.18071000000000045 h8.45342 c0.1405600000000002,0 0.22087,-0.1004 0.22087,-0.18071000000000045 v-2.61032 c0,-0.1004 -0.08032000000000016,-0.2007900000000003 -0.22087,-0.2007900000000003 zM88.14530595985411,219.80183443382265 v-9.81881 c0,-0.08032000000000016 -0.08032000000000016,-0.18071000000000045 -0.2007900000000003,-0.18071000000000045 h-2.65048 c-0.12048,0 -0.22087,0.1004 -0.22087,0.18071000000000045 v9.81881 zM106.2769759598541,209.80230443382266 h-2.61032 c-0.1405600000000002,0 -0.22087,0.1004 -0.22087,0.18071000000000045 v10.52159 c0,1.62643 -1.48587,2.40952 -2.99183,2.40952 c-1.48587,0 -2.81111,-0.84333 -2.99183,-2.4296 v-7.77072 h-3.03198 v7.7908 c0,3.3131 2.7107200000000002,5.36119 6.02381,5.36119 c3.41349,0 6.02381,-1.96778 6.02381,-5.36119 v-10.52159 c0,-0.08032000000000016 -0.1004,-0.18071000000000045 -0.2007900000000003,-0.18071000000000045 zM110.39324595985414,215.62532443382264 v10.05976 c0,0.08032000000000016 0.08032000000000016,0.18071000000000045 0.22087,0.18071000000000045 h2.59024 c0.1405600000000002,0 0.2409500000000003,-0.1004 0.2409500000000003,-0.18071000000000045 v-10.05976 zM107.30102595985414,212.55318443382265 h9.21643 c0.1405600000000002,0 0.22087,-0.08032000000000016 0.22087,-0.18071000000000045 v-2.38945 c0,-0.08032000000000016 -0.08032000000000016,-0.18071000000000045 -0.22087,-0.18071000000000045 h-9.21643 c-0.12048,0 -0.22087,0.1004 -0.22087,0.18071000000000045 v2.38945 c0,0.1004 0.1004,0.18071000000000045 0.22087,0.18071000000000045 zM123.76610595985414,223.1149344338226 h-1.60635 v-5.68246 v-4.87929 v-2.75087 h-3.07214 v2.75087 v4.87929 v5.68246 h-1.6465100000000001 c-0.12048,0 -0.22087,0.08032000000000016 -0.22087,0.18071000000000045 v2.38945 c0,0.08032000000000016 0.1004,0.18071000000000045 0.22087,0.18071000000000045 h6.325 c0.1405600000000002,0 0.22087,-0.1004 0.22087,-0.18071000000000045 v-2.38945 c0,-0.1004 -0.08032000000000016,-0.18071000000000045 -0.22087,-0.18071000000000045 zM133.56484595985415,217.87421443382266 c0,-0.84333 -0.6626200000000024,-1.52603 -1.50595,-1.52603 c-0.84333,0 -1.50595,0.6827000000000021 -1.50595,1.52603 c0,0.82325 0.6626200000000024,1.50595 1.50595,1.50595 c0.84333,0 1.50595,-0.6827000000000021 1.50595,-1.50595 zM139.7894459598541,217.81397443382264 c0,-3.99579 -2.59024,-8.01167 -7.7104800000000004,-8.01167 c-5.20056,0 -7.7506400000000015,4.01587 -7.7506400000000015,8.01167 c0,4.01587 2.55008,8.05183 7.7506400000000015,8.05183 c5.12024,0 7.7104800000000004,-4.03595 7.7104800000000004,-8.05183 zM136.77754595985414,217.87421443382266 c0,2.59024 -1.58627,5.18048 -4.69857,5.18048 c-3.15246,0 -4.71865,-2.59024 -4.71865,-5.18048 c0,-2.6304 1.5661900000000002,-5.24072 4.71865,-5.24072 c3.1123,0 4.69857,2.61032 4.69857,5.24072 zM153.84500595985412,209.80230443382266 h-2.59024 c-0.1405600000000002,0 -0.2409500000000003,0.1004 -0.2409500000000003,0.18071000000000045 v10.46135 l-7.40929,-10.58183 c-0.020080000000000046,-0.04016000000000009 -0.1405600000000002,-0.0602400000000001 -0.18071000000000045,-0.0602400000000001 h-2.67056 c-0.1004,0 -0.2007900000000003,0.1004 -0.2007900000000003,0.18071000000000045 v12.02754 h3.07214 v-6.78683 l7.38921,10.58183 c0.020080000000000046,0.04016000000000009 0.1405600000000002,0.0602400000000001 0.18071000000000045,0.0602400000000001 h2.65048 c0.1405600000000002,0 0.22087,-0.1004 0.22087,-0.18071000000000045 v-15.70207 c0,-0.08032000000000016 -0.08032000000000016,-0.18071000000000045 -0.22087,-0.18071000000000045 zM162.1177059598541,216.95056443382265 c-1.14452,-0.5421400000000006 -2.26897,-0.5421400000000006 -2.36937,-0.5421400000000006 c-1.02405,0 -2.00794,-0.60238 -2.00794,-1.7669800000000002 c0,-1.28508 0.90357,-1.9477000000000002 2.00794,-1.9477000000000002 c1.04413,0 1.9276200000000001,0.5421400000000006 1.96778,1.6866700000000026 c0,0.0602400000000001 0.1004,0.16063000000000024 0.22087,0.16063000000000024 h2.50992 c0.1405600000000002,0 0.2409500000000003,-0.1004 0.22087,-0.16063000000000024 c-0.04016000000000009,-2.7307900000000007 -2.16857,-4.5781 -4.91945,-4.5781 c-2.57016,0 -4.99976,1.82722 -4.99976,4.83913 c0,1.86738 0.9437300000000006,3.2930200000000003 2.61032,4.05603 c1.1646,0.5421400000000006 2.24889,0.5421400000000006 2.38945,0.5421400000000006 c0.90357,0.04016000000000009 2.00794,0.7630200000000017 2.00794,1.9477000000000002 c0,1.06421 -0.9437300000000006,1.7870599999999999 -2.00794,1.7870599999999999 c0,0 0,0 -0.020080000000000046,0 v2.89143 c0.020080000000000046,0 0.020080000000000046,0 0.020080000000000046,0 c2.57016,0 4.97968,-1.6665900000000002 4.97968,-4.67849 c0,-1.88746 -0.9236500000000006,-3.45365 -2.61032,-4.23675 z" fill="#25282A" id="svg_6"/></g></g></g></svg>