<svg xmlns="http://www.w3.org/2000/svg" viewBox="0 0 170.36 229.97"><defs><style>.cls-1{fill:none;}.cls-2{fill:#05255f;}.cls-3{fill:#ff382f;}</style></defs><g id="Layer_2" data-name="Layer 2"><g id="Layer_1-2" data-name="Layer 1"><rect id="backgroundrect" class="cls-1" width="170.36" height="229.97"/><g id="svg_1" data-name="svg 1"><g id="svg_2" data-name="svg 2"><path id="svg_3" data-name="svg 3" class="cls-2" d="M40.78,171.14q-5.84,3.29-11.52,7.11a115.75,115.75,0,0,0-10.73,8.14H40.78v7.54h-34v-6.22c1.08-1.08,2.41-2.27,4-3.58s3.25-2.64,5-4,3.62-2.71,5.54-4,3.75-2.59,5.51-3.77h-20v-7.6h34Zm0-14.26h-34V133.94h6.42v15.29H19.9V135.66h6.27v13.57h8.19V132.82h6.42ZM10.44,104.39c1.34-.39,2.85-.83,4.53-1.3s3.43-1,5.22-1.52l5.4-1.64c1.79-.56,3.46-1.1,5-1.62-1.66-.42-3.47-.86-5.44-1.3s-4-.85-6.07-1.25l-6.25-1.15c-2.08-.37-4.08-.73-6-1V85.62q8.54,1.71,17.31,3.94t16.66,4.83v7q-4.71,1.71-9.88,3.33t-10.36,3.19l10.36,3.13q5.18,1.58,9.88,3.29v7q-7.89,2.59-16.66,4.82t-17.31,4v-8.28q2.9-.5,6-1.08c2.07-.39,4.16-.8,6.25-1.23s4.11-.85,6.07-1.29,3.78-.9,5.44-1.35q-2.4-.89-5.09-1.72l-5.39-1.62q-2.7-.78-5.2-1.44l-4.46-1.2Zm30.78-35c0,1.86-.06,3.71-.17,5.56a41.07,41.07,0,0,1-.81,5.76H7.3a51.09,51.09,0,0,1-.66-5.15c-.14-1.86-.22-3.59-.22-5.19a35.4,35.4,0,0,1,.47-6,14.18,14.18,0,0,1,1.59-4.68,8.24,8.24,0,0,1,3-3.06A8.59,8.59,0,0,1,16,55.57,7.2,7.2,0,0,1,22.4,59.5a8.09,8.09,0,0,1,3.33-4.42,9.65,9.65,0,0,1,4.76-1.17,9.12,9.12,0,0,1,8,3.89q2.7,3.9,2.7,11.6M26,73.27h8.77c.07-.56.12-1.16.15-1.82S35,70.08,35,69.3a13.28,13.28,0,0,0-1-5.54,3.64,3.64,0,0,0-3.63-2.11A3.55,3.55,0,0,0,27,63.42a10.28,10.28,0,0,0-1,5v4.81m-5.83,0V69.54a10.46,10.46,0,0,0-.91-5.05A3.16,3.16,0,0,0,16.32,63a3,3,0,0,0-2.89,1.57,10.17,10.17,0,0,0-.83,4.61c0,.65,0,1.36,0,2.11s.06,1.42.12,2ZM6.81,47.78V40.14h34v7.64Zm34-15.49h-34V9.36h6.42V24.65H19.9V11.07h6.27V24.65h8.19V8.23h6.42Z"/><path id="svg_4" data-name="svg 4" class="cls-2" d="M129.62,196.3q-18-31.89-38.85-63Q81.64,119.75,72,106.82h42.18q4.65,6.81,9,13.37V106.82h41.54V196.3Z"/><path id="svg_5" data-name="svg 5" class="cls-3" d="M48.65,72.69V16q4.76,5.29,10,11.54Q69.34,40.44,80.45,55t22.11,30.28q4.77,6.81,9.3,13.4H69.45Q59.33,85.34,48.65,72.69ZM123.19,5.87h41.54V98.72H123.19Z"/><path id="svg_6" data-name="svg 6" class="cls-2" d="M13.79,217a5.92,5.92,0,0,0-2.37-.54,1.83,1.83,0,0,1-2-1.77,1.87,1.87,0,0,1,2-1.95,1.76,1.76,0,0,1,2,1.69.22.22,0,0,0,.22.16h2.51c.14,0,.24-.1.22-.16a4.64,4.64,0,0,0-4.92-4.58,4.83,4.83,0,0,0-5,4.84A4.27,4.27,0,0,0,9,218.7a6,6,0,0,0,2.39.54,2.06,2.06,0,0,1,2,1.95,1.88,1.88,0,0,1-2,1.78h0v2.9h0a4.68,4.68,0,0,0,5-4.68A4.47,4.47,0,0,0,13.79,217Zm12.35.92a1.51,1.51,0,1,0-1.51,1.51A1.5,1.5,0,0,0,26.14,217.87Zm6.22-.06c0-4-2.59-8-7.71-8s-7.75,4-7.75,8,2.55,8.06,7.75,8.06S32.36,221.83,32.36,217.81Zm-3,.06c0,2.59-1.58,5.18-4.7,5.18s-4.71-2.59-4.71-5.18,1.56-5.24,4.71-5.24S29.35,215.24,29.35,217.87Zm13.15-1.52H36.2v-3.64h4.56V209.8H33.35a.22.22,0,0,0-.22.18v15.71a.22.22,0,0,0,.22.18H36.2v-6.61h6.3a.22.22,0,0,0,.23-.18v-2.55A.21.21,0,0,0,42.5,216.35Zm4-.72v10.06a.2.2,0,0,0,.22.18h2.59a.23.23,0,0,0,.24-.18V215.63Zm-3.09-3.08h9.21c.15,0,.23-.08.23-.18V210a.21.21,0,0,0-.23-.18H43.43a.22.22,0,0,0-.22.18v2.39A.2.2,0,0,0,43.43,212.55ZM65.74,217a6,6,0,0,0-2.37-.54,1.83,1.83,0,0,1-2-1.77,1.86,1.86,0,0,1,2-1.95,1.77,1.77,0,0,1,2,1.69.22.22,0,0,0,.22.16h2.51c.14,0,.24-.1.22-.16a4.64,4.64,0,0,0-4.92-4.58,4.83,4.83,0,0,0-5,4.84A4.26,4.26,0,0,0,61,218.7a5.93,5.93,0,0,0,2.39.54,2.07,2.07,0,0,1,2,1.95,1.89,1.89,0,0,1-2,1.78h0v2.9h0a4.68,4.68,0,0,0,5-4.68A4.48,4.48,0,0,0,65.74,217Zm12.35.92a1.51,1.51,0,1,0-1.51,1.51A1.51,1.51,0,0,0,78.09,217.87Zm6.22-.06c0-4-2.59-8-7.71-8s-7.75,4-7.75,8,2.55,8.06,7.75,8.06S84.31,221.83,84.31,217.81Zm-3,.06c0,2.59-1.59,5.18-4.7,5.18s-4.72-2.59-4.72-5.18,1.57-5.24,4.72-5.24S81.3,215.24,81.3,217.87Zm12.45,5H85.07v2.82a.22.22,0,0,0,.22.18h8.46a.2.2,0,0,0,.22-.18v-2.62A.21.21,0,0,0,93.75,222.87Zm-5.6-3.07V210a.21.21,0,0,0-.21-.18H85.29a.22.22,0,0,0-.22.18v9.82Zm18.13-10h-2.61a.2.2,0,0,0-.22.18V220.5c0,1.63-1.49,2.41-3,2.41a2.79,2.79,0,0,1-3-2.43v-7.77h-3v7.79c0,3.32,2.71,5.37,6,5.37s6-2,6-5.37V210A.21.21,0,0,0,106.28,209.8Zm4.11,5.83v10.06a.2.2,0,0,0,.22.18h2.59c.14,0,.25-.1.25-.18V215.63Zm-3.09-3.08h9.22c.14,0,.22-.08.22-.18V210a.2.2,0,0,0-.22-.18H107.3a.22.22,0,0,0-.22.18v2.39A.2.2,0,0,0,107.3,212.55Zm16.47,10.56h-1.61V209.8h-3.07v13.31h-1.65a.21.21,0,0,0-.22.19v2.39a.22.22,0,0,0,.22.18h6.33a.2.2,0,0,0,.22-.18V223.3A.2.2,0,0,0,123.77,223.11Zm9.79-5.24a1.51,1.51,0,1,0-1.5,1.51A1.5,1.5,0,0,0,133.56,217.87Zm6.23-.06c0-4-2.59-8-7.71-8s-7.75,4-7.75,8,2.55,8.06,7.75,8.06S139.79,221.83,139.79,217.81Zm-3,.06c0,2.59-1.59,5.18-4.7,5.18s-4.72-2.59-4.72-5.18,1.57-5.24,4.72-5.24S136.78,215.24,136.78,217.87Zm17.07-8.07h-2.6a.23.23,0,0,0-.24.18v10.46l-7.41-10.58s-.14-.06-.18-.06h-2.67a.21.21,0,0,0-.2.18v12h3.07v-6.79L151,225.81s.14.06.18.06h2.66a.2.2,0,0,0,.22-.18V210a.2.2,0,0,0-.22-.18Zm8.27,7.15a6,6,0,0,0-2.37-.54,1.83,1.83,0,0,1-2-1.77,1.86,1.86,0,0,1,2-1.95,1.77,1.77,0,0,1,2,1.69.22.22,0,0,0,.22.16h2.51c.14,0,.24-.1.22-.16a4.64,4.64,0,0,0-4.92-4.58,4.83,4.83,0,0,0-5,4.84,4.26,4.26,0,0,0,2.61,4.06,5.93,5.93,0,0,0,2.39.54,2.07,2.07,0,0,1,2,1.95,1.89,1.89,0,0,1-2,1.78h0v2.9h0a4.68,4.68,0,0,0,5-4.68,4.48,4.48,0,0,0-2.61-4.24Z"/></g></g></g></g></svg>