<svg xmlns="http://www.w3.org/2000/svg" xmlns:xlink="http://www.w3.org/1999/xlink" viewBox="0 0 451.19 370.34"><defs><style>.cls-1{fill:url(#linear-gradient);}.cls-2{fill:url(#linear-gradient-2);}.cls-3{fill:#aebecc;}.cls-4{fill:#f0f0f0;}.cls-5{fill:#fff;}.cls-6{fill:url(#linear-gradient-3);}.cls-7{fill:#757575;}.cls-8{fill:#dfe1e8;}.cls-9{fill:#eef0f7;}.cls-10{fill:#3c4145;}.cls-11{fill:#eea886;}.cls-12{fill:#e55353;}.cls-13{fill:#a77860;}.cls-14{fill:#bd4444;}.cls-15{fill:#d9c7c1;}.cls-16{fill:#eea987;}.cls-17{fill:#e8734d;}.cls-18{fill:#c78d71;}.cls-19{fill:#eddad3;}.cls-20{fill:#5073ab;}.cls-21{fill:#323657;}.cls-22{fill:#f5f7ff;}.cls-23{fill:#949494;}.cls-24{fill:#ffbf55;}.cls-25{fill:#f3f3f3;}.cls-26{fill:#131c24;}.cls-27{fill:#4f4946;}.cls-28{fill:#293e4f;}.cls-29{fill:#1a2833;}.cls-30{fill:#385369;}.cls-31{fill:#3e5e78;}.cls-32{fill:#263947;}.cls-33{fill:#706865;}.cls-34{fill:#bdafaa;}.cls-35{fill:#b5deff;}.cls-36{fill:#e2d2ca;}.cls-37{fill:#ccbdb7;}.cls-38{fill:#4667a8;}.cls-39{fill:#b59074;}.cls-40{fill:#ead8cf;}.cls-41{fill:#da9b5b;}.cls-42{fill:#424773;}.cls-43{fill:#292c47;}.cls-44{fill:#3a3f47;}.cls-45{fill:#918783;}.cls-46{fill:#5e5854;}.cls-47{fill:#bfb2ac;}.cls-48{fill:#5f8be3;}.cls-49{fill:#cecfd6;}.cls-50{fill:#59524f;}.cls-51{fill:#314875;}.cls-52{fill:#1d3b54;}.cls-53{fill:#de9673;}.cls-54{fill:#eb4747;}.cls-55{fill:#754836;}.cls-56{fill:#db9c7c;}.cls-57{fill:#4da8f2;}.cls-58{fill:#efaa88;}.cls-59{fill:#d88a51;}</style><linearGradient id="linear-gradient" x1="338.16" y1="38.56" x2="415.28" y2="38.56" gradientUnits="userSpaceOnUse"><stop offset="0" stop-color="#ff9f55"/><stop offset="1" stop-color="#ffd255"/></linearGradient><linearGradient id="linear-gradient-2" x1="386.11" y1="94.08" x2="421.46" y2="94.08" xlink:href="#linear-gradient"/><linearGradient id="linear-gradient-3" x1="92.57" y1="38.56" x2="368.97" y2="38.56" gradientTransform="translate(461.55 77.12) rotate(-180)" xlink:href="#linear-gradient"/></defs><g id="Layer_2" data-name="Layer 2"><g id="Слой_1" data-name="Слой 1"><path class="cls-1" d="M408.91,30.22a33,33,0,0,0-3.53-8.52l3.6-5.41-5-5-5-5-5.41,3.6a33,33,0,0,0-8.52-3.53L383.78,0H369.66l-1.28,6.37a33,33,0,0,0-8.52,3.53l-5.41-3.6-5,5-5,5,3.6,5.41a33,33,0,0,0-3.53,8.52l-6.37,1.28V45.62l6.37,1.28a33,33,0,0,0,3.53,8.52l-3.6,5.41,5,5,5,5,5.41-3.6a33,33,0,0,0,8.52,3.53l1.28,6.37h14.12l1.28-6.37a33,33,0,0,0,8.52-3.53l5.41,3.6,5-5,5-5-3.6-5.41a33,33,0,0,0,3.53-8.52l6.37-1.28V31.5ZM376.72,63.3a24.74,24.74,0,1,1,24.74-24.74A24.74,24.74,0,0,1,376.72,63.3Z"/><path class="cls-2" d="M418.55,90.26a15,15,0,0,0-1.63-3.91l1.66-2.48-2.29-2.29L414,79.29l-2.48,1.65a15.3,15.3,0,0,0-3.91-1.62L407,76.4h-6.47L400,79.32a15.08,15.08,0,0,0-3.9,1.62l-2.48-1.65-2.29,2.29L389,83.87l1.65,2.48A15.3,15.3,0,0,0,389,90.26l-2.92.58v6.48l2.92.58a15.3,15.3,0,0,0,1.62,3.91L389,104.29l2.29,2.29,2.29,2.29,2.48-1.65a15.08,15.08,0,0,0,3.9,1.62l.59,2.92H407l.59-2.92a15.3,15.3,0,0,0,3.91-1.62l2.48,1.65,2.29-2.29,2.29-2.29-1.66-2.48a15,15,0,0,0,1.63-3.91l2.91-.58V90.84Zm-14.76,15.16a11.34,11.34,0,1,1,11.34-11.34A11.34,11.34,0,0,1,403.79,105.42Z"/><rect class="cls-3" x="213.41" y="209.69" width="34.73" height="105.49" transform="translate(461.55 524.86) rotate(180)"/><rect class="cls-4" x="80.83" y="48.94" width="299.89" height="211.56" rx="15.25" transform="translate(461.55 309.44) rotate(180)"/><rect class="cls-5" x="92.57" y="26.43" width="276.4" height="200.92" transform="translate(461.55 253.77) rotate(180)"/><rect class="cls-6" x="92.57" y="26.43" width="276.4" height="24.27" transform="translate(461.55 77.12) rotate(180)"/><path class="cls-7" d="M221.1,242.52a9.68,9.68,0,1,0,9.67-9.68A9.67,9.67,0,0,0,221.1,242.52Z"/><rect class="cls-8" x="174.63" y="67.95" width="97.14" height="7.19" rx="3.5" transform="translate(446.41 143.1) rotate(180)"/><rect class="cls-8" x="174.63" y="80.92" width="97.14" height="7.19" rx="3.5" transform="translate(446.41 169.04) rotate(180)"/><rect class="cls-8" x="174.63" y="93.89" width="97.14" height="7.19" rx="3.5" transform="translate(446.41 194.98) rotate(180)"/><path class="cls-8" d="M224.65,213.21H121a15.69,15.69,0,0,1-15.67-15.67v-63A15.69,15.69,0,0,1,121,118.85H224.65a15.68,15.68,0,0,1,15.66,15.67v63A15.68,15.68,0,0,1,224.65,213.21ZM121,120.81a13.73,13.73,0,0,0-13.71,13.71v63A13.73,13.73,0,0,0,121,211.25H224.65a13.72,13.72,0,0,0,13.7-13.71v-63a13.72,13.72,0,0,0-13.7-13.71Z"/><rect class="cls-8" x="122.31" y="127.45" width="101.06" height="15.16" rx="6.92" transform="translate(345.68 270.05) rotate(-180)"/><rect class="cls-4" x="152.65" y="311.19" width="156.24" height="7.96"/><path class="cls-9" d="M337.89,139.56A22.48,22.48,0,0,1,326.75,159a23.06,23.06,0,0,1-4.26,1.93l-.41.13a22.49,22.49,0,1,1,15.81-21.48Z"/><path class="cls-10" d="M310,137.18s-1.54-9.94,6.69-9.75,8.12,5.09,8,10-3.3,4.51.25,11.3-3.08,6.78-3.08,6.78l-5.15-7.08Z"/><path class="cls-11" d="M315.82,128.38s-5.57.88-5.79,8.8,1.5,9.61,6.38,8,6.42-9.94,6.53-11.22S323.34,127.43,315.82,128.38Z"/><path class="cls-12" d="M325.61,155.93a5.4,5.4,0,0,1-3.12,5l-.41.13a22.56,22.56,0,0,1-16.68-1.33c-.68-1.35.31-3.27,2.3-6.22,1.37-2,2.71-4.1,5-5.1,3.39-.54,7-.57,9.51.86C324.23,150.39,325.58,152.45,325.61,155.93Z"/><path class="cls-12" d="M308.79,153.37l-2.56,4a23.65,23.65,0,0,0,.47-2.41c.05-.33.11-.71.17-1.13a2.62,2.62,0,0,1,.09-.38h0c1.09-2.53,4.51-4.41,4.64-4.47Z"/><path class="cls-11" d="M326.75,159a23.06,23.06,0,0,1-4.26,1.93l-.41.13c-.57-1.47-1.06-2.74-1.17-3.07,0-.09-.1-.27-.2-.51a17.09,17.09,0,0,1-1.51-5.58c0-1.26.41-2.29,1.67-2.58a3.13,3.13,0,0,1,1.35-.05,3.93,3.93,0,0,1,2.7,2.65.14.14,0,0,1,0,.06,8.56,8.56,0,0,1,.51,1.79l.06.25.43,1.7C326.17,156.59,326.45,157.73,326.75,159Z"/><path class="cls-11" d="M319.54,141.57c-.48.91-1,6.58-1,6.58s-6.82,2.58-6.12,1.12a5.57,5.57,0,0,0,.42-2.26,12.94,12.94,0,0,0-.08-1.38l0-.23S320,140.66,319.54,141.57Z"/><path class="cls-10" d="M313.55,134.07s2.86,4.65,5.46,6.49,1.28,3.3,1.28,3.3,6.8-14.31.34-15.3-10.42-1.06-10.6,8.62C310,137.18,313,134,313.55,134.07Z"/><path class="cls-13" d="M316.66,145.05c-1.05,1.54-3.81,2-3.81,2h0a12.94,12.94,0,0,0-.08-1.38A7.83,7.83,0,0,0,316.66,145.05Z"/><path class="cls-14" d="M307,153.46h0a5.66,5.66,0,0,0-.27,1.54l1-1.51s1.79-2.57,2.41-3.24a9.38,9.38,0,0,1,1.5-1.26S308,150.69,307,153.46Z"/><path class="cls-12" d="M320.53,157.3a38.59,38.59,0,0,1,5.67-1.82s-.88-7-5.18-6.28S320.53,157.3,320.53,157.3Z"/><path class="cls-11" d="M312.71,148.39s-3.21,4.94-2.12,5.37,7-.57,9.47-5.27A8.8,8.8,0,0,0,312.71,148.39Z"/><path class="cls-9" d="M346.2,73.94a29.27,29.27,0,1,1-29.27-29.26A29.27,29.27,0,0,1,346.2,73.94Z"/><path class="cls-15" d="M336,90.09l-2.16,7.74A29.22,29.22,0,0,1,320.53,103c-.87.1-1.75.17-2.63.2l-1,0c-.94,0-1.88,0-2.8-.14a30.69,30.69,0,0,1-3.05-.45,29.13,29.13,0,0,1-12-5.46c-.41-2.56-.86-5.39-1.25-8,2.15-.81,9-3.13,13.32-4.59a1.27,1.27,0,0,1,.18-.06l.28-.1.73-.25.67-.23,1.74-.58h0l.09,0h.05l5.81.44,1,.07.3,0,.14,0c.35.09,1.37.35,2.71.77h0C328.31,85.67,333.89,87.67,336,90.09Z"/><path class="cls-16" d="M318.46,59.41s7,1.18,5.78,12.08-7.33,10-7.74,9.93-6.19.14-6.49-13.2C310,68.22,309.92,58.36,318.46,59.41Z"/><path class="cls-16" d="M321.51,78.26s-.24,4.49.18,5.47-5.59,4.07-9.33.54a38,38,0,0,0,.52-6.63C312.65,75.9,321.51,78.26,321.51,78.26Z"/><path class="cls-16" d="M324.38,68.41s.78-.81,1.05,0-1.24,4.51-1.14,4.67c0,0-.15.32-.33.15A40.38,40.38,0,0,1,324.38,68.41Z"/><path class="cls-16" d="M310.09,68.12s-.74-.84-1,0,.81,4.48.95,4.71c0,0,.24.38.43.21A40,40,0,0,0,310.09,68.12Z"/><path class="cls-17" d="M324.83,67.48c-.24,1.5-.47,2.61-.47,2.61l-1,1.32a26,26,0,0,0-.1-3.39c-.05-.17-.12-.48-.19-.82-.12-.55-.24-1.17-.32-1.38s-6-2-11.18.36c0,0,.05.45.05.95s-.07,1.24-.34,1.34c-.5.18-.29,3.43-.29,3.43l-.81-.94s-.23-1.69-.46-3.64v0c-.05-.45-.1-.92-.15-1.38-.12-2,.07-5.52,2.62-7.61,1.73-.73,4.48-1.36,9.06,0a3.06,3.06,0,0,1,1.34.36C325.43,61.85,324.83,67.48,324.83,67.48Z"/><path class="cls-18" d="M313.36,80a4.43,4.43,0,0,0,3.69,1.48,5,5,0,0,0,3.71-1.4s-1.22,2.55-3.72,2.53S313.36,80,313.36,80Z"/><path class="cls-16" d="M311.65,84.37a7.61,7.61,0,0,0,5.41,3.56c2.25.19,4.19-2.66,5.1-4.06A13.61,13.61,0,0,0,311.65,84.37Z"/><path class="cls-19" d="M321.52,82.85a19.61,19.61,0,0,1-4.46,3.86L319,89.62l3.21-5.75Z"/><path class="cls-19" d="M312.5,83.28a13,13,0,0,0,4.56,3.43l-2.07,3-3.62-5.24Z"/><path class="cls-20" d="M317.06,86.71l1.62,2.46a3.38,3.38,0,0,1-3.28-.06Z"/><path class="cls-21" d="M337.86,89.63c-.27,1-.69,2.46-1.79,6.45-.34.29-.68.58-1,.85s-.79.61-1.2.9A29.22,29.22,0,0,1,320.53,103c.43-10.13,1.63-19.12,1.63-19.12q1.43.38,2.7.75h0a61.92,61.92,0,0,1,12.47,4.71h0C337.71,89.53,337.86,89.63,337.86,89.63Z"/><path class="cls-21" d="M311.08,102.62a29.23,29.23,0,0,1-14.91-8.06l-.54-.55c-.51-2.18-.85-3.6-.87-3.69h0s3.62-2.38,16.43-5.8h0C311.19,84.82,311.2,93,311.08,102.62Z"/><path class="cls-20" d="M318,89.44c-.12,2.67-.14,7.84-.09,13.75l-1,0c-.94,0-1.88,0-2.8-.14a89.91,89.91,0,0,1,1.94-13.64c.14-.59.23-.88.23-.88l1.72.28C318,89,318,89.22,318,89.44Z"/><path class="cls-21" d="M339.34,92.77a28.4,28.4,0,0,1-3.27,3.31c-.34.29-.68.58-1,.85l2.82-7.3C338.55,90.21,339.11,92.2,339.34,92.77Z"/><path class="cls-21" d="M296.17,94.56l-.54-.55c-.65-.7-1.27-1.42-1.85-2.18a3.31,3.31,0,0,1,1-1.51h0Z"/><rect class="cls-22" x="104.12" y="33.97" width="39.42" height="9.17" rx="3.3"/><circle class="cls-9" cx="315.4" cy="193.15" r="22.49" transform="translate(-2.51 4.17) rotate(-0.75)"/><path class="cls-23" d="M315.4,202.12a1.13,1.13,0,0,1-1.13-1.13V185.32a1.13,1.13,0,1,1,2.26,0V201A1.13,1.13,0,0,1,315.4,202.12Z"/><path class="cls-23" d="M323.23,194.28H307.57a1.13,1.13,0,1,1,0-2.26h15.66a1.13,1.13,0,1,1,0,2.26Z"/><rect class="cls-24" x="250.68" y="119.83" width="21.09" height="21.09" rx="4.41"/><path class="cls-25" d="M260.56,135l-5.33-4.65a1,1,0,0,1,1.38-1.58l3.77,3.29,5.38-6a1,1,0,0,1,1.56,1.4Z"/><rect class="cls-24" x="250.68" y="146.86" width="21.09" height="21.09" rx="4.41"/><path class="cls-25" d="M260.56,162.05l-5.33-4.65a1,1,0,0,1,1.38-1.58l3.77,3.29,5.38-6a1,1,0,0,1,1.56,1.4Z"/><rect class="cls-24" x="250.68" y="173.89" width="21.09" height="21.09" rx="4.41"/><path class="cls-26" d="M165.81,325.66a16.09,16.09,0,0,1-2,3.37c-.9,1-4.36,2.66-4.38,5.5,0,3.08,5.84,2.23,8.13,2.11s2.46-1.75,3.43-3.5,1.93-1.44,2.11-2.85a16.94,16.94,0,0,0-.73-4.55Z"/><path class="cls-27" d="M165.71,324.77l-.17,1.46a12.74,12.74,0,0,0,7,.13l-.19-2Z"/><path class="cls-26" d="M208.05,325.66a16.58,16.58,0,0,0,2,3.37c.9,1,4.37,2.66,4.39,5.5,0,3.08-5.84,2.23-8.13,2.11s-2.47-1.75-3.43-3.5-1.94-1.44-2.12-2.85a16.83,16.83,0,0,1,.74-4.55Z"/><path class="cls-27" d="M208.15,324.77l.17,1.46a12.73,12.73,0,0,1-7,.13l.19-2Z"/><path class="cls-28" d="M206.26,285.92c0,3.8,3.54,38.44,3.54,38.44-.41,1.27-9.1,1.11-10.46.48s-5.3-35-5.55-38.79-5.91-37.11-7.1-37-6.83,35.79-7.78,38.7-5.25,37.4-5.25,37.4c-3,1.65-10.08-.41-10.08-.41s1.48-35.42,1.65-36.49c.26-1.58,0-5.84.68-15.31.62-8.47,2.85-26.9,4.26-36.88.06-.36.1-.7.15-1,.28-1.94.49-3.37.59-4.05l.06-.46q.57-.24,1.2-.45C182.1,226.76,201,227,201,227s.26,3.4.28,3.57.06.51.11.92c.11.88.28,2.19.47,3.71v0l0,.13c.67,5.42,1.61,13.35,1.52,14.17C203.29,250.78,206.26,282.13,206.26,285.92Z"/><path class="cls-15" d="M207.67,173.69l-4.88,17.51c-.17.57-.37,1.27-.58,2.08v.05a68.35,68.35,0,0,0-2.12,13.17c-.21,3.6.46,18.09.46,18.09s-7.39,2.76-18.44,2.06c0,0-11.89-.28-10.92-7.57,2.57-19.29.06-27.25-.28-29.18,0,0-1.4-8.89-2.56-16.74l17.43-6.54,7.4.56S204.42,170,207.67,173.69Z"/><path class="cls-16" d="M189.48,141.87s7.23,1.22,6,12.53-7.6,10.31-8,10.3-6.41.13-6.73-13.7C180.72,151,180.63,140.78,189.48,141.87Z"/><path class="cls-16" d="M192.65,161.42s-.25,4.66.19,5.67-5.8,4.22-9.68.57c0,0,.78-5.09.54-6.89S192.65,161.42,192.65,161.42Z"/><path class="cls-16" d="M195.63,151.2s.8-.84,1.08,0-1.28,4.68-1.18,4.85c0,0-.15.33-.34.15A41.13,41.13,0,0,1,195.63,151.2Z"/><path class="cls-16" d="M180.8,150.9s-.76-.87-1.08,0,.84,4.66,1,4.9c0,0,.25.39.45.21A42.82,42.82,0,0,0,180.8,150.9Z"/><path class="cls-17" d="M196.09,150.24c-.25,1.55-.48,2.7-.48,2.7l-1.05,1.37a27.83,27.83,0,0,0-.1-3.51c-.06-.18-.13-.5-.21-.85a13.43,13.43,0,0,0-.33-1.43c-.13-.35-6.19-2.12-11.59.37,0,0,0,.47,0,1s-.07,1.28-.35,1.38c-.52.19-.3,3.56-.3,3.56l-.84-1s-.25-1.76-.48-3.78h0c-.05-.48-.11-1-.16-1.44-.12-2,.08-5.72,2.73-7.89,1.78-.77,6.66-1.54,9.39,0a21,21,0,0,1,1.76,1.2C197.08,145.23,196.09,150.24,196.09,150.24Z"/><path class="cls-18" d="M184.2,163.19a4.59,4.59,0,0,0,3.83,1.54,5.2,5.2,0,0,0,3.84-1.46s-1.27,2.65-3.85,2.62S184.2,163.19,184.2,163.19Z"/><path class="cls-16" d="M182.42,167.75a7.89,7.89,0,0,0,5.61,3.69c2.33.2,4.33-2.76,5.28-4.21A14.13,14.13,0,0,0,182.42,167.75Z"/><path class="cls-19" d="M192.66,166.17a20,20,0,0,1-4.63,4l2,3,3.34-6Z"/><path class="cls-19" d="M183.31,166.62a13.45,13.45,0,0,0,4.72,3.56l-2.15,3.11L182.15,168Z"/><path class="cls-20" d="M188,170.18l1.68,2.55a3.49,3.49,0,0,1-3.4-.06Z"/><path class="cls-29" d="M170.78,228s9.06,3.35,29.57.2l-.27-3.72s-11.89,3.51-28.94.51Z"/><path class="cls-30" d="M193.33,167.22a226.63,226.63,0,0,0-1.83,29.52c.29,13.66,4.72,39.27,4.72,39.27s7.91-.77,9.87-3.24c0,0-4.53-24.66-4.4-28.31s5.81-31.13,5.81-31.13S205.28,170.36,193.33,167.22Z"/><path class="cls-30" d="M182,168.05s0,15-.31,28.69-2.09,39.09-2.09,39.09-9.28-1.32-11.24-3.79c0,0,3.27-23.93,3.14-27.58s-4.19-30.86-4.19-30.86S168.69,171.59,182,168.05Z"/><rect class="cls-31" x="183.14" y="225.59" width="5.57" height="4.14"/><path class="cls-20" d="M187.25,172.09s-2.49,8.49-2.71,25.35.31,21.71.31,21.71l1.94,3.84,2.59-4s-.83-38.81-.35-46.6Z"/><path class="cls-11" d="M197.63,195.82s3.69-1.85,4.2-2.18a50.11,50.11,0,0,1,7.43-1.21c.78,0,.81.64.59.86s-6.36,1.23-6.47,1.38.52.09.52.09,6.63-.1,7.09.34-.07.87-.34,1c0,0,.61.69-.09,1a11.35,11.35,0,0,1-1.64.47s.87.45.3.85-7.6,2.58-7.6,2.58S199,196,197.63,195.82Z"/><path class="cls-30" d="M210.29,208.52c-4.79,1.14-15.85-.72-20.07-1.65-.89-.19-1.9-.4-2.94-.6h0c-1.72-.34-3.52-.67-5-.93h0l-3.09-.54s23.22-5.21,24.08-5.21S201.14,186,201.14,186s-3-11.36-1.43-15.83c0,0,5.89,1.79,7.79,3.15,1.07.76,1.85,5.69,2.57,9,.92,4.25,3.06,13.92,3.3,16C213.59,200.2,215.07,207.37,210.29,208.52Z"/><path class="cls-30" d="M174.76,170.23s-7.13,2.44-7.47,3.37a88.26,88.26,0,0,0-2.58,9.91c-.57,2.1-1.86,8.37-2.19,10.42-.43,2.6-1.24,11.84-.88,13.27.44,1.8,4.68,1.67,7,1.31s34-8.09,34-8.09-1.81-5.91-1.9-6.43c0,0-24.49,2.8-27.61,3.47-1.78.38-2.17.52-2.17.52S176.38,175.82,174.76,170.23Z"/><path class="cls-11" d="M179,196.69s-3.2-2.6-3.63-3a47.49,47.49,0,0,0-7-2.79.64.64,0,0,0-.83.77c.1.53,6,2.52,6.1,2.68s-.53,0-.53,0-6.45-1.52-7-1.19-.12.86.12,1c0,0-.74.55-.12,1a10.33,10.33,0,0,0,1.5.81s-1,.25-.47.77S171,198,171,198,177.6,196.53,179,196.69Z"/><path class="cls-32" d="M198.05,201.54l-10.77,4.73h0c-1.72-.34-3.52-.67-5-.93Z"/><path class="cls-17" d="M192.86,141.79s1.79-.91,2.76.28,1.08,7.62-.11,10.09S195.7,143.39,192.86,141.79Z"/><rect class="cls-33" x="121.41" y="205.61" width="3.21" height="145.75"/><rect class="cls-34" x="33.24" y="144.73" width="105.5" height="182.58" rx="9.62"/><rect class="cls-5" x="36.14" y="147.67" width="99.71" height="172.5" rx="9.51"/><rect class="cls-33" x="70.28" y="143.34" width="31.44" height="7.1"/><path class="cls-35" d="M116.66,313.27H52.83a9.38,9.38,0,0,1-9.38-9.37V267.56a9.38,9.38,0,0,1,9.38-9.37h63.83a9.38,9.38,0,0,1,9.37,9.37V303.9A9.38,9.38,0,0,1,116.66,313.27ZM52.83,259.39a8.19,8.19,0,0,0-8.17,8.17V303.9a8.19,8.19,0,0,0,8.17,8.17h63.83a8.19,8.19,0,0,0,8.17-8.17V267.56a8.19,8.19,0,0,0-8.17-8.17Z"/><path class="cls-21" d="M59.39,225.39h0C59.44,225.42,59.45,225.42,59.39,225.39Z"/><path class="cls-35" d="M114.82,221.46a10.4,10.4,0,1,1,10.4-10.4A10.4,10.4,0,0,1,114.82,221.46Zm0-19.59a9.2,9.2,0,1,0,9.19,9.19A9.2,9.2,0,0,0,114.82,201.87Z"/><path class="cls-35" d="M114.82,245.43a10.4,10.4,0,1,1,10.4-10.4A10.4,10.4,0,0,1,114.82,245.43Zm0-19.59A9.19,9.19,0,1,0,124,235,9.2,9.2,0,0,0,114.82,225.84Z"/><path class="cls-35" d="M67.94,211.53c-.86,0-1.73-.05-2.58-.13s-1.89-.23-2.81-.41a27.08,27.08,0,0,1-11-5,25.79,25.79,0,0,1-2.72-2.4c-.18-.17-.34-.34-.49-.5-.6-.64-1.18-1.31-1.71-2A26.69,26.69,0,0,1,41,184.58a27,27,0,0,1,26.94-26.94v1.21A25.76,25.76,0,0,0,42.2,184.58a25.51,25.51,0,0,0,5.37,15.74c.52.66,1.07,1.3,1.64,1.91.14.15.3.32.47.48A25.55,25.55,0,0,0,52.27,205a25.85,25.85,0,0,0,10.52,4.8,26.63,26.63,0,0,0,2.68.4c.82.08,1.65.12,2.47.12l.84,0a22.21,22.21,0,0,0,2.32-.18,25.62,25.62,0,0,0,11.7-4.53c.37-.26.72-.52,1.06-.79s.6-.48.91-.75a25.44,25.44,0,0,0,2.87-2.91,25.78,25.78,0,0,0,6-16.56,26.35,26.35,0,0,0-.27-3.77l1.19-.18a26.06,26.06,0,0,1,.29,4,27,27,0,0,1-6.31,17.34,28,28,0,0,1-3,3.05c-.32.27-.64.54-1,.78s-.73.56-1.11.83a26.78,26.78,0,0,1-12.25,4.74c-.79.1-1.61.16-2.43.19Z"/><path class="cls-35" d="M86.74,198.85a1.54,1.54,0,0,0-.27-.29.38.38,0,0,0-.13-.12h0c-5-2.78-14.09-5-14.09-5a15.52,15.52,0,0,1-.2-3.95A11.3,11.3,0,0,0,74.29,184c.15.11.27-.15.27-.15-.09-.15,1.27-3.46,1-4.21-.13-.42-.41-.37-.63-.25,0-.19.06-.39.1-.6,0,0,.53-5.07-2-7.9-.26-.26-1.21-.32-1.21-.32-4.12-1.26-6.59-.7-8.14,0-2.3,1.88-2.47,5.08-2.37,6.84.05.42.09.84.14,1.25h0l.06.48c-.21-.13-.5-.2-.65.22-.28.74.73,4,.85,4.24,0,0,.22.34.39.19h0a12.15,12.15,0,0,0,2.22,5.79c-.09,1.63-.38,3.67-.46,4.21h0c-2.1.66-12.66,3.47-15.86,5.57a3,3,0,0,0-.88,1.37,23.85,23.85,0,0,0,1.67,1.95l.48.5a25.74,25.74,0,0,0,2.66,2.34,26.2,26.2,0,0,0,10.76,4.91,24.78,24.78,0,0,0,2.74.41c.83.08,1.68.12,2.53.12h.86c.8,0,1.6-.09,2.37-.19a26.2,26.2,0,0,0,12-4.63l1.09-.82c.31-.24.62-.5.92-.76a26.78,26.78,0,0,0,3-3A13.1,13.1,0,0,0,86.74,198.85Z"/><rect class="cls-36" x="369.29" y="257.61" width="31.21" height="1.85" transform="translate(769.79 517.07) rotate(180)"/><rect class="cls-33" x="393.58" y="264.28" width="2.73" height="84.25"/><rect class="cls-37" x="352.48" y="257.08" width="21.69" height="2.65" transform="translate(726.66 516.81) rotate(180)"/><rect class="cls-38" x="359.22" y="234.51" width="8.21" height="24.95" transform="translate(726.66 493.97) rotate(180)"/><rect class="cls-39" x="291.5" y="259.49" width="120.2" height="4.79" transform="translate(703.2 523.77) rotate(180)"/><path class="cls-21" d="M434.77,230.5s1.31,18.43-2.29,20.64c-2.26,1.38-11.26,6-11,6.92s5.08,7.77,5.08,7.77,17.28-11.38,17.84-15-.85-27-3.23-28.08c-1.77-.81-2.71-.14-5,1.53C433.08,226.65,434.77,230.5,434.77,230.5Z"/><path class="cls-40" d="M403.27,235.76l-1.52-.56s1.89-4.46,2.72-4.35a19.12,19.12,0,0,1,2.15.44Z"/><path class="cls-41" d="M402.92,236.53c.2-.15,3.24-6,3.24-6l6.5.88-3.51,6.91Z"/><path class="cls-42" d="M413.5,337s.54,3.73.61,4.29,6-.33,6-.33l.48-4.44S414.24,336.51,413.5,337Z"/><path class="cls-43" d="M414,340.85a15.92,15.92,0,0,1-3.68,3.23c-1.81,1-4.66,1.36-5.73,2.38-.77.73-2.82,3.88,4.71,3.82s11.15.44,12-.76-1.16-8.92-1.16-8.92S418.35,341.24,414,340.85Z"/><path class="cls-42" d="M375.63,337.07s.54,3.73.61,4.29,6-.33,6-.33l.48-4.44S376.37,336.54,375.63,337.07Z"/><path class="cls-43" d="M376.17,340.89a16,16,0,0,1-3.68,3.22c-1.81,1-8.48,1.79-9.55,2.8-.77.73-2.06,3.68,8.53,3.4,7.52-.19,11.15.45,11.95-.76s-1.16-8.92-1.16-8.92S380.58,341.32,376.17,340.89Z"/><path class="cls-43" d="M432.57,272.6s-21.49,3.63-26.35,4.4-31.17,7.31-34.46,9.3c-2.62,1.59,1.37,39.74,2.31,54.3h10.36l.76-43.66c12.43.31,21.31-2.91,30.37-1.54s16.61,3.33,22.37-4.39C437.93,291,438.14,274.28,432.57,272.6Z"/><path class="cls-43" d="M411.39,340.63l10.1-.62,1-43.07A61.35,61.35,0,0,0,434,296.2l8.15-18.95c-7.15,1.43-30,7.2-33.1,9.05C406.43,287.89,410.45,326.08,411.39,340.63Z"/><path class="cls-11" d="M422.67,192s-7.87-2.17-10.88,3.94-1.64,17.71,2.33,18.8,9.68-.16,11.33-4,3-9.21,2.57-12.72S424.77,192.88,422.67,192Z"/><path class="cls-11" d="M416.18,213.56s.08,4.65-.43,5.64,11,.75,11,.75-1.81-5.59-.78-10.35S416.18,213.56,416.18,213.56Z"/><path class="cls-44" d="M426.56,207.84s-.62,1.25-3.59,1-6.89-3.79-8.15-4.11-1.34-1-1.34-1l-.67,1.19-1.29.2s.88-3.6-1-4.86.87-11.46,10.56-9c0,0,7.39,1.35,7.49,5.48S428,205.66,426.56,207.84Z"/><path class="cls-36" d="M415.15,219.09s0-1.9.89-2.08,9-1.31,10.08-.89l.45,2.5S424.54,219.87,415.15,219.09Z"/><path class="cls-11" d="M412.78,202.9c.22-1.56,2-3.34,3-.92s-.68,5.94-1.82,5.75S412.49,205,412.78,202.9Z"/><path class="cls-21" d="M380.94,241.47h0C380.89,241.49,380.88,241.5,380.94,241.47Z"/><path class="cls-44" d="M425,193.15s9.61-.45,1.68,14.55Z"/><polygon class="cls-45" points="446.38 345.74 445.66 347.75 415.47 338.4 416.92 334.33 446.38 345.74"/><rect class="cls-45" x="414.43" y="304.14" width="3.43" height="32.82" transform="translate(832.3 641.1) rotate(180)"/><rect class="cls-46" x="406.03" y="302.4" width="20.24" height="1.93" transform="translate(832.3 606.73) rotate(180)"/><polygon class="cls-45" points="385.66 345.74 386.37 347.75 416.56 338.4 415.24 334.07 385.66 345.74"/><polygon class="cls-45" points="406.93 347.54 406.93 349.87 416.56 338.4 415.24 334.07 406.93 347.54"/><path class="cls-47" d="M382.84,348.54a2.82,2.82,0,1,0,2.82-2.82A2.82,2.82,0,0,0,382.84,348.54Z"/><path class="cls-47" d="M406.69,348.54a2.82,2.82,0,1,0,2.82-2.82A2.82,2.82,0,0,0,406.69,348.54Z"/><path class="cls-47" d="M443.55,348.54a2.83,2.83,0,1,0,2.82-2.82A2.82,2.82,0,0,0,443.55,348.54Z"/><rect class="cls-36" x="392.04" y="295.07" width="47.95" height="7.33" rx="3.62" transform="translate(832.03 597.47) rotate(-180)"/><rect class="cls-33" x="306.88" y="264.28" width="2.74" height="84.25" transform="translate(616.49 612.82) rotate(180)"/><rect class="cls-48" x="327.86" y="196.49" width="70.94" height="50.04" rx="3.61" transform="translate(726.66 443.02) rotate(180)"/><rect class="cls-22" x="330.64" y="199.19" width="65.38" height="39.49" transform="translate(726.66 437.88) rotate(180)"/><rect class="cls-49" x="330.64" y="199.19" width="65.38" height="3.14" transform="translate(726.66 401.53) rotate(180)"/><rect class="cls-49" x="333.06" y="204.7" width="7.88" height="31.56" rx="2.23" transform="translate(674 440.96) rotate(180)"/><rect class="cls-49" x="379.79" y="204.7" width="14.38" height="2.92" rx="1.21" transform="translate(773.96 412.32) rotate(180)"/><rect class="cls-49" x="379.79" y="209.58" width="14.38" height="27.48" rx="2.49" transform="translate(773.96 446.64) rotate(180)"/><path class="cls-50" d="M361,242.48a2.29,2.29,0,1,0,2.29-2.29A2.29,2.29,0,0,0,361,242.48Z"/><path class="cls-51" d="M348.64,259.56v-.89s1.26-5.54,10.11-5.54,8.68,6.43,8.68,6.43Z"/><path class="cls-11" d="M367.54,254a8.62,8.62,0,0,1-2.63-.58c-.71-.42-4.92-3.26-5.92-2.8s-7.58,2.47-7.35,3.44.84.87,1.31.7a32.81,32.81,0,0,1,5.67-1s-4.7,1.71-4.72,3,1,1.55,1.43,2,1,1.65,2.19,1.74,7.12-2,8.34-2.06,3.47.08,3.62-.12S367.54,254,367.54,254Z"/><path class="cls-21" d="M402.56,221.71c6.13-1.08,12.59-2.62,12.59-2.62l11.42-.47s10.49,2.31,14.61,4.17c.4.18.4,9.36,1.47,11.76l-3.42,7.22s-2,14.31-2.39,20.67c-.19,2.92.53,28.23.53,28.23s-1,.51-8.82,1.37-27.27-.31-27.4-1.23,3.77-34.29,4-36c.26-2.65-.77-14.91-.77-14.91-1.47,2-5.21,10.89-9.12,15.13-2.29,2.49-13.66,4-15.8,4.09-4.67.16-13.18,1.08-13.43.63-.2-.27-.74-7.55-.21-7.73s16.27-1.07,20.32-3.21c1.48-.79,5.91-10.45,5.91-10.45S399.17,223.23,402.56,221.71Z"/><path class="cls-36" d="M425.07,244.14h19.18a6.94,6.94,0,0,1,6.94,6.94V283a6.94,6.94,0,0,1-6.94,6.94H425.07a6.94,6.94,0,0,1-6.94-6.94V251.09A6.95,6.95,0,0,1,425.07,244.14Z" transform="translate(869.32 534.08) rotate(180)"/><path class="cls-36" d="M424,300.57a15.15,15.15,0,0,0,11.75-4.86c6.61-7.3,5.42-20.13,5.37-20.67a1.84,1.84,0,1,0-3.66.36c0,.15,1.06,11.77-4.45,17.84-2.22,2.46-5.17,3.65-9,3.65a1.84,1.84,0,0,0,0,3.68Z"/><path class="cls-9" d="M364.28,215.34A9.24,9.24,0,1,1,355,206.1,9.24,9.24,0,0,1,364.28,215.34Z"/><path class="cls-15" d="M361.06,220.43l-.68,2.44a9.12,9.12,0,0,1-4.2,1.63,7.72,7.72,0,0,1-.83.06H355a8.64,8.64,0,0,1-.88,0,9.64,9.64,0,0,1-1-.14,9.27,9.27,0,0,1-3.78-1.73c-.13-.81-.27-1.7-.39-2.54.68-.25,2.84-1,4.2-1.44l.06,0,.09,0,.23-.08.21-.07.55-.19h0l1.83.14.31,0h.14l.86.24h0A9.24,9.24,0,0,1,361.06,220.43Z"/><path class="cls-16" d="M355.52,210.75s2.2.37,1.83,3.81-2.31,3.14-2.44,3.14-2,0-2.05-4.17C352.86,213.53,352.83,210.42,355.52,210.75Z"/><path class="cls-16" d="M356.49,216.7a8,8,0,0,0,.05,1.72c.14.31-1.76,1.29-2.94.18a11.73,11.73,0,0,0,.16-2.1C353.69,216,356.49,216.7,356.49,216.7Z"/><path class="cls-16" d="M357.39,213.59s.25-.25.33,0-.39,1.42-.36,1.47,0,.1-.1.05A12.12,12.12,0,0,1,357.39,213.59Z"/><path class="cls-16" d="M352.88,213.5s-.23-.27-.33,0a4.67,4.67,0,0,0,.3,1.49s.08.12.14.06A12.54,12.54,0,0,0,352.88,213.5Z"/><path class="cls-17" d="M357.54,213.3c-.08.47-.15.82-.15.82l-.32.42a8.22,8.22,0,0,0,0-1.07,2.61,2.61,0,0,1-.06-.26c0-.17-.08-.37-.11-.44a4.71,4.71,0,0,0-3.52.12s0,.14,0,.3,0,.39-.1.42-.1,1.08-.1,1.08l-.25-.3s-.08-.53-.15-1.14h0c0-.14,0-.29-.05-.44a2.92,2.92,0,0,1,.83-2.4,4,4,0,0,1,2.86,0s.33,0,.42.11A4.11,4.11,0,0,1,357.54,213.3Z"/><path class="cls-18" d="M353.91,217.24a1.45,1.45,0,0,0,1.17.47,1.57,1.57,0,0,0,1.17-.45,1.41,1.41,0,0,1-1.17.8A1.45,1.45,0,0,1,353.91,217.24Z"/><path class="cls-16" d="M353.38,218.63a2.38,2.38,0,0,0,1.7,1.12c.71.06,1.33-.84,1.61-1.28A4.26,4.26,0,0,0,353.38,218.63Z"/><path class="cls-19" d="M356.49,218.14a6.08,6.08,0,0,1-1.41,1.22l.6.92,1-1.81Z"/><path class="cls-19" d="M353.64,218.28a4.12,4.12,0,0,0,1.44,1.08l-.65.95-1.14-1.65Z"/><path class="cls-20" d="M355.08,219.36l.51.78a1.06,1.06,0,0,1-1,0Z"/><path class="cls-21" d="M361.65,220.29l0,.05c-.05.2-.27,1-.55,2l-.32.27-.38.28a9.12,9.12,0,0,1-4.2,1.63c.13-3.2.51-6,.51-6l.86.23h0a20.07,20.07,0,0,1,3.93,1.49h0Z"/><path class="cls-21" d="M353.2,224.39a9.27,9.27,0,0,1-3.78-1.73,8,8,0,0,1-.93-.82l-.17-.17c-.16-.69-.27-1.14-.27-1.17h0a20.89,20.89,0,0,1,5.18-1.83h0C353.23,218.77,353.23,221.36,353.2,224.39Z"/><path class="cls-20" d="M355.37,220.23c0,.84,0,2.47,0,4.33H355a8.64,8.64,0,0,1-.88,0,28.46,28.46,0,0,1,.61-4.31c.05-.18.07-.28.07-.28l.55.09C355.38,220.09,355.38,220.16,355.37,220.23Z"/><path class="cls-21" d="M362.11,221.28a9.19,9.19,0,0,1-1,1l-.32.27s.53-1.55.89-2.3C361.89,220.45,362,221,362.11,221.28Z"/><path class="cls-21" d="M348.49,221.84l-.17-.17c-.2-.22-.4-.45-.58-.69a1,1,0,0,1,.31-.48h0Z"/><path class="cls-52" d="M286.44,332.71a8,8,0,0,0-2.85-2.73c-1.65-.77-5,1.91-5.33,3.4l-3.92,5.72.74.5,2.09-3.05c-1.42,3.43-3.46,7.53-2,9.6,1.92,2.77,6.28,5.57,7.43,5.08s.92-8.54.92-8.54C282.25,335.59,286.44,332.71,286.44,332.71Z"/><path class="cls-53" d="M286.44,332.71a44,44,0,0,0-2.16,4.88c-.74,2.13-.87,8-1.34,8.45s-4.11-1.43-4.59-3.64,1-6.62,2.4-8.94a14.45,14.45,0,0,1,2.84-3.48A3.66,3.66,0,0,1,286.44,332.71Z"/><path class="cls-53" d="M300.52,281s-2.24,11.85-2.24,14.69a26.16,26.16,0,0,1-2.57,10.91C293.9,310,286,333.48,285.3,336.21s-1.28,5.32-1.28,5.32-3.95-1.81-3.95-4.39,3.44-23.88,4-28.09,5.58-25.77,5.58-25.77Z"/><path class="cls-11" d="M287.89,280.19s.77,9.87.69,12.45-1.29,8.42-1.29,10,0,33.59,1.28,37.45-3.6,1.21-3.6,1.21-8.51-21.08-8.51-29.87,1-13.17.43-18.76a68.21,68.21,0,0,0-3.27-12.93Z"/><path class="cls-54" d="M275,232.63a30.71,30.71,0,0,0-5.77,13.08c-1.2,7.47,1.42,21.56,2.36,25.64.82,3.58,2.38,15,2.47,16.24,0,0,15.37,1.74,27.06-2,0,0,1.07-16,1.75-22.78s-2.66-29.71-2.66-29.71Z"/><path class="cls-52" d="M292.6,349.81c-5.51-4.81-4-9.75-4-9.75a8.14,8.14,0,0,0-4-.33c-1.79.44-2.75,4.71-2,6.07l.56,7,.9-.07-.29-3.74c1.06,3.61,2.07,8.14,4.51,8.85,3.28,1,8.49.39,9.09-.72S292.6,349.81,292.6,349.81Z"/><path class="cls-55" d="M295.83,180.28s-1.36,8.11-.18,10.83-6.26-3.18-6.26-3.18S292.48,179,295.83,180.28Z"/><path class="cls-55" d="M293.09,157.75s-11.93-2.73-13.42,10,3.88,14.34.25,23,8.87-2.81,8.87-2.81Z"/><path class="cls-11" d="M292.06,157.56a10.36,10.36,0,0,1,10.61,9.8,24.72,24.72,0,0,1-.88,3.88c-.58,1.7.82,6.81.41,7a11,11,0,0,1-2.08.51s-1.94,5.48-3.88,5.38-9.24-1.83-12.51-8.8S279.7,157.81,292.06,157.56Z"/><path class="cls-52" d="M258.7,258.46s.29-4.91,1.59-5.67.54.76.54.76-.73,3.56-.89,5A7.32,7.32,0,0,1,258.7,258.46Z"/><path class="cls-11" d="M264.71,247.42a35.36,35.36,0,0,0,1,4.32c.67,2.11,1.28,2.79,1,4-.2.92-1.24,1.61-1.5,1.32s-.39-3.86-1.86-3.85.44,4.42-.44,4.1-4.26-2.18-4.05-4,1.56-3.09,1.48-5.78a5.77,5.77,0,0,1,.68-3.45Z"/><path class="cls-52" d="M263.53,253.06s2,.51,1.85,7.16l-2.23-.37a22.56,22.56,0,0,0-.62-5.68S262.64,252.87,263.53,253.06Z"/><polygon class="cls-19" points="271.7 261.72 254.35 256.8 254.41 278.16 271.66 288.5 271.7 261.72"/><polygon class="cls-19" points="271.66 288.5 269.49 288.9 252.71 278.46 252.91 256.9 254.35 256.8 271.66 288.5"/><path class="cls-54" d="M293.71,187.52s4.62,1.9,5.45,2.48,2.47,7.26,2.88,7.84,4.4,5.53,3.85,9.55a10.38,10.38,0,0,1-3.37,6.07c-1.16,1.24-2.23,7.9-2.59,8.89s.79,14,.79,14-13.56,5.28-25.7-3.72c0,0,2.43-8.71,2.43-10.28s-1.57-12.62-5.78-19.15.74-13.45,4-14.27,9.41-3.14,9.41-3.14Z"/><path class="cls-54" d="M278.91,187.94s-6.79-.42-10.19,3.54-3.22,8.67-4.09,10.71-2.85,10.84-3.28,12.26-.86,9.43-1.47,15.87-.5,18.46-.5,18.46l6.5-1.18s.26-11.46.42-18.11,5.57-18.38,7.62-23.52S284.09,191.16,278.91,187.94Z"/><path class="cls-54" d="M298.48,189.62a5.6,5.6,0,0,1,4.41,3.16c1.42,3,2,5.45,2.34,6.19s5.52,10.53,5.83,12.7-.18,6.12-2.91,7.18-12.5,1.17-12.5,1.17,2.47-5,.18-7.63c0,0,7.1-1.28,8.78-1.45S296.23,191.85,298.48,189.62Z"/><polygon class="cls-52" points="282.22 198.02 295.45 228.91 311.94 221.15 299.74 191.48 282.22 198.02"/><path class="cls-11" d="M289.81,213.2s-1.79.48-2.36.56.13,1.13.83,1.16S289.81,213.2,289.81,213.2Z"/><path class="cls-11" d="M291,222a3.73,3.73,0,0,0,1.19-.24s.61-.4,1.07-.66l.36-.19a6.77,6.77,0,0,0,2-1c.78-.6,3.31-3,3.31-3l-1.67-2.52-1.3-2s-5.43.15-6.22.63l-.22.15a8.37,8.37,0,0,0-1.2,1.37c-.11.1-1.14,1.22-1.07,1.67a1.48,1.48,0,0,0,.78,1.21,3.52,3.52,0,0,0,.86,1.75,2.22,2.22,0,0,0,1.14,1.57S290.33,221.86,291,222Z"/><path class="cls-54" d="M295.83,212.39s8.06-1.44,10.28-1.67a28.18,28.18,0,0,0-.25-5.22,20.35,20.35,0,0,0-2.38-5.61l4.12,3.77s3.39,6.49,3.46,8,.48,3.85-1.52,6.23-11.46,1.29-11.46,1.29S298.87,216.27,295.83,212.39Z"/><path class="cls-11" d="M293.36,182.88s-.27.77-.57,1.91c-.15.58-.32,1.26-.47,2a13.58,13.58,0,0,0-.2,5.94s-4.33,1.37-7.55-4.79c0,0,1.64-6.5-.14-10.51S293.36,182.88,293.36,182.88Z"/><path class="cls-55" d="M302.67,167.36s-5.05,3.25-10,3.79-7.7,8-7.7,8-7.77-12.1-1.51-19.54S304,158,302.67,167.36Z"/><path class="cls-11" d="M290.63,170.87a1.52,1.52,0,0,0-2.62-1.16c-1.6,1.26.37,5.85,1.67,5.44S290.63,171.85,290.63,170.87Z"/><path class="cls-11" d="M294,187.63s2,6-2.73,6-6.84-3.78-8.2-7.11a17.8,17.8,0,0,1,3.22-1.22C287.29,185.14,294,187.63,294,187.63Z"/><polygon class="cls-52" points="265.38 259.93 263.15 260.22 263.15 259.18 265.38 259.93"/><path class="cls-52" d="M260,258.39l-1.23.15s0-.37,0-.5S259.92,258.31,260,258.39Z"/><path class="cls-11" d="M288.57,340.06a44.12,44.12,0,0,0,1.4,5.22c.78,2.15,4.44,6.89,4.33,7.51s-4.14,1.49-5.93.06-3.44-5.85-3.81-8.57a20,20,0,0,1-.17-4.49S286.85,338.52,288.57,340.06Z"/><path class="cls-13" d="M293.18,183.5c-.16.58-.39,1.29-.57,2a20.56,20.56,0,0,1-5.78-5.78A24.08,24.08,0,0,0,293.18,183.5Z"/><path class="cls-8" d="M111.83,67.74h46.12a6.8,6.8,0,0,1,6.8,6.8V93.19a6.8,6.8,0,0,1-6.8,6.8H111.83a6.8,6.8,0,0,1-6.8-6.8V74.54A6.81,6.81,0,0,1,111.83,67.74Z"/><path class="cls-21" d="M74.29,229.69h0C74.34,229.71,74.34,229.71,74.29,229.69Z"/><rect class="cls-35" x="43.65" y="218.74" width="48.57" height="5.8" rx="2.22" transform="translate(135.88 443.28) rotate(180)"/><rect class="cls-35" x="43.65" y="229.21" width="48.57" height="5.8" rx="2.22" transform="translate(135.88 464.22) rotate(180)"/><rect class="cls-35" x="43.65" y="239.68" width="48.57" height="5.8" rx="2.22" transform="translate(135.88 485.16) rotate(180)"/><rect class="cls-35" x="105.41" y="155.49" width="18.83" height="40.87" rx="4.14"/><path class="cls-11" d="M6.78,269.5a6.34,6.34,0,0,1,.81,2.15,10.75,10.75,0,0,0,1,2.55,23.89,23.89,0,0,1,1.21,4.23,18.92,18.92,0,0,0-.57,2.84c.09.61.44,1.83-.11,1.91S8,282.26,8,282.26a.81.81,0,0,1-.42.78,1.37,1.37,0,0,1-1.38.06s-.34.62-.76.7A1.73,1.73,0,0,1,4,283.61,1.64,1.64,0,0,1,3,284a1.37,1.37,0,0,1-1.16-.72s-1,.21-1.34-.28a4.52,4.52,0,0,1-.37-1.43,16.72,16.72,0,0,1,1.31-7.25,6.43,6.43,0,0,0-.34-5.62Z"/><path class="cls-56" d="M8.09,281.89s.1-3.55-.84-4.3-1,.52-1,.52.13-1.26-.89-1.43S4.25,278,4.25,278A1,1,0,0,0,3,277.23c-1.07.21-.81,1.45-.81,1.45s-1-1.22-1.69-.05a5.23,5.23,0,0,0,0,4.32s.32.54,1.34.28a1.4,1.4,0,0,0,2.2.38s1.57.86,2.14-.51A1.29,1.29,0,0,0,8.09,281.89Z"/><path class="cls-21" d="M18.82,218.38s-6.08,20.25-8.13,27.72c-.64,2.34-2.2,24.71-2.47,25.61s-8,2.14-8,2.14.94-28,1-29.52,8.51-32.78,11-33.89c1.83-.84,2.8-.14,5.11,1.57C20.56,214.42,18.82,218.38,18.82,218.38Z"/><rect class="cls-57" x="77.05" y="185.36" width="16.62" height="1.23" transform="matrix(0.84, -0.55, 0.55, 0.84, -87.88, 77.06)"/><path class="cls-58" d="M94.13,186.14a3.77,3.77,0,0,1-.35,1.11s-.46.54-.76.94l-.22.33a6.39,6.39,0,0,1-1.15,1.78c-.66.68-3.24,2.81-3.24,2.81l-2.21-1.87-2.29-1s1.28-5.59,1.83-6.29l.16-.19a8.55,8.55,0,0,1,1.44-1c.11-.1,1.29-.95,1.71-.84a1.44,1.44,0,0,1,1.07.89,3.33,3.33,0,0,1,1.57,1,2.08,2.08,0,0,1,1.36,1.27S94.09,185.49,94.13,186.14Z"/><path class="cls-42" d="M13.89,356.63s-.55,3.85-.62,4.43-6.16-.34-6.16-.34l-.5-4.58S13.13,356.09,13.89,356.63Z"/><path class="cls-43" d="M13.33,360.57a16.46,16.46,0,0,0,3.8,3.32c1.87,1,4.8,1.41,5.9,2.46.8.75,2.91,4-4.85,3.93s-11.49.46-12.32-.78,1.2-9.19,1.2-9.19S8.9,361,13.33,360.57Z"/><path class="cls-42" d="M57.54,356.63s-.56,3.85-.63,4.43-6.16-.34-6.16-.34l-.49-4.58S56.78,356.09,57.54,356.63Z"/><path class="cls-43" d="M57,360.57a16.46,16.46,0,0,0,3.8,3.32c1.86,1,8.73,1.84,9.84,2.89.79.75,2.12,3.79-8.79,3.5-7.75-.2-11.49.46-12.32-.78s1.2-9.19,1.2-9.19S52.44,361,57,360.57Z"/><path class="cls-43" d="M18.94,257.86s-5.73,9.09-5.3,17.31S11.56,292.37,10.7,301c-1,9.57-4.88,32.23-5,37.35s.61,21.48.61,21.48l7.85.17s6.6-39.62,8.3-43.66,10.18-32.86,10.47-36.1S18.94,257.86,18.94,257.86Z"/><path class="cls-43" d="M49.07,259.09s4.31,22.53,4.88,27.56.95,24.35,1.23,27.49S57.84,355.2,58.6,360h-10s-7.71-27.62-7.71-40.69-6-28.42-9.79-37-12.64-8.82-15-24.83C16.05,257.39,45.87,254,49.07,259.09Z"/><path class="cls-11" d="M28.49,181.4s7.68-2.86,11.22,3,3.2,17.56-.67,19-9.69.68-11.67-3-3.78-8.95-3.69-12.49S26.47,182.43,28.49,181.4Z"/><path class="cls-11" d="M38.21,203.65a6.69,6.69,0,0,0,.2,3.09c.53,1-9.95,1-9.95,1A69,69,0,0,0,26,197.54C24.38,192.84,38.21,203.65,38.21,203.65Z"/><path class="cls-59" d="M26,197.54s.72,1.19,3.67.73,6.56-4.39,7.79-4.83,1.25-1.15,1.25-1.15l.77,1.13,1.31.08s-1.2-3.52.61-4.95-1.87-11.37-11.34-8.06c0,0-7.28,2-7,6.14S24.37,195.48,26,197.54Z"/><path class="cls-36" d="M39,206.62s0-2-.92-2.14-9.77-1-10.86-.61v2.27S29.36,207.43,39,206.62Z"/><path class="cls-11" d="M38.51,190.78c-.16-.69-1.93-2.67-2.6-.55s1,5,2,4.73S38.93,192.54,38.51,190.78Z"/><path class="cls-21" d="M53.73,209.58c-6.09-.81-14.69-3-14.69-3l-11.78-.48s-10.8,2.38-15,4.3c-.41.18-.41,9.64-1.52,12.12L14.22,230s2,14.74,2.46,21.3c.2,3-4.2,28.22-4.2,28.22a81.21,81.21,0,0,0,12.74,2.28c8,.88,28.11-.32,28.24-1.27s-3.89-35.34-4.07-37.12c-.27-2.73,1-17.25,1-17.25,1.85-1.44,18.14-9,22.58-12.94,1.19-1.06,6.21-5.95,7.64-7.63,5-6,9.19-11.1,9.69-12.21.58-.62-5.49-3.92-6-4.1S76.9,198,74.28,200.81a75.21,75.21,0,0,1-6,4.82S57.54,209.79,53.73,209.58Z"/><path class="cls-59" d="M26.3,182.09s-9.8.77-.3,15.45Z"/><polygon class="cls-8" points="92.65 181.94 93.45 180.72 91.98 180.91 92.65 181.94"/></g></g></svg>